M48
; DRILL file KiCad 10.0.4 date 2026-10-03T12:12:22
; FORMAT={-:-/ absolute / metric / decimal}
; #@! TF.CreationDate,2026-10-03T12:12:22+13:00
; #@! TF.GenerationSoftware,Kicad,Pcbnew,10.0.4
; #@! TF.FileFunction,Plated,1,2,PTH
FMAT,2
METRIC
; #@! TA.AperFunction,Plated,PTH,ViaDrill
T1C0.300
; #@! TA.AperFunction,Plated,PTH,ComponentDrill
T2C0.800
; #@! TA.AperFunction,Plated,PTH,ComponentDrill
T3C1.000
; #@! TA.AperFunction,Plated,PTH,ComponentDrill
T4C1.300
%
G90
G05
T1
X51.0Y-63.0
X53.0Y-82.5
X55.0Y-64.5
X57.08Y-61.5
X61.12Y-63.0
X69.5Y-72.0
X86.5Y-102.0
X91.5Y-86.5
X119.0Y-87.0
X123.0Y-45.5
T2
X79.78Y-51.64
X79.783Y-74.504
X82.32Y-51.64
X82.323Y-74.504
X84.86Y-51.64
X84.863Y-74.504
X87.4Y-51.64
X87.4Y-74.5
X89.94Y-51.64
X89.94Y-74.5
X92.48Y-51.64
X92.48Y-74.5
X95.02Y-51.64
X95.02Y-74.5
X97.56Y-51.64
X97.56Y-74.5
X100.1Y-51.64
X100.1Y-74.5
X102.64Y-51.64
X102.64Y-74.5
X105.18Y-51.64
X105.18Y-74.5
X107.72Y-51.64
X107.72Y-74.5
X110.26Y-51.64
X110.26Y-74.5
X112.8Y-51.64
X112.8Y-74.5
X115.34Y-51.64
X115.34Y-74.5
X117.88Y-51.64
X117.88Y-74.5
X120.42Y-51.64
X120.42Y-74.5
X122.96Y-51.64
X122.96Y-74.5
X125.5Y-51.64
X125.5Y-74.5
X128.04Y-51.64
X128.04Y-74.5
X130.58Y-51.64
X130.58Y-74.5
X133.12Y-51.64
X133.12Y-74.5
T3
X45.5Y-42.3
X45.5Y-44.84
X45.5Y-47.38
X45.5Y-49.92
X45.5Y-52.46
X45.5Y-55.0
X45.5Y-57.54
X45.5Y-60.08
X45.5Y-62.62
X45.5Y-84.0
X45.5Y-86.54
X45.5Y-89.08
X45.5Y-91.62
X45.5Y-94.16
X45.5Y-96.7
X109.34Y-32.5
X111.88Y-32.5
X114.42Y-32.5
X116.96Y-32.5
X119.5Y-32.5
X122.04Y-32.5
X124.58Y-32.5
T4
X31.0Y-124.0
X31.0Y-129.0
X43.5Y-124.0
X43.5Y-129.0
X46.5Y-109.5
X46.5Y-114.5
X46.5Y-138.5
X46.5Y-143.5
X59.0Y-109.5
X59.0Y-114.5
X59.0Y-138.5
X59.0Y-143.5
X62.0Y-124.0
X62.0Y-129.0
X71.75Y-88.0
X71.75Y-93.0
X74.5Y-124.0
X74.5Y-129.0
X84.25Y-88.0
X84.25Y-93.0
X92.5Y-124.0
X92.5Y-129.0
X95.5Y-88.0
X95.5Y-93.0
X105.0Y-124.0
X105.0Y-129.0
X108.0Y-88.0
X108.0Y-93.0
X112.25Y-118.5
X112.25Y-123.5
X124.75Y-118.5
X124.75Y-123.5
M30
