%TF.GenerationSoftware,KiCad,Pcbnew,10.0.4*%
%TF.CreationDate,2026-10-03T12:12:20+13:00*%
%TF.ProjectId,retroboy,72657472-6f62-46f7-992e-6b696361645f,rev?*%
%TF.SameCoordinates,Original*%
%TF.FileFunction,Copper,L1,Top*%
%TF.FilePolarity,Positive*%
%FSLAX46Y46*%
G04 Gerber Fmt 4.6, Leading zero omitted, Abs format (unit mm)*
G04 Created by KiCad (PCBNEW 10.0.4) date 2026-10-03 12:12:20*
%MOMM*%
%LPD*%
G01*
G04 APERTURE LIST*
%TA.AperFunction,ComponentPad*%
%ADD10O,3.200000X1.900000*%
%TD*%
%TA.AperFunction,ComponentPad*%
%ADD11R,1.700000X1.700000*%
%TD*%
%TA.AperFunction,ComponentPad*%
%ADD12C,1.700000*%
%TD*%
%TA.AperFunction,ComponentPad*%
%ADD13R,1.200000X2.000000*%
%TD*%
%TA.AperFunction,ComponentPad*%
%ADD14O,1.200000X2.000000*%
%TD*%
%TA.AperFunction,ViaPad*%
%ADD15C,0.600000*%
%TD*%
%TA.AperFunction,Conductor*%
%ADD16C,0.750000*%
%TD*%
%TA.AperFunction,Conductor*%
%ADD17C,1.200000*%
%TD*%
%TA.AperFunction,Conductor*%
%ADD18C,0.800000*%
%TD*%
%TA.AperFunction,Conductor*%
%ADD19C,1.000000*%
%TD*%
%TA.AperFunction,Conductor*%
%ADD20C,0.600000*%
%TD*%
%TA.AperFunction,Conductor*%
%ADD21C,0.900000*%
%TD*%
%TA.AperFunction,Conductor*%
%ADD22C,0.500000*%
%TD*%
G04 APERTURE END LIST*
D10*
%TO.P,SW3,1,1_1*%
%TO.N,LEFT*%
X31000000Y-124000000D03*
X43500000Y-124000000D03*
%TO.P,SW3,2,2_2*%
%TO.N,GND*%
X31000000Y-129000000D03*
X43500000Y-129000000D03*
%TD*%
%TO.P,SW8,1,1_1*%
%TO.N,B*%
X92500000Y-124000000D03*
X105000000Y-124000000D03*
%TO.P,SW8,2,2_2*%
%TO.N,GND*%
X92500000Y-129000000D03*
X105000000Y-129000000D03*
%TD*%
%TO.P,SW2,1,1_1*%
%TO.N,DOWN*%
X46500000Y-138500000D03*
X59000000Y-138500000D03*
%TO.P,SW2,2,2_2*%
%TO.N,GND*%
X46500000Y-143500000D03*
X59000000Y-143500000D03*
%TD*%
%TO.P,SW7,1,1_1*%
%TO.N,A*%
X112250000Y-118500000D03*
X124750000Y-118500000D03*
%TO.P,SW7,2,2_2*%
%TO.N,GND*%
X112250000Y-123500000D03*
X124750000Y-123500000D03*
%TD*%
%TO.P,SW6,1,1_1*%
%TO.N,START*%
X71750000Y-88000000D03*
X84250000Y-88000000D03*
%TO.P,SW6,2,2_2*%
%TO.N,GND*%
X71750000Y-93000000D03*
X84250000Y-93000000D03*
%TD*%
%TO.P,SW4,1,1_1*%
%TO.N,RIGHT*%
X62000000Y-124000000D03*
X74500000Y-124000000D03*
%TO.P,SW4,2,2_2*%
%TO.N,GND*%
X62000000Y-129000000D03*
X74500000Y-129000000D03*
%TD*%
%TO.P,SW1,1,1_1*%
%TO.N,UP*%
X46500000Y-109500000D03*
X59000000Y-109500000D03*
%TO.P,SW1,2,2_2*%
%TO.N,GND*%
X46500000Y-114500000D03*
X59000000Y-114500000D03*
%TD*%
%TO.P,SW5,1,1_1*%
%TO.N,SEL*%
X95500000Y-88000000D03*
X108000000Y-88000000D03*
%TO.P,SW5,2,2_2*%
%TO.N,GND*%
X95500000Y-93000000D03*
X108000000Y-93000000D03*
%TD*%
D11*
%TO.P,J1,1,Pin_1_1*%
%TO.N,unconnected-(J1-Pin_1-Pad1)*%
X45500000Y-62620000D03*
D12*
%TO.P,J1,2,Pin_2_2*%
%TO.N,GP46*%
X45500000Y-60080000D03*
%TO.P,J1,3,Pin_3_3*%
%TO.N,GP12*%
X45500000Y-57540000D03*
%TO.P,J1,4,Pin_4_4*%
%TO.N,GP11*%
X45500000Y-55000000D03*
%TO.P,J1,5,Pin_5_5*%
%TO.N,GP8*%
X45500000Y-52460000D03*
%TO.P,J1,6,Pin_6_6*%
%TO.N,GP9*%
X45500000Y-49920000D03*
%TO.P,J1,7,Pin_7_7*%
%TO.N,GP10*%
X45500000Y-47380000D03*
%TO.P,J1,8,Pin_8_8*%
%TO.N,GND*%
X45500000Y-44840000D03*
%TO.P,J1,9,Pin_9_9*%
%TO.N,+5V*%
X45500000Y-42300000D03*
%TD*%
D13*
%TO.P,U1,1,3V3_1*%
%TO.N,+3V3*%
X133120000Y-74500000D03*
D14*
%TO.P,U1,2,3V3_2*%
%TO.N,unconnected-(U1-3V3-Pad2)*%
X130580000Y-74500000D03*
%TO.P,U1,3,RST_3*%
%TO.N,unconnected-(U1-RST-Pad3)*%
X128040000Y-74500000D03*
%TO.P,U1,4,GPIO4/ADC1_CH3_4*%
%TO.N,RIGHT*%
X125500000Y-74500000D03*
%TO.P,U1,5,GPIO5/ADC1_CH4_5*%
%TO.N,A*%
X122960000Y-74500000D03*
%TO.P,U1,6,GPIO6/ADC1_CH5_6*%
%TO.N,B*%
X120420000Y-74500000D03*
%TO.P,U1,7,GPIO7/ADC1_CH6_7*%
%TO.N,SEL*%
X117880000Y-74500000D03*
%TO.P,U1,8,GPIO15/ADC2_CH4/32K_P_8*%
%TO.N,START*%
X115340000Y-74500000D03*
%TO.P,U1,9,GPIO16/ADC2_CH5/32K_N_9*%
%TO.N,GP16*%
X112800000Y-74500000D03*
%TO.P,U1,10,GPIO17/ADC2_CH6/U1TXD_10*%
%TO.N,GP17*%
X110260000Y-74500000D03*
%TO.P,U1,11,GPIO18/ADC2_CH7/U1RXD_11*%
%TO.N,GP18*%
X107720000Y-74500000D03*
%TO.P,U1,12,GPIO8/ADC1_CH7_12*%
%TO.N,GP8*%
X105180000Y-74500000D03*
%TO.P,U1,13,GPIO3/ADC1_CH2_13*%
%TO.N,LEFT*%
X102640000Y-74500000D03*
%TO.P,U1,14,GPIO46_14*%
%TO.N,GP46*%
X100100000Y-74500000D03*
%TO.P,U1,15,GPIO9/ADC1_CH8_15*%
%TO.N,GP9*%
X97560000Y-74500000D03*
%TO.P,U1,16,GPIO10/ADC1_CH9_16*%
%TO.N,GP10*%
X95020000Y-74500000D03*
%TO.P,U1,17,GPIO11/ADC2_CH0_17*%
%TO.N,GP11*%
X92480000Y-74500000D03*
%TO.P,U1,18,GPIO12/ADC2_CH1_18*%
%TO.N,GP12*%
X89940000Y-74500000D03*
%TO.P,U1,19,GPIO13/ADC2_CH2_19*%
%TO.N,unconnected-(U1-GPIO13{slash}ADC2_CH2-Pad19)*%
X87400000Y-74500000D03*
%TO.P,U1,20,GPIO14/ADC2_CH3_20*%
%TO.N,GP14*%
X84862720Y-74503680D03*
%TO.P,U1,21,5V_21*%
%TO.N,+5V*%
X82322720Y-74503680D03*
%TO.P,U1,22,GND_22*%
%TO.N,GND*%
X79782720Y-74503680D03*
%TO.P,U1,23,GND_23*%
X79780000Y-51640000D03*
%TO.P,U1,24,GND_24*%
X82320000Y-51640000D03*
%TO.P,U1,25,GPIO19/ADC2_CH8/USB_D-_25*%
%TO.N,unconnected-(U1-GPIO19{slash}ADC2_CH8{slash}USB_D--Pad25)*%
X84860000Y-51640000D03*
%TO.P,U1,26,GPIO20/ADC2_CH9/USB_D+_26*%
%TO.N,unconnected-(U1-GPIO20{slash}ADC2_CH9{slash}USB_D+-Pad26)*%
X87400000Y-51640000D03*
%TO.P,U1,27,GPIO21_27*%
%TO.N,unconnected-(U1-GPIO21-Pad27)*%
X89940000Y-51640000D03*
%TO.P,U1,28,GPIO33_28*%
%TO.N,unconnected-(U1-GPIO33-Pad28)*%
X92480000Y-51640000D03*
%TO.P,U1,29,GPIO34_29*%
%TO.N,unconnected-(U1-GPIO34-Pad29)*%
X95020000Y-51640000D03*
%TO.P,U1,30,GPIO45_30*%
%TO.N,unconnected-(U1-GPIO45-Pad30)*%
X97560000Y-51640000D03*
%TO.P,U1,31,GPIO0_31*%
%TO.N,unconnected-(U1-GPIO0-Pad31)*%
X100100000Y-51640000D03*
%TO.P,U1,32,GPIO35_32*%
%TO.N,unconnected-(U1-GPIO35-Pad32)*%
X102640000Y-51640000D03*
%TO.P,U1,33,GPIO36_33*%
%TO.N,unconnected-(U1-GPIO36-Pad33)*%
X105180000Y-51640000D03*
%TO.P,U1,34,GPIO37_34*%
%TO.N,unconnected-(U1-GPIO37-Pad34)*%
X107720000Y-51640000D03*
%TO.P,U1,35,GPIO38_35*%
%TO.N,unconnected-(U1-GPIO38-Pad35)*%
X110260000Y-51640000D03*
%TO.P,U1,36,GPIO39/MTCK_36*%
%TO.N,unconnected-(U1-GPIO39{slash}MTCK-Pad36)*%
X112800000Y-51640000D03*
%TO.P,U1,37,GPIO40/MTDO_37*%
%TO.N,GP40*%
X115340000Y-51640000D03*
%TO.P,U1,38,GPIO41/MTDI_38*%
%TO.N,GP41*%
X117880000Y-51640000D03*
%TO.P,U1,39,GPIO42/MTMS_39*%
%TO.N,GP42*%
X120420000Y-51640000D03*
%TO.P,U1,40,GPIO2/ADC1_CH1_40*%
%TO.N,DOWN*%
X122960000Y-51640000D03*
%TO.P,U1,41,GPIO1/ADC1_CH0_41*%
%TO.N,UP*%
X125500000Y-51640000D03*
%TO.P,U1,42,GPIO44/U0RXD_42*%
%TO.N,unconnected-(U1-GPIO44{slash}U0RXD-Pad42)*%
X128040000Y-51640000D03*
%TO.P,U1,43,GPIO43/U0TXD_43*%
%TO.N,unconnected-(U1-GPIO43{slash}U0TXD-Pad43)*%
X130580000Y-51640000D03*
%TO.P,U1,44,GND_44*%
%TO.N,GND*%
X133120000Y-51640000D03*
%TD*%
D11*
%TO.P,J3,1,Pin_1_1*%
%TO.N,+5V*%
X109340000Y-32500000D03*
D12*
%TO.P,J3,2,Pin_2_2*%
%TO.N,GND*%
X111880000Y-32500000D03*
%TO.P,J3,3,Pin_3_3*%
%TO.N,unconnected-(J3-Pin_3-Pad3)*%
X114420000Y-32500000D03*
%TO.P,J3,4,Pin_4_4*%
%TO.N,unconnected-(J3-Pin_4-Pad4)*%
X116960000Y-32500000D03*
%TO.P,J3,5,Pin_5_5*%
%TO.N,GP40*%
X119500000Y-32500000D03*
%TO.P,J3,6,Pin_6_6*%
%TO.N,GP41*%
X122040000Y-32500000D03*
%TO.P,J3,7,Pin_7_7*%
%TO.N,GP42*%
X124580000Y-32500000D03*
%TD*%
D11*
%TO.P,SD1,1,Pin_1_1*%
%TO.N,+3V3*%
X45500000Y-84000000D03*
D12*
%TO.P,SD1,2,Pin_2_2*%
%TO.N,GP14*%
X45500000Y-86540000D03*
%TO.P,SD1,3,Pin_3_3*%
%TO.N,GP17*%
X45500000Y-89080000D03*
%TO.P,SD1,4,Pin_4_4*%
%TO.N,GP18*%
X45500000Y-91620000D03*
%TO.P,SD1,5,Pin_5_5*%
%TO.N,GP16*%
X45500000Y-94160000D03*
%TO.P,SD1,6,Pin_6_6*%
%TO.N,GND*%
X45500000Y-96700000D03*
%TD*%
D15*
%TO.N,GP12*%
X51000000Y-63000000D03*
%TO.N,GP10*%
X61120000Y-63000000D03*
%TO.N,GP11*%
X55000000Y-64500000D03*
%TO.N,GP9*%
X57080000Y-61500000D03*
%TO.N,+3V3*%
X86500000Y-102000000D03*
%TO.N,GP18*%
X53000000Y-82500000D03*
%TO.N,GP14*%
X69500000Y-72000000D03*
%TO.N,DOWN*%
X123000000Y-45500000D03*
%TO.N,LEFT*%
X91500000Y-86500000D03*
%TO.N,RIGHT*%
X119000000Y-87000000D03*
%TD*%
%TO.N,GP12*%
D16*
X89940000Y-74500000D02*
X81440000Y-66000000D01*
X81440000Y-66000000D02*
X54000000Y-66000000D01*
X54000000Y-66000000D02*
X51000000Y-63000000D01*
%TO.N,GP46*%
X100100000Y-74500000D02*
X85680000Y-60080000D01*
X85680000Y-60080000D02*
X45500000Y-60080000D01*
%TO.N,GP10*%
X83520000Y-63000000D02*
X95020000Y-74500000D01*
X61120000Y-63000000D02*
X83520000Y-63000000D01*
%TO.N,GP11*%
X82480000Y-64500000D02*
X92480000Y-74500000D01*
X55000000Y-64500000D02*
X82480000Y-64500000D01*
%TO.N,GP9*%
X84560000Y-61500000D02*
X97560000Y-74500000D01*
X57080000Y-61500000D02*
X84560000Y-61500000D01*
%TO.N,GP8*%
X45500000Y-52460000D02*
X49540000Y-56500000D01*
X87180000Y-56500000D02*
X105180000Y-74500000D01*
X49540000Y-56500000D02*
X87180000Y-56500000D01*
%TO.N,+5V*%
D17*
X45500000Y-69500000D02*
X77319040Y-69500000D01*
X106340000Y-35500000D02*
X52300000Y-35500000D01*
X52300000Y-35500000D02*
X45500000Y-42300000D01*
X109340000Y-32500000D02*
X106340000Y-35500000D01*
X77319040Y-69500000D02*
X82322720Y-74503680D01*
X41000000Y-46800000D02*
X41000000Y-65000000D01*
X41000000Y-65000000D02*
X45500000Y-69500000D01*
X45500000Y-42300000D02*
X41000000Y-46800000D01*
%TO.N,GP42*%
D18*
X124580000Y-35500000D02*
X124580000Y-32500000D01*
X120420000Y-39660000D02*
X124580000Y-35500000D01*
X120420000Y-51640000D02*
X120420000Y-39660000D01*
%TO.N,GP40*%
X119500000Y-35500000D02*
X119500000Y-32500000D01*
X115340000Y-39660000D02*
X119500000Y-35500000D01*
X115340000Y-51640000D02*
X115340000Y-39660000D01*
%TO.N,GP41*%
X117880000Y-51640000D02*
X117880000Y-39660000D01*
X122040000Y-35500000D02*
X122040000Y-32500000D01*
X117880000Y-39660000D02*
X122040000Y-35500000D01*
%TO.N,+3V3*%
D19*
X42500000Y-87000000D02*
X42500000Y-98500000D01*
X45500000Y-84000000D02*
X42500000Y-87000000D01*
X46000000Y-102000000D02*
X86500000Y-102000000D01*
X42500000Y-98500000D02*
X46000000Y-102000000D01*
%TO.N,GP18*%
D20*
X58000000Y-77500000D02*
X104720000Y-77500000D01*
X104720000Y-77500000D02*
X107720000Y-74500000D01*
X53000000Y-82500000D02*
X58000000Y-77500000D01*
%TO.N,GP16*%
X106800000Y-80500000D02*
X112800000Y-74500000D01*
X59160000Y-80500000D02*
X106800000Y-80500000D01*
X45500000Y-94160000D02*
X59160000Y-80500000D01*
%TO.N,GP17*%
X105760000Y-79000000D02*
X58500000Y-79000000D01*
X48420000Y-89080000D02*
X45500000Y-89080000D01*
X110260000Y-74500000D02*
X105760000Y-79000000D01*
X58500000Y-79000000D02*
X48420000Y-89080000D01*
%TO.N,GP14*%
X60040000Y-72000000D02*
X45500000Y-86540000D01*
X69500000Y-72000000D02*
X60040000Y-72000000D01*
%TO.N,UP*%
D21*
X46500000Y-109500000D02*
X59000000Y-109500000D01*
%TO.N,DOWN*%
X123000000Y-51600000D02*
X122960000Y-51640000D01*
X46500000Y-138500000D02*
X59000000Y-138500000D01*
X123000000Y-45500000D02*
X123000000Y-51600000D01*
%TO.N,LEFT*%
X31000000Y-124000000D02*
X43500000Y-124000000D01*
X91500000Y-103500000D02*
X91500000Y-86500000D01*
X55879899Y-124000000D02*
X59879899Y-120000000D01*
X43500000Y-124000000D02*
X55879899Y-124000000D01*
X59879899Y-120000000D02*
X75000000Y-120000000D01*
X75000000Y-120000000D02*
X91500000Y-103500000D01*
%TO.N,RIGHT*%
X84250000Y-121750000D02*
X82000000Y-124000000D01*
X82000000Y-124000000D02*
X74500000Y-124000000D01*
X62000000Y-124000000D02*
X74500000Y-124000000D01*
X82360000Y-123640000D02*
X119000000Y-87000000D01*
D22*
X84250000Y-121750000D02*
X82360000Y-123640000D01*
%TO.N,SEL*%
D21*
X117880000Y-82620000D02*
X117880000Y-74500000D01*
X95250000Y-88000000D02*
X105000000Y-88000000D01*
D22*
X105000000Y-88000000D02*
X107750000Y-88000000D01*
D21*
X112500000Y-88000000D02*
X117880000Y-82620000D01*
X105000000Y-88000000D02*
X112500000Y-88000000D01*
%TO.N,START*%
X71750000Y-88000000D02*
X84250000Y-88000000D01*
X84250000Y-88000000D02*
X89750000Y-82500000D01*
X115340000Y-79160000D02*
X115340000Y-74500000D01*
X112000000Y-82500000D02*
X115340000Y-79160000D01*
X89750000Y-82500000D02*
X112000000Y-82500000D01*
%TO.N,A*%
X112250000Y-118500000D02*
X124750000Y-118500000D01*
X124750000Y-101750000D02*
X122960000Y-99960000D01*
X122960000Y-99960000D02*
X122960000Y-74500000D01*
X124750000Y-118500000D02*
X124750000Y-101750000D01*
%TO.N,B*%
X105000000Y-118500000D02*
X120420000Y-103080000D01*
X105000000Y-124000000D02*
X105000000Y-118500000D01*
X92500000Y-124000000D02*
X105000000Y-124000000D01*
X120420000Y-103080000D02*
X120420000Y-74500000D01*
%TD*%
%TA.AperFunction,Conductor*%
%TO.N,GND*%
G36*
X133801681Y-30519685D02*
G01*
X133847436Y-30572489D01*
X133858642Y-30624000D01*
X133858642Y-50179448D01*
X133838957Y-50246487D01*
X133786153Y-50292242D01*
X133716995Y-50302186D01*
X133678347Y-50289933D01*
X133542257Y-50220592D01*
X133377589Y-50167087D01*
X133377581Y-50167085D01*
X133370000Y-50165884D01*
X133370000Y-51324314D01*
X133365606Y-51319920D01*
X133274394Y-51267259D01*
X133172661Y-51240000D01*
X133067339Y-51240000D01*
X132965606Y-51267259D01*
X132874394Y-51319920D01*
X132870000Y-51324314D01*
X132870000Y-50165884D01*
X132869999Y-50165884D01*
X132862418Y-50167085D01*
X132862410Y-50167087D01*
X132697742Y-50220591D01*
X132543475Y-50299195D01*
X132403397Y-50400967D01*
X132280967Y-50523397D01*
X132179195Y-50663475D01*
X132100591Y-50817742D01*
X132047085Y-50982415D01*
X132020000Y-51153428D01*
X132020000Y-51390000D01*
X132804314Y-51390000D01*
X132799920Y-51394394D01*
X132747259Y-51485606D01*
X132720000Y-51587339D01*
X132720000Y-51692661D01*
X132747259Y-51794394D01*
X132799920Y-51885606D01*
X132804314Y-51890000D01*
X132020000Y-51890000D01*
X132020000Y-52126571D01*
X132047085Y-52297584D01*
X132100591Y-52462257D01*
X132179195Y-52616524D01*
X132280967Y-52756602D01*
X132403397Y-52879032D01*
X132543475Y-52980804D01*
X132697744Y-53059408D01*
X132862415Y-53112914D01*
X132862414Y-53112914D01*
X132869999Y-53114115D01*
X132870000Y-53114114D01*
X132870000Y-51955686D01*
X132874394Y-51960080D01*
X132965606Y-52012741D01*
X133067339Y-52040000D01*
X133172661Y-52040000D01*
X133274394Y-52012741D01*
X133365606Y-51960080D01*
X133370000Y-51955686D01*
X133370000Y-53114115D01*
X133377584Y-53112914D01*
X133542255Y-53059408D01*
X133678347Y-52990066D01*
X133747016Y-52977170D01*
X133811756Y-53003446D01*
X133852014Y-53060552D01*
X133858642Y-53100551D01*
X133858642Y-72875500D01*
X133838957Y-72942539D01*
X133786153Y-72988294D01*
X133734642Y-72999500D01*
X132472129Y-72999500D01*
X132472123Y-72999501D01*
X132412516Y-73005908D01*
X132277671Y-73056202D01*
X132277664Y-73056206D01*
X132162455Y-73142452D01*
X132162452Y-73142455D01*
X132076206Y-73257664D01*
X132076202Y-73257671D01*
X132025908Y-73392517D01*
X132019501Y-73452116D01*
X132019500Y-73452135D01*
X132019500Y-75547870D01*
X132019501Y-75547876D01*
X132025908Y-75607483D01*
X132076202Y-75742328D01*
X132076206Y-75742335D01*
X132162452Y-75857544D01*
X132162455Y-75857547D01*
X132277664Y-75943793D01*
X132277671Y-75943797D01*
X132412517Y-75994091D01*
X132412516Y-75994091D01*
X132419444Y-75994835D01*
X132472127Y-76000500D01*
X133734642Y-76000499D01*
X133801681Y-76020184D01*
X133847436Y-76072987D01*
X133858642Y-76124499D01*
X133858642Y-150350550D01*
X133838957Y-150417589D01*
X133786153Y-150463344D01*
X133734081Y-150474549D01*
X28982558Y-150000560D01*
X28915608Y-149980572D01*
X28870093Y-149927562D01*
X28859120Y-149876082D01*
X28882428Y-143839544D01*
X28884704Y-143250000D01*
X44421522Y-143250000D01*
X45899999Y-143250000D01*
X45874979Y-143310402D01*
X45850000Y-143435981D01*
X45850000Y-143564019D01*
X45874979Y-143689598D01*
X45899999Y-143750000D01*
X44421522Y-143750000D01*
X44435704Y-143839544D01*
X44506230Y-144056604D01*
X44609849Y-144259966D01*
X44744004Y-144444614D01*
X44905385Y-144605995D01*
X45090033Y-144740150D01*
X45293395Y-144843769D01*
X45510455Y-144914295D01*
X45735884Y-144950000D01*
X46250000Y-144950000D01*
X46250000Y-144100001D01*
X46310402Y-144125021D01*
X46435981Y-144150000D01*
X46564019Y-144150000D01*
X46689598Y-144125021D01*
X46750000Y-144100001D01*
X46750000Y-144950000D01*
X47264116Y-144950000D01*
X47489544Y-144914295D01*
X47706604Y-144843769D01*
X47909966Y-144740150D01*
X48094614Y-144605995D01*
X48255995Y-144444614D01*
X48390150Y-144259966D01*
X48493769Y-144056604D01*
X48564295Y-143839544D01*
X48578478Y-143750000D01*
X47100001Y-143750000D01*
X47125021Y-143689598D01*
X47150000Y-143564019D01*
X47150000Y-143435981D01*
X47125021Y-143310402D01*
X47100001Y-143250000D01*
X48578478Y-143250000D01*
X56921522Y-143250000D01*
X58399999Y-143250000D01*
X58374979Y-143310402D01*
X58350000Y-143435981D01*
X58350000Y-143564019D01*
X58374979Y-143689598D01*
X58399999Y-143750000D01*
X56921522Y-143750000D01*
X56935704Y-143839544D01*
X57006230Y-144056604D01*
X57109849Y-144259966D01*
X57244004Y-144444614D01*
X57405385Y-144605995D01*
X57590033Y-144740150D01*
X57793395Y-144843769D01*
X58010455Y-144914295D01*
X58235884Y-144950000D01*
X58750000Y-144950000D01*
X58750000Y-144100001D01*
X58810402Y-144125021D01*
X58935981Y-144150000D01*
X59064019Y-144150000D01*
X59189598Y-144125021D01*
X59250000Y-144100001D01*
X59250000Y-144950000D01*
X59764116Y-144950000D01*
X59989544Y-144914295D01*
X60206604Y-144843769D01*
X60409966Y-144740150D01*
X60594614Y-144605995D01*
X60755995Y-144444614D01*
X60890150Y-144259966D01*
X60993769Y-144056604D01*
X61064295Y-143839544D01*
X61078478Y-143750000D01*
X59600001Y-143750000D01*
X59625021Y-143689598D01*
X59650000Y-143564019D01*
X59650000Y-143435981D01*
X59625021Y-143310402D01*
X59600001Y-143250000D01*
X61078478Y-143250000D01*
X61064295Y-143160455D01*
X60993769Y-142943395D01*
X60890150Y-142740033D01*
X60755995Y-142555385D01*
X60594614Y-142394004D01*
X60409966Y-142259849D01*
X60206604Y-142156230D01*
X59989544Y-142085704D01*
X59764116Y-142050000D01*
X59250000Y-142050000D01*
X59250000Y-142899998D01*
X59189598Y-142874979D01*
X59064019Y-142850000D01*
X58935981Y-142850000D01*
X58810402Y-142874979D01*
X58750000Y-142899998D01*
X58750000Y-142050000D01*
X58235884Y-142050000D01*
X58010455Y-142085704D01*
X57793395Y-142156230D01*
X57590033Y-142259849D01*
X57405385Y-142394004D01*
X57244004Y-142555385D01*
X57109849Y-142740033D01*
X57006230Y-142943395D01*
X56935704Y-143160455D01*
X56921522Y-143250000D01*
X48578478Y-143250000D01*
X48564295Y-143160455D01*
X48493769Y-142943395D01*
X48390150Y-142740033D01*
X48255995Y-142555385D01*
X48094614Y-142394004D01*
X47909966Y-142259849D01*
X47706604Y-142156230D01*
X47489544Y-142085704D01*
X47264116Y-142050000D01*
X46750000Y-142050000D01*
X46750000Y-142899998D01*
X46689598Y-142874979D01*
X46564019Y-142850000D01*
X46435981Y-142850000D01*
X46310402Y-142874979D01*
X46250000Y-142899998D01*
X46250000Y-142050000D01*
X45735884Y-142050000D01*
X45510455Y-142085704D01*
X45293395Y-142156230D01*
X45090033Y-142259849D01*
X44905385Y-142394004D01*
X44744004Y-142555385D01*
X44609849Y-142740033D01*
X44506230Y-142943395D01*
X44435704Y-143160455D01*
X44421522Y-143250000D01*
X28884704Y-143250000D01*
X28903484Y-138385837D01*
X44399500Y-138385837D01*
X44399500Y-138614162D01*
X44435215Y-138839660D01*
X44505770Y-139056803D01*
X44609421Y-139260228D01*
X44743621Y-139444937D01*
X44905063Y-139606379D01*
X45089772Y-139740579D01*
X45185884Y-139789550D01*
X45293196Y-139844229D01*
X45293198Y-139844229D01*
X45293201Y-139844231D01*
X45409592Y-139882049D01*
X45510339Y-139914784D01*
X45735838Y-139950500D01*
X45735843Y-139950500D01*
X47264162Y-139950500D01*
X47489660Y-139914784D01*
X47706799Y-139844231D01*
X47910228Y-139740579D01*
X48094937Y-139606379D01*
X48214497Y-139486819D01*
X48275820Y-139453334D01*
X48302178Y-139450500D01*
X57197822Y-139450500D01*
X57264861Y-139470185D01*
X57285503Y-139486819D01*
X57405063Y-139606379D01*
X57589772Y-139740579D01*
X57685884Y-139789550D01*
X57793196Y-139844229D01*
X57793198Y-139844229D01*
X57793201Y-139844231D01*
X57909592Y-139882049D01*
X58010339Y-139914784D01*
X58235838Y-139950500D01*
X58235843Y-139950500D01*
X59764162Y-139950500D01*
X59989660Y-139914784D01*
X60206799Y-139844231D01*
X60410228Y-139740579D01*
X60594937Y-139606379D01*
X60756379Y-139444937D01*
X60890579Y-139260228D01*
X60994231Y-139056799D01*
X61064784Y-138839660D01*
X61100500Y-138614162D01*
X61100500Y-138385837D01*
X61064784Y-138160339D01*
X60994229Y-137943196D01*
X60890578Y-137739771D01*
X60756379Y-137555063D01*
X60594937Y-137393621D01*
X60410228Y-137259421D01*
X60206803Y-137155770D01*
X59989660Y-137085215D01*
X59764162Y-137049500D01*
X59764157Y-137049500D01*
X58235843Y-137049500D01*
X58235838Y-137049500D01*
X58010339Y-137085215D01*
X57793196Y-137155770D01*
X57589771Y-137259421D01*
X57405061Y-137393622D01*
X57405060Y-137393623D01*
X57285503Y-137513181D01*
X57224180Y-137546666D01*
X57197822Y-137549500D01*
X48302178Y-137549500D01*
X48235139Y-137529815D01*
X48214497Y-137513181D01*
X48094938Y-137393622D01*
X47910228Y-137259421D01*
X47706803Y-137155770D01*
X47489660Y-137085215D01*
X47264162Y-137049500D01*
X47264157Y-137049500D01*
X45735843Y-137049500D01*
X45735838Y-137049500D01*
X45510339Y-137085215D01*
X45293196Y-137155770D01*
X45089771Y-137259421D01*
X44905061Y-137393622D01*
X44743622Y-137555061D01*
X44609421Y-137739771D01*
X44505770Y-137943196D01*
X44435215Y-138160339D01*
X44399500Y-138385837D01*
X28903484Y-138385837D01*
X28936239Y-129902162D01*
X28956182Y-129835202D01*
X29009162Y-129789652D01*
X29078359Y-129779975D01*
X29141802Y-129809245D01*
X29160556Y-129829758D01*
X29244004Y-129944614D01*
X29405385Y-130105995D01*
X29590033Y-130240150D01*
X29793395Y-130343769D01*
X30010455Y-130414295D01*
X30235884Y-130450000D01*
X30750000Y-130450000D01*
X30750000Y-129600001D01*
X30810402Y-129625021D01*
X30935981Y-129650000D01*
X31064019Y-129650000D01*
X31189598Y-129625021D01*
X31250000Y-129600001D01*
X31250000Y-130450000D01*
X31764116Y-130450000D01*
X31989544Y-130414295D01*
X32206604Y-130343769D01*
X32409966Y-130240150D01*
X32594614Y-130105995D01*
X32755995Y-129944614D01*
X32890150Y-129759966D01*
X32993769Y-129556604D01*
X33064295Y-129339544D01*
X33078478Y-129250000D01*
X31600001Y-129250000D01*
X31625021Y-129189598D01*
X31650000Y-129064019D01*
X31650000Y-128935981D01*
X31625021Y-128810402D01*
X31600001Y-128750000D01*
X33078478Y-128750000D01*
X41421522Y-128750000D01*
X42899999Y-128750000D01*
X42874979Y-128810402D01*
X42850000Y-128935981D01*
X42850000Y-129064019D01*
X42874979Y-129189598D01*
X42899999Y-129250000D01*
X41421522Y-129250000D01*
X41435704Y-129339544D01*
X41506230Y-129556604D01*
X41609849Y-129759966D01*
X41744004Y-129944614D01*
X41905385Y-130105995D01*
X42090033Y-130240150D01*
X42293395Y-130343769D01*
X42510455Y-130414295D01*
X42735884Y-130450000D01*
X43250000Y-130450000D01*
X43250000Y-129600001D01*
X43310402Y-129625021D01*
X43435981Y-129650000D01*
X43564019Y-129650000D01*
X43689598Y-129625021D01*
X43750000Y-129600001D01*
X43750000Y-130450000D01*
X44264116Y-130450000D01*
X44489544Y-130414295D01*
X44706604Y-130343769D01*
X44909966Y-130240150D01*
X45094614Y-130105995D01*
X45255995Y-129944614D01*
X45390150Y-129759966D01*
X45493769Y-129556604D01*
X45564295Y-129339544D01*
X45578478Y-129250000D01*
X44100001Y-129250000D01*
X44125021Y-129189598D01*
X44150000Y-129064019D01*
X44150000Y-128935981D01*
X44125021Y-128810402D01*
X44100001Y-128750000D01*
X45578478Y-128750000D01*
X59921522Y-128750000D01*
X61399999Y-128750000D01*
X61374979Y-128810402D01*
X61350000Y-128935981D01*
X61350000Y-129064019D01*
X61374979Y-129189598D01*
X61399999Y-129250000D01*
X59921522Y-129250000D01*
X59935704Y-129339544D01*
X60006230Y-129556604D01*
X60109849Y-129759966D01*
X60244004Y-129944614D01*
X60405385Y-130105995D01*
X60590033Y-130240150D01*
X60793395Y-130343769D01*
X61010455Y-130414295D01*
X61235884Y-130450000D01*
X61750000Y-130450000D01*
X61750000Y-129600001D01*
X61810402Y-129625021D01*
X61935981Y-129650000D01*
X62064019Y-129650000D01*
X62189598Y-129625021D01*
X62250000Y-129600001D01*
X62250000Y-130450000D01*
X62764116Y-130450000D01*
X62989544Y-130414295D01*
X63206604Y-130343769D01*
X63409966Y-130240150D01*
X63594614Y-130105995D01*
X63755995Y-129944614D01*
X63890150Y-129759966D01*
X63993769Y-129556604D01*
X64064295Y-129339544D01*
X64078478Y-129250000D01*
X62600001Y-129250000D01*
X62625021Y-129189598D01*
X62650000Y-129064019D01*
X62650000Y-128935981D01*
X62625021Y-128810402D01*
X62600001Y-128750000D01*
X64078478Y-128750000D01*
X72421522Y-128750000D01*
X73899999Y-128750000D01*
X73874979Y-128810402D01*
X73850000Y-128935981D01*
X73850000Y-129064019D01*
X73874979Y-129189598D01*
X73899999Y-129250000D01*
X72421522Y-129250000D01*
X72435704Y-129339544D01*
X72506230Y-129556604D01*
X72609849Y-129759966D01*
X72744004Y-129944614D01*
X72905385Y-130105995D01*
X73090033Y-130240150D01*
X73293395Y-130343769D01*
X73510455Y-130414295D01*
X73735884Y-130450000D01*
X74250000Y-130450000D01*
X74250000Y-129600001D01*
X74310402Y-129625021D01*
X74435981Y-129650000D01*
X74564019Y-129650000D01*
X74689598Y-129625021D01*
X74750000Y-129600001D01*
X74750000Y-130450000D01*
X75264116Y-130450000D01*
X75489544Y-130414295D01*
X75706604Y-130343769D01*
X75909966Y-130240150D01*
X76094614Y-130105995D01*
X76255995Y-129944614D01*
X76390150Y-129759966D01*
X76493769Y-129556604D01*
X76564295Y-129339544D01*
X76578478Y-129250000D01*
X75100001Y-129250000D01*
X75125021Y-129189598D01*
X75150000Y-129064019D01*
X75150000Y-128935981D01*
X75125021Y-128810402D01*
X75100001Y-128750000D01*
X76578478Y-128750000D01*
X90421522Y-128750000D01*
X91899999Y-128750000D01*
X91874979Y-128810402D01*
X91850000Y-128935981D01*
X91850000Y-129064019D01*
X91874979Y-129189598D01*
X91899999Y-129250000D01*
X90421522Y-129250000D01*
X90435704Y-129339544D01*
X90506230Y-129556604D01*
X90609849Y-129759966D01*
X90744004Y-129944614D01*
X90905385Y-130105995D01*
X91090033Y-130240150D01*
X91293395Y-130343769D01*
X91510455Y-130414295D01*
X91735884Y-130450000D01*
X92250000Y-130450000D01*
X92250000Y-129600001D01*
X92310402Y-129625021D01*
X92435981Y-129650000D01*
X92564019Y-129650000D01*
X92689598Y-129625021D01*
X92750000Y-129600001D01*
X92750000Y-130450000D01*
X93264116Y-130450000D01*
X93489544Y-130414295D01*
X93706604Y-130343769D01*
X93909966Y-130240150D01*
X94094614Y-130105995D01*
X94255995Y-129944614D01*
X94390150Y-129759966D01*
X94493769Y-129556604D01*
X94564295Y-129339544D01*
X94578478Y-129250000D01*
X93100001Y-129250000D01*
X93125021Y-129189598D01*
X93150000Y-129064019D01*
X93150000Y-128935981D01*
X93125021Y-128810402D01*
X93100001Y-128750000D01*
X94578478Y-128750000D01*
X102921522Y-128750000D01*
X104399999Y-128750000D01*
X104374979Y-128810402D01*
X104350000Y-128935981D01*
X104350000Y-129064019D01*
X104374979Y-129189598D01*
X104399999Y-129250000D01*
X102921522Y-129250000D01*
X102935704Y-129339544D01*
X103006230Y-129556604D01*
X103109849Y-129759966D01*
X103244004Y-129944614D01*
X103405385Y-130105995D01*
X103590033Y-130240150D01*
X103793395Y-130343769D01*
X104010455Y-130414295D01*
X104235884Y-130450000D01*
X104750000Y-130450000D01*
X104750000Y-129600001D01*
X104810402Y-129625021D01*
X104935981Y-129650000D01*
X105064019Y-129650000D01*
X105189598Y-129625021D01*
X105250000Y-129600001D01*
X105250000Y-130450000D01*
X105764116Y-130450000D01*
X105989544Y-130414295D01*
X106206604Y-130343769D01*
X106409966Y-130240150D01*
X106594614Y-130105995D01*
X106755995Y-129944614D01*
X106890150Y-129759966D01*
X106993769Y-129556604D01*
X107064295Y-129339544D01*
X107078478Y-129250000D01*
X105600001Y-129250000D01*
X105625021Y-129189598D01*
X105650000Y-129064019D01*
X105650000Y-128935981D01*
X105625021Y-128810402D01*
X105600001Y-128750000D01*
X107078478Y-128750000D01*
X107064295Y-128660455D01*
X106993769Y-128443395D01*
X106890150Y-128240033D01*
X106755995Y-128055385D01*
X106594614Y-127894004D01*
X106409966Y-127759849D01*
X106206604Y-127656230D01*
X105989544Y-127585704D01*
X105764116Y-127550000D01*
X105250000Y-127550000D01*
X105250000Y-128399998D01*
X105189598Y-128374979D01*
X105064019Y-128350000D01*
X104935981Y-128350000D01*
X104810402Y-128374979D01*
X104750000Y-128399998D01*
X104750000Y-127550000D01*
X104235884Y-127550000D01*
X104010455Y-127585704D01*
X103793395Y-127656230D01*
X103590033Y-127759849D01*
X103405385Y-127894004D01*
X103244004Y-128055385D01*
X103109849Y-128240033D01*
X103006230Y-128443395D01*
X102935704Y-128660455D01*
X102921522Y-128750000D01*
X94578478Y-128750000D01*
X94564295Y-128660455D01*
X94493769Y-128443395D01*
X94390150Y-128240033D01*
X94255995Y-128055385D01*
X94094614Y-127894004D01*
X93909966Y-127759849D01*
X93706604Y-127656230D01*
X93489544Y-127585704D01*
X93264116Y-127550000D01*
X92750000Y-127550000D01*
X92750000Y-128399998D01*
X92689598Y-128374979D01*
X92564019Y-128350000D01*
X92435981Y-128350000D01*
X92310402Y-128374979D01*
X92250000Y-128399998D01*
X92250000Y-127550000D01*
X91735884Y-127550000D01*
X91510455Y-127585704D01*
X91293395Y-127656230D01*
X91090033Y-127759849D01*
X90905385Y-127894004D01*
X90744004Y-128055385D01*
X90609849Y-128240033D01*
X90506230Y-128443395D01*
X90435704Y-128660455D01*
X90421522Y-128750000D01*
X76578478Y-128750000D01*
X76564295Y-128660455D01*
X76493769Y-128443395D01*
X76390150Y-128240033D01*
X76255995Y-128055385D01*
X76094614Y-127894004D01*
X75909966Y-127759849D01*
X75706604Y-127656230D01*
X75489544Y-127585704D01*
X75264116Y-127550000D01*
X74750000Y-127550000D01*
X74750000Y-128399998D01*
X74689598Y-128374979D01*
X74564019Y-128350000D01*
X74435981Y-128350000D01*
X74310402Y-128374979D01*
X74250000Y-128399998D01*
X74250000Y-127550000D01*
X73735884Y-127550000D01*
X73510455Y-127585704D01*
X73293395Y-127656230D01*
X73090033Y-127759849D01*
X72905385Y-127894004D01*
X72744004Y-128055385D01*
X72609849Y-128240033D01*
X72506230Y-128443395D01*
X72435704Y-128660455D01*
X72421522Y-128750000D01*
X64078478Y-128750000D01*
X64064295Y-128660455D01*
X63993769Y-128443395D01*
X63890150Y-128240033D01*
X63755995Y-128055385D01*
X63594614Y-127894004D01*
X63409966Y-127759849D01*
X63206604Y-127656230D01*
X62989544Y-127585704D01*
X62764116Y-127550000D01*
X62250000Y-127550000D01*
X62250000Y-128399998D01*
X62189598Y-128374979D01*
X62064019Y-128350000D01*
X61935981Y-128350000D01*
X61810402Y-128374979D01*
X61750000Y-128399998D01*
X61750000Y-127550000D01*
X61235884Y-127550000D01*
X61010455Y-127585704D01*
X60793395Y-127656230D01*
X60590033Y-127759849D01*
X60405385Y-127894004D01*
X60244004Y-128055385D01*
X60109849Y-128240033D01*
X60006230Y-128443395D01*
X59935704Y-128660455D01*
X59921522Y-128750000D01*
X45578478Y-128750000D01*
X45564295Y-128660455D01*
X45493769Y-128443395D01*
X45390150Y-128240033D01*
X45255995Y-128055385D01*
X45094614Y-127894004D01*
X44909966Y-127759849D01*
X44706604Y-127656230D01*
X44489544Y-127585704D01*
X44264116Y-127550000D01*
X43750000Y-127550000D01*
X43750000Y-128399998D01*
X43689598Y-128374979D01*
X43564019Y-128350000D01*
X43435981Y-128350000D01*
X43310402Y-128374979D01*
X43250000Y-128399998D01*
X43250000Y-127550000D01*
X42735884Y-127550000D01*
X42510455Y-127585704D01*
X42293395Y-127656230D01*
X42090033Y-127759849D01*
X41905385Y-127894004D01*
X41744004Y-128055385D01*
X41609849Y-128240033D01*
X41506230Y-128443395D01*
X41435704Y-128660455D01*
X41421522Y-128750000D01*
X33078478Y-128750000D01*
X33064295Y-128660455D01*
X32993769Y-128443395D01*
X32890150Y-128240033D01*
X32755995Y-128055385D01*
X32594614Y-127894004D01*
X32409966Y-127759849D01*
X32206604Y-127656230D01*
X31989544Y-127585704D01*
X31764116Y-127550000D01*
X31250000Y-127550000D01*
X31250000Y-128399998D01*
X31189598Y-128374979D01*
X31064019Y-128350000D01*
X30935981Y-128350000D01*
X30810402Y-128374979D01*
X30750000Y-128399998D01*
X30750000Y-127550000D01*
X30235884Y-127550000D01*
X30010455Y-127585704D01*
X29793395Y-127656230D01*
X29590033Y-127759849D01*
X29405385Y-127894004D01*
X29244004Y-128055385D01*
X29244004Y-128055386D01*
X29167564Y-128160596D01*
X29112234Y-128203261D01*
X29042620Y-128209240D01*
X28980825Y-128176634D01*
X28946468Y-128115795D01*
X28943247Y-128087231D01*
X28944911Y-127656230D01*
X28955439Y-124929439D01*
X28975382Y-124862478D01*
X29028362Y-124816928D01*
X29097559Y-124807251D01*
X29161002Y-124836521D01*
X29179752Y-124857029D01*
X29243621Y-124944937D01*
X29405063Y-125106379D01*
X29589772Y-125240579D01*
X29685884Y-125289550D01*
X29793196Y-125344229D01*
X29793198Y-125344229D01*
X29793201Y-125344231D01*
X29909592Y-125382049D01*
X30010339Y-125414784D01*
X30235838Y-125450500D01*
X30235843Y-125450500D01*
X31764162Y-125450500D01*
X31989660Y-125414784D01*
X32206799Y-125344231D01*
X32410228Y-125240579D01*
X32594937Y-125106379D01*
X32714497Y-124986819D01*
X32775820Y-124953334D01*
X32802178Y-124950500D01*
X41697822Y-124950500D01*
X41764861Y-124970185D01*
X41785503Y-124986819D01*
X41905063Y-125106379D01*
X42089772Y-125240579D01*
X42185884Y-125289550D01*
X42293196Y-125344229D01*
X42293198Y-125344229D01*
X42293201Y-125344231D01*
X42409592Y-125382049D01*
X42510339Y-125414784D01*
X42735838Y-125450500D01*
X42735843Y-125450500D01*
X44264162Y-125450500D01*
X44489660Y-125414784D01*
X44706799Y-125344231D01*
X44910228Y-125240579D01*
X45094937Y-125106379D01*
X45214497Y-124986819D01*
X45275820Y-124953334D01*
X45302178Y-124950500D01*
X55973517Y-124950500D01*
X55986730Y-124947871D01*
X56065332Y-124932236D01*
X56157150Y-124913973D01*
X56245075Y-124877553D01*
X56330129Y-124842323D01*
X56485807Y-124738302D01*
X56884449Y-124339660D01*
X57338273Y-123885837D01*
X59899500Y-123885837D01*
X59899500Y-124114162D01*
X59935215Y-124339660D01*
X60005770Y-124556803D01*
X60098248Y-124738299D01*
X60109421Y-124760228D01*
X60243621Y-124944937D01*
X60405063Y-125106379D01*
X60589772Y-125240579D01*
X60685884Y-125289550D01*
X60793196Y-125344229D01*
X60793198Y-125344229D01*
X60793201Y-125344231D01*
X60909592Y-125382049D01*
X61010339Y-125414784D01*
X61235838Y-125450500D01*
X61235843Y-125450500D01*
X62764162Y-125450500D01*
X62989660Y-125414784D01*
X63206799Y-125344231D01*
X63410228Y-125240579D01*
X63594937Y-125106379D01*
X63714497Y-124986819D01*
X63775820Y-124953334D01*
X63802178Y-124950500D01*
X72697822Y-124950500D01*
X72764861Y-124970185D01*
X72785503Y-124986819D01*
X72905063Y-125106379D01*
X73089772Y-125240579D01*
X73185884Y-125289550D01*
X73293196Y-125344229D01*
X73293198Y-125344229D01*
X73293201Y-125344231D01*
X73409592Y-125382049D01*
X73510339Y-125414784D01*
X73735838Y-125450500D01*
X73735843Y-125450500D01*
X75264162Y-125450500D01*
X75489660Y-125414784D01*
X75706799Y-125344231D01*
X75910228Y-125240579D01*
X76094937Y-125106379D01*
X76214497Y-124986819D01*
X76275820Y-124953334D01*
X76302178Y-124950500D01*
X82093618Y-124950500D01*
X82106831Y-124947871D01*
X82185433Y-124932236D01*
X82277251Y-124913973D01*
X82365176Y-124877553D01*
X82450230Y-124842323D01*
X82605908Y-124738302D01*
X84988302Y-122355908D01*
X119257819Y-88086391D01*
X119319142Y-88052906D01*
X119388834Y-88057890D01*
X119444767Y-88099762D01*
X119469184Y-88165226D01*
X119469500Y-88174072D01*
X119469500Y-102634927D01*
X119449815Y-102701966D01*
X119433181Y-102722608D01*
X104261700Y-117894088D01*
X104261694Y-117894096D01*
X104157679Y-118049765D01*
X104157675Y-118049774D01*
X104154122Y-118058354D01*
X104154119Y-118058361D01*
X104086027Y-118222748D01*
X104086025Y-118222756D01*
X104049500Y-118406379D01*
X104049500Y-122482401D01*
X104029815Y-122549440D01*
X103977011Y-122595195D01*
X103963818Y-122600332D01*
X103793198Y-122655770D01*
X103589771Y-122759421D01*
X103405061Y-122893622D01*
X103405060Y-122893623D01*
X103285503Y-123013181D01*
X103224180Y-123046666D01*
X103197822Y-123049500D01*
X94302178Y-123049500D01*
X94235139Y-123029815D01*
X94214497Y-123013181D01*
X94094938Y-122893622D01*
X94069278Y-122874979D01*
X93910228Y-122759421D01*
X93872177Y-122740033D01*
X93706803Y-122655770D01*
X93489660Y-122585215D01*
X93264162Y-122549500D01*
X93264157Y-122549500D01*
X91735843Y-122549500D01*
X91735838Y-122549500D01*
X91510339Y-122585215D01*
X91293196Y-122655770D01*
X91089771Y-122759421D01*
X90905061Y-122893622D01*
X90743622Y-123055061D01*
X90609421Y-123239771D01*
X90505770Y-123443196D01*
X90435215Y-123660339D01*
X90399500Y-123885837D01*
X90399500Y-124114162D01*
X90435215Y-124339660D01*
X90505770Y-124556803D01*
X90598248Y-124738299D01*
X90609421Y-124760228D01*
X90743621Y-124944937D01*
X90905063Y-125106379D01*
X91089772Y-125240579D01*
X91185884Y-125289550D01*
X91293196Y-125344229D01*
X91293198Y-125344229D01*
X91293201Y-125344231D01*
X91409592Y-125382049D01*
X91510339Y-125414784D01*
X91735838Y-125450500D01*
X91735843Y-125450500D01*
X93264162Y-125450500D01*
X93489660Y-125414784D01*
X93706799Y-125344231D01*
X93910228Y-125240579D01*
X94094937Y-125106379D01*
X94214497Y-124986819D01*
X94275820Y-124953334D01*
X94302178Y-124950500D01*
X103197822Y-124950500D01*
X103264861Y-124970185D01*
X103285503Y-124986819D01*
X103405063Y-125106379D01*
X103589772Y-125240579D01*
X103685884Y-125289550D01*
X103793196Y-125344229D01*
X103793198Y-125344229D01*
X103793201Y-125344231D01*
X103909592Y-125382049D01*
X104010339Y-125414784D01*
X104235838Y-125450500D01*
X104235843Y-125450500D01*
X105764162Y-125450500D01*
X105989660Y-125414784D01*
X106206799Y-125344231D01*
X106410228Y-125240579D01*
X106594937Y-125106379D01*
X106756379Y-124944937D01*
X106890579Y-124760228D01*
X106994231Y-124556799D01*
X107064784Y-124339660D01*
X107100500Y-124114162D01*
X107100500Y-123885837D01*
X107076187Y-123732335D01*
X107069418Y-123689598D01*
X107064784Y-123660340D01*
X106994231Y-123443201D01*
X106994229Y-123443198D01*
X106994228Y-123443193D01*
X106943360Y-123343359D01*
X106943359Y-123343358D01*
X106895790Y-123250000D01*
X110171522Y-123250000D01*
X111649999Y-123250000D01*
X111624979Y-123310402D01*
X111600000Y-123435981D01*
X111600000Y-123564019D01*
X111624979Y-123689598D01*
X111649999Y-123750000D01*
X110171522Y-123750000D01*
X110185704Y-123839544D01*
X110256230Y-124056604D01*
X110359849Y-124259966D01*
X110494004Y-124444614D01*
X110655385Y-124605995D01*
X110840033Y-124740150D01*
X111043395Y-124843769D01*
X111260455Y-124914295D01*
X111485884Y-124950000D01*
X112000000Y-124950000D01*
X112000000Y-124100001D01*
X112060402Y-124125021D01*
X112185981Y-124150000D01*
X112314019Y-124150000D01*
X112439598Y-124125021D01*
X112500000Y-124100001D01*
X112500000Y-124950000D01*
X113014116Y-124950000D01*
X113239544Y-124914295D01*
X113456604Y-124843769D01*
X113659966Y-124740150D01*
X113844614Y-124605995D01*
X114005995Y-124444614D01*
X114140150Y-124259966D01*
X114243769Y-124056604D01*
X114314295Y-123839544D01*
X114328478Y-123750000D01*
X112850001Y-123750000D01*
X112875021Y-123689598D01*
X112900000Y-123564019D01*
X112900000Y-123435981D01*
X112875021Y-123310402D01*
X112850001Y-123250000D01*
X114328478Y-123250000D01*
X122671522Y-123250000D01*
X124149999Y-123250000D01*
X124124979Y-123310402D01*
X124100000Y-123435981D01*
X124100000Y-123564019D01*
X124124979Y-123689598D01*
X124149999Y-123750000D01*
X122671522Y-123750000D01*
X122685704Y-123839544D01*
X122756230Y-124056604D01*
X122859849Y-124259966D01*
X122994004Y-124444614D01*
X123155385Y-124605995D01*
X123340033Y-124740150D01*
X123543395Y-124843769D01*
X123760455Y-124914295D01*
X123985884Y-124950000D01*
X124500000Y-124950000D01*
X124500000Y-124100001D01*
X124560402Y-124125021D01*
X124685981Y-124150000D01*
X124814019Y-124150000D01*
X124939598Y-124125021D01*
X125000000Y-124100001D01*
X125000000Y-124950000D01*
X125514116Y-124950000D01*
X125739544Y-124914295D01*
X125956604Y-124843769D01*
X126159966Y-124740150D01*
X126344614Y-124605995D01*
X126505995Y-124444614D01*
X126640150Y-124259966D01*
X126743769Y-124056604D01*
X126814295Y-123839544D01*
X126828478Y-123750000D01*
X125350001Y-123750000D01*
X125375021Y-123689598D01*
X125400000Y-123564019D01*
X125400000Y-123435981D01*
X125375021Y-123310402D01*
X125350001Y-123250000D01*
X126828478Y-123250000D01*
X126814295Y-123160455D01*
X126743769Y-122943395D01*
X126640150Y-122740033D01*
X126505995Y-122555385D01*
X126344614Y-122394004D01*
X126159966Y-122259849D01*
X125956604Y-122156230D01*
X125739544Y-122085704D01*
X125514116Y-122050000D01*
X125000000Y-122050000D01*
X125000000Y-122899998D01*
X124939598Y-122874979D01*
X124814019Y-122850000D01*
X124685981Y-122850000D01*
X124560402Y-122874979D01*
X124500000Y-122899998D01*
X124500000Y-122050000D01*
X123985884Y-122050000D01*
X123760455Y-122085704D01*
X123543395Y-122156230D01*
X123340033Y-122259849D01*
X123155385Y-122394004D01*
X122994004Y-122555385D01*
X122859849Y-122740033D01*
X122756230Y-122943395D01*
X122685704Y-123160455D01*
X122671522Y-123250000D01*
X114328478Y-123250000D01*
X114314295Y-123160455D01*
X114243769Y-122943395D01*
X114140150Y-122740033D01*
X114005995Y-122555385D01*
X113844614Y-122394004D01*
X113659966Y-122259849D01*
X113456604Y-122156230D01*
X113239544Y-122085704D01*
X113014116Y-122050000D01*
X112500000Y-122050000D01*
X112500000Y-122899998D01*
X112439598Y-122874979D01*
X112314019Y-122850000D01*
X112185981Y-122850000D01*
X112060402Y-122874979D01*
X112000000Y-122899998D01*
X112000000Y-122050000D01*
X111485884Y-122050000D01*
X111260455Y-122085704D01*
X111043395Y-122156230D01*
X110840033Y-122259849D01*
X110655385Y-122394004D01*
X110494004Y-122555385D01*
X110359849Y-122740033D01*
X110256230Y-122943395D01*
X110185704Y-123160455D01*
X110171522Y-123250000D01*
X106895790Y-123250000D01*
X106890578Y-123239771D01*
X106813025Y-123133029D01*
X106756379Y-123055063D01*
X106594937Y-122893621D01*
X106410228Y-122759421D01*
X106206799Y-122655769D01*
X106036181Y-122600331D01*
X105978506Y-122560894D01*
X105951308Y-122496536D01*
X105950500Y-122482401D01*
X105950500Y-118945072D01*
X105970185Y-118878033D01*
X105986819Y-118857391D01*
X106458373Y-118385837D01*
X110149500Y-118385837D01*
X110149500Y-118614162D01*
X110185215Y-118839660D01*
X110255770Y-119056803D01*
X110307168Y-119157676D01*
X110359421Y-119260228D01*
X110493621Y-119444937D01*
X110655063Y-119606379D01*
X110839772Y-119740579D01*
X110935884Y-119789550D01*
X111043196Y-119844229D01*
X111043198Y-119844229D01*
X111043201Y-119844231D01*
X111159592Y-119882049D01*
X111260339Y-119914784D01*
X111485838Y-119950500D01*
X111485843Y-119950500D01*
X113014162Y-119950500D01*
X113239660Y-119914784D01*
X113456799Y-119844231D01*
X113660228Y-119740579D01*
X113844937Y-119606379D01*
X113964497Y-119486819D01*
X114025820Y-119453334D01*
X114052178Y-119450500D01*
X122947822Y-119450500D01*
X123014861Y-119470185D01*
X123035503Y-119486819D01*
X123155063Y-119606379D01*
X123339772Y-119740579D01*
X123435884Y-119789550D01*
X123543196Y-119844229D01*
X123543198Y-119844229D01*
X123543201Y-119844231D01*
X123659592Y-119882049D01*
X123760339Y-119914784D01*
X123985838Y-119950500D01*
X123985843Y-119950500D01*
X125514162Y-119950500D01*
X125739660Y-119914784D01*
X125956799Y-119844231D01*
X126160228Y-119740579D01*
X126344937Y-119606379D01*
X126506379Y-119444937D01*
X126640579Y-119260228D01*
X126744231Y-119056799D01*
X126814784Y-118839660D01*
X126850500Y-118614162D01*
X126850500Y-118385837D01*
X126814784Y-118160339D01*
X126744229Y-117943196D01*
X126640578Y-117739771D01*
X126506379Y-117555063D01*
X126344937Y-117393621D01*
X126160228Y-117259421D01*
X125956799Y-117155769D01*
X125786181Y-117100331D01*
X125728506Y-117060894D01*
X125701308Y-116996536D01*
X125700500Y-116982401D01*
X125700500Y-101656383D01*
X125700499Y-101656379D01*
X125663973Y-101472749D01*
X125592322Y-101299769D01*
X125592321Y-101299768D01*
X125592318Y-101299762D01*
X125488303Y-101144093D01*
X125457574Y-101113364D01*
X125355908Y-101011698D01*
X123946819Y-99602609D01*
X123913334Y-99541286D01*
X123910500Y-99514928D01*
X123910500Y-75488368D01*
X123924015Y-75432073D01*
X123979873Y-75322445D01*
X124033402Y-75157701D01*
X124060500Y-74986611D01*
X124060500Y-74013389D01*
X124399500Y-74013389D01*
X124399500Y-74986611D01*
X124426598Y-75157701D01*
X124480127Y-75322445D01*
X124558768Y-75476788D01*
X124660586Y-75616928D01*
X124783072Y-75739414D01*
X124923212Y-75841232D01*
X125077555Y-75919873D01*
X125242299Y-75973402D01*
X125413389Y-76000500D01*
X125413390Y-76000500D01*
X125586610Y-76000500D01*
X125586611Y-76000500D01*
X125757701Y-75973402D01*
X125922445Y-75919873D01*
X126076788Y-75841232D01*
X126216928Y-75739414D01*
X126339414Y-75616928D01*
X126441232Y-75476788D01*
X126519873Y-75322445D01*
X126573402Y-75157701D01*
X126600500Y-74986611D01*
X126600500Y-74013389D01*
X126939500Y-74013389D01*
X126939500Y-74986611D01*
X126966598Y-75157701D01*
X127020127Y-75322445D01*
X127098768Y-75476788D01*
X127200586Y-75616928D01*
X127323072Y-75739414D01*
X127463212Y-75841232D01*
X127617555Y-75919873D01*
X127782299Y-75973402D01*
X127953389Y-76000500D01*
X127953390Y-76000500D01*
X128126610Y-76000500D01*
X128126611Y-76000500D01*
X128297701Y-75973402D01*
X128462445Y-75919873D01*
X128616788Y-75841232D01*
X128756928Y-75739414D01*
X128879414Y-75616928D01*
X128981232Y-75476788D01*
X129059873Y-75322445D01*
X129113402Y-75157701D01*
X129140500Y-74986611D01*
X129140500Y-74013389D01*
X129479500Y-74013389D01*
X129479500Y-74986611D01*
X129506598Y-75157701D01*
X129560127Y-75322445D01*
X129638768Y-75476788D01*
X129740586Y-75616928D01*
X129863072Y-75739414D01*
X130003212Y-75841232D01*
X130157555Y-75919873D01*
X130322299Y-75973402D01*
X130493389Y-76000500D01*
X130493390Y-76000500D01*
X130666610Y-76000500D01*
X130666611Y-76000500D01*
X130837701Y-75973402D01*
X131002445Y-75919873D01*
X131156788Y-75841232D01*
X131296928Y-75739414D01*
X131419414Y-75616928D01*
X131521232Y-75476788D01*
X131599873Y-75322445D01*
X131653402Y-75157701D01*
X131680500Y-74986611D01*
X131680500Y-74013389D01*
X131653402Y-73842299D01*
X131599873Y-73677555D01*
X131521232Y-73523212D01*
X131419414Y-73383072D01*
X131296928Y-73260586D01*
X131156788Y-73158768D01*
X131009669Y-73083808D01*
X131002447Y-73080128D01*
X131002446Y-73080127D01*
X131002445Y-73080127D01*
X130837701Y-73026598D01*
X130837699Y-73026597D01*
X130837698Y-73026597D01*
X130693078Y-73003692D01*
X130666611Y-72999500D01*
X130493389Y-72999500D01*
X130466922Y-73003692D01*
X130322302Y-73026597D01*
X130157552Y-73080128D01*
X130003211Y-73158768D01*
X129923256Y-73216859D01*
X129863072Y-73260586D01*
X129863070Y-73260588D01*
X129863069Y-73260588D01*
X129740588Y-73383069D01*
X129740588Y-73383070D01*
X129740586Y-73383072D01*
X129733724Y-73392517D01*
X129638768Y-73523211D01*
X129560128Y-73677552D01*
X129506597Y-73842302D01*
X129479500Y-74013389D01*
X129140500Y-74013389D01*
X129113402Y-73842299D01*
X129059873Y-73677555D01*
X128981232Y-73523212D01*
X128879414Y-73383072D01*
X128756928Y-73260586D01*
X128616788Y-73158768D01*
X128469669Y-73083808D01*
X128462447Y-73080128D01*
X128462446Y-73080127D01*
X128462445Y-73080127D01*
X128297701Y-73026598D01*
X128297699Y-73026597D01*
X128297698Y-73026597D01*
X128153078Y-73003692D01*
X128126611Y-72999500D01*
X127953389Y-72999500D01*
X127926922Y-73003692D01*
X127782302Y-73026597D01*
X127617552Y-73080128D01*
X127463211Y-73158768D01*
X127383256Y-73216859D01*
X127323072Y-73260586D01*
X127323070Y-73260588D01*
X127323069Y-73260588D01*
X127200588Y-73383069D01*
X127200588Y-73383070D01*
X127200586Y-73383072D01*
X127193724Y-73392517D01*
X127098768Y-73523211D01*
X127020128Y-73677552D01*
X126966597Y-73842302D01*
X126939500Y-74013389D01*
X126600500Y-74013389D01*
X126573402Y-73842299D01*
X126519873Y-73677555D01*
X126441232Y-73523212D01*
X126339414Y-73383072D01*
X126216928Y-73260586D01*
X126076788Y-73158768D01*
X125929669Y-73083808D01*
X125922447Y-73080128D01*
X125922446Y-73080127D01*
X125922445Y-73080127D01*
X125757701Y-73026598D01*
X125757699Y-73026597D01*
X125757698Y-73026597D01*
X125613078Y-73003692D01*
X125586611Y-72999500D01*
X125413389Y-72999500D01*
X125386922Y-73003692D01*
X125242302Y-73026597D01*
X125077552Y-73080128D01*
X124923211Y-73158768D01*
X124843256Y-73216859D01*
X124783072Y-73260586D01*
X124783070Y-73260588D01*
X124783069Y-73260588D01*
X124660588Y-73383069D01*
X124660588Y-73383070D01*
X124660586Y-73383072D01*
X124653724Y-73392517D01*
X124558768Y-73523211D01*
X124480128Y-73677552D01*
X124426597Y-73842302D01*
X124399500Y-74013389D01*
X124060500Y-74013389D01*
X124033402Y-73842299D01*
X123979873Y-73677555D01*
X123901232Y-73523212D01*
X123799414Y-73383072D01*
X123676928Y-73260586D01*
X123536788Y-73158768D01*
X123389669Y-73083808D01*
X123382447Y-73080128D01*
X123382446Y-73080127D01*
X123382445Y-73080127D01*
X123217701Y-73026598D01*
X123217699Y-73026597D01*
X123217698Y-73026597D01*
X123073078Y-73003692D01*
X123046611Y-72999500D01*
X122873389Y-72999500D01*
X122846922Y-73003692D01*
X122702302Y-73026597D01*
X122537552Y-73080128D01*
X122383211Y-73158768D01*
X122303256Y-73216859D01*
X122243072Y-73260586D01*
X122243070Y-73260588D01*
X122243069Y-73260588D01*
X122120588Y-73383069D01*
X122120588Y-73383070D01*
X122120586Y-73383072D01*
X122113724Y-73392517D01*
X122018768Y-73523211D01*
X121940128Y-73677552D01*
X121886597Y-73842302D01*
X121859500Y-74013389D01*
X121859500Y-74986611D01*
X121886598Y-75157701D01*
X121887792Y-75161377D01*
X121940128Y-75322447D01*
X121995985Y-75432073D01*
X122009500Y-75488368D01*
X122009500Y-100053621D01*
X122046024Y-100237242D01*
X122046027Y-100237251D01*
X122117673Y-100410223D01*
X122117680Y-100410236D01*
X122221697Y-100565907D01*
X122221700Y-100565911D01*
X123763181Y-102107391D01*
X123796666Y-102168714D01*
X123799500Y-102195072D01*
X123799500Y-116982401D01*
X123779815Y-117049440D01*
X123727011Y-117095195D01*
X123713818Y-117100332D01*
X123543198Y-117155770D01*
X123339771Y-117259421D01*
X123155061Y-117393622D01*
X123155060Y-117393623D01*
X123035503Y-117513181D01*
X122974180Y-117546666D01*
X122947822Y-117549500D01*
X114052178Y-117549500D01*
X113985139Y-117529815D01*
X113964497Y-117513181D01*
X113844938Y-117393622D01*
X113660228Y-117259421D01*
X113456803Y-117155770D01*
X113239660Y-117085215D01*
X113014162Y-117049500D01*
X113014157Y-117049500D01*
X111485843Y-117049500D01*
X111485838Y-117049500D01*
X111260339Y-117085215D01*
X111043196Y-117155770D01*
X110839771Y-117259421D01*
X110655061Y-117393622D01*
X110493622Y-117555061D01*
X110359421Y-117739771D01*
X110255770Y-117943196D01*
X110185215Y-118160339D01*
X110149500Y-118385837D01*
X106458373Y-118385837D01*
X121158298Y-103685912D01*
X121158301Y-103685909D01*
X121219970Y-103593616D01*
X121262322Y-103530231D01*
X121333973Y-103357251D01*
X121370500Y-103173616D01*
X121370500Y-75488368D01*
X121384015Y-75432073D01*
X121439873Y-75322445D01*
X121493402Y-75157701D01*
X121520500Y-74986611D01*
X121520500Y-74013389D01*
X121493402Y-73842299D01*
X121439873Y-73677555D01*
X121361232Y-73523212D01*
X121259414Y-73383072D01*
X121136928Y-73260586D01*
X120996788Y-73158768D01*
X120849669Y-73083808D01*
X120842447Y-73080128D01*
X120842446Y-73080127D01*
X120842445Y-73080127D01*
X120677701Y-73026598D01*
X120677699Y-73026597D01*
X120677698Y-73026597D01*
X120533078Y-73003692D01*
X120506611Y-72999500D01*
X120333389Y-72999500D01*
X120306922Y-73003692D01*
X120162302Y-73026597D01*
X119997552Y-73080128D01*
X119843211Y-73158768D01*
X119763256Y-73216859D01*
X119703072Y-73260586D01*
X119703070Y-73260588D01*
X119703069Y-73260588D01*
X119580588Y-73383069D01*
X119580588Y-73383070D01*
X119580586Y-73383072D01*
X119573724Y-73392517D01*
X119478768Y-73523211D01*
X119400128Y-73677552D01*
X119346597Y-73842302D01*
X119319500Y-74013389D01*
X119319500Y-74986611D01*
X119346598Y-75157701D01*
X119347792Y-75161377D01*
X119400128Y-75322447D01*
X119455985Y-75432073D01*
X119469500Y-75488368D01*
X119469500Y-85980080D01*
X119449815Y-86047119D01*
X119397011Y-86092874D01*
X119327853Y-86102818D01*
X119298051Y-86094643D01*
X119293780Y-86092874D01*
X119277250Y-86086027D01*
X119277246Y-86086026D01*
X119277242Y-86086024D01*
X119093620Y-86049500D01*
X119093617Y-86049500D01*
X118906383Y-86049500D01*
X118906380Y-86049500D01*
X118722757Y-86086024D01*
X118722748Y-86086027D01*
X118549776Y-86157673D01*
X118549763Y-86157680D01*
X118394092Y-86261697D01*
X118394088Y-86261700D01*
X83644092Y-121011698D01*
X81642609Y-123013181D01*
X81581286Y-123046666D01*
X81554928Y-123049500D01*
X76302178Y-123049500D01*
X76235139Y-123029815D01*
X76214497Y-123013181D01*
X76094938Y-122893622D01*
X76069278Y-122874979D01*
X75910228Y-122759421D01*
X75872177Y-122740033D01*
X75706803Y-122655770D01*
X75489660Y-122585215D01*
X75264162Y-122549500D01*
X75264157Y-122549500D01*
X73735843Y-122549500D01*
X73735838Y-122549500D01*
X73510339Y-122585215D01*
X73293196Y-122655770D01*
X73089771Y-122759421D01*
X72905061Y-122893622D01*
X72905060Y-122893623D01*
X72785503Y-123013181D01*
X72724180Y-123046666D01*
X72697822Y-123049500D01*
X63802178Y-123049500D01*
X63735139Y-123029815D01*
X63714497Y-123013181D01*
X63594938Y-122893622D01*
X63569278Y-122874979D01*
X63410228Y-122759421D01*
X63372177Y-122740033D01*
X63206803Y-122655770D01*
X62989660Y-122585215D01*
X62764162Y-122549500D01*
X62764157Y-122549500D01*
X61235843Y-122549500D01*
X61235838Y-122549500D01*
X61010339Y-122585215D01*
X60793196Y-122655770D01*
X60589771Y-122759421D01*
X60405061Y-122893622D01*
X60243622Y-123055061D01*
X60109421Y-123239771D01*
X60005770Y-123443196D01*
X59935215Y-123660339D01*
X59899500Y-123885837D01*
X57338273Y-123885837D01*
X57430820Y-123793290D01*
X60237290Y-120986819D01*
X60298613Y-120953334D01*
X60324971Y-120950500D01*
X75093618Y-120950500D01*
X75105286Y-120948178D01*
X75185433Y-120932236D01*
X75277251Y-120913973D01*
X75348901Y-120884294D01*
X75450230Y-120842323D01*
X75605908Y-120738302D01*
X92238302Y-104105908D01*
X92342323Y-103950230D01*
X92413973Y-103777250D01*
X92450500Y-103593617D01*
X92450500Y-103406383D01*
X92450500Y-92750000D01*
X93421522Y-92750000D01*
X94899999Y-92750000D01*
X94874979Y-92810402D01*
X94850000Y-92935981D01*
X94850000Y-93064019D01*
X94874979Y-93189598D01*
X94899999Y-93250000D01*
X93421522Y-93250000D01*
X93435704Y-93339544D01*
X93506230Y-93556604D01*
X93609849Y-93759966D01*
X93744004Y-93944614D01*
X93905385Y-94105995D01*
X94090033Y-94240150D01*
X94293395Y-94343769D01*
X94510455Y-94414295D01*
X94735884Y-94450000D01*
X95250000Y-94450000D01*
X95250000Y-93600001D01*
X95310402Y-93625021D01*
X95435981Y-93650000D01*
X95564019Y-93650000D01*
X95689598Y-93625021D01*
X95750000Y-93600001D01*
X95750000Y-94450000D01*
X96264116Y-94450000D01*
X96489544Y-94414295D01*
X96706604Y-94343769D01*
X96909966Y-94240150D01*
X97094614Y-94105995D01*
X97255995Y-93944614D01*
X97390150Y-93759966D01*
X97493769Y-93556604D01*
X97564295Y-93339544D01*
X97578478Y-93250000D01*
X96100001Y-93250000D01*
X96125021Y-93189598D01*
X96150000Y-93064019D01*
X96150000Y-92935981D01*
X96125021Y-92810402D01*
X96100001Y-92750000D01*
X97578478Y-92750000D01*
X105921522Y-92750000D01*
X107399999Y-92750000D01*
X107374979Y-92810402D01*
X107350000Y-92935981D01*
X107350000Y-93064019D01*
X107374979Y-93189598D01*
X107399999Y-93250000D01*
X105921522Y-93250000D01*
X105935704Y-93339544D01*
X106006230Y-93556604D01*
X106109849Y-93759966D01*
X106244004Y-93944614D01*
X106405385Y-94105995D01*
X106590033Y-94240150D01*
X106793395Y-94343769D01*
X107010455Y-94414295D01*
X107235884Y-94450000D01*
X107750000Y-94450000D01*
X107750000Y-93600001D01*
X107810402Y-93625021D01*
X107935981Y-93650000D01*
X108064019Y-93650000D01*
X108189598Y-93625021D01*
X108250000Y-93600001D01*
X108250000Y-94450000D01*
X108764116Y-94450000D01*
X108989544Y-94414295D01*
X109206604Y-94343769D01*
X109409966Y-94240150D01*
X109594614Y-94105995D01*
X109755995Y-93944614D01*
X109890150Y-93759966D01*
X109993769Y-93556604D01*
X110064295Y-93339544D01*
X110078478Y-93250000D01*
X108600001Y-93250000D01*
X108625021Y-93189598D01*
X108650000Y-93064019D01*
X108650000Y-92935981D01*
X108625021Y-92810402D01*
X108600001Y-92750000D01*
X110078478Y-92750000D01*
X110064295Y-92660455D01*
X109993769Y-92443395D01*
X109890150Y-92240033D01*
X109755995Y-92055385D01*
X109594614Y-91894004D01*
X109409966Y-91759849D01*
X109206604Y-91656230D01*
X108989544Y-91585704D01*
X108764116Y-91550000D01*
X108250000Y-91550000D01*
X108250000Y-92399998D01*
X108189598Y-92374979D01*
X108064019Y-92350000D01*
X107935981Y-92350000D01*
X107810402Y-92374979D01*
X107750000Y-92399998D01*
X107750000Y-91550000D01*
X107235884Y-91550000D01*
X107010455Y-91585704D01*
X106793395Y-91656230D01*
X106590033Y-91759849D01*
X106405385Y-91894004D01*
X106244004Y-92055385D01*
X106109849Y-92240033D01*
X106006230Y-92443395D01*
X105935704Y-92660455D01*
X105921522Y-92750000D01*
X97578478Y-92750000D01*
X97564295Y-92660455D01*
X97493769Y-92443395D01*
X97390150Y-92240033D01*
X97255995Y-92055385D01*
X97094614Y-91894004D01*
X96909966Y-91759849D01*
X96706604Y-91656230D01*
X96489544Y-91585704D01*
X96264116Y-91550000D01*
X95750000Y-91550000D01*
X95750000Y-92399998D01*
X95689598Y-92374979D01*
X95564019Y-92350000D01*
X95435981Y-92350000D01*
X95310402Y-92374979D01*
X95250000Y-92399998D01*
X95250000Y-91550000D01*
X94735884Y-91550000D01*
X94510455Y-91585704D01*
X94293395Y-91656230D01*
X94090033Y-91759849D01*
X93905385Y-91894004D01*
X93744004Y-92055385D01*
X93609849Y-92240033D01*
X93506230Y-92443395D01*
X93435704Y-92660455D01*
X93421522Y-92750000D01*
X92450500Y-92750000D01*
X92450500Y-87885837D01*
X93399500Y-87885837D01*
X93399500Y-88114162D01*
X93435215Y-88339660D01*
X93505770Y-88556803D01*
X93598248Y-88738299D01*
X93609421Y-88760228D01*
X93743621Y-88944937D01*
X93905063Y-89106379D01*
X94089772Y-89240579D01*
X94185884Y-89289550D01*
X94293196Y-89344229D01*
X94293198Y-89344229D01*
X94293201Y-89344231D01*
X94409592Y-89382049D01*
X94510339Y-89414784D01*
X94735838Y-89450500D01*
X94735843Y-89450500D01*
X96264162Y-89450500D01*
X96489660Y-89414784D01*
X96546735Y-89396239D01*
X96706799Y-89344231D01*
X96910228Y-89240579D01*
X97094937Y-89106379D01*
X97214497Y-88986819D01*
X97275820Y-88953334D01*
X97302178Y-88950500D01*
X104906384Y-88950500D01*
X106197822Y-88950500D01*
X106264861Y-88970185D01*
X106285503Y-88986819D01*
X106405063Y-89106379D01*
X106589772Y-89240579D01*
X106685884Y-89289550D01*
X106793196Y-89344229D01*
X106793198Y-89344229D01*
X106793201Y-89344231D01*
X106909592Y-89382049D01*
X107010339Y-89414784D01*
X107235838Y-89450500D01*
X107235843Y-89450500D01*
X108764162Y-89450500D01*
X108989660Y-89414784D01*
X109046735Y-89396239D01*
X109206799Y-89344231D01*
X109410228Y-89240579D01*
X109594937Y-89106379D01*
X109714497Y-88986819D01*
X109775820Y-88953334D01*
X109802178Y-88950500D01*
X112593618Y-88950500D01*
X112606831Y-88947871D01*
X112685433Y-88932236D01*
X112777251Y-88913973D01*
X112865176Y-88877553D01*
X112950230Y-88842323D01*
X113105908Y-88738302D01*
X118618302Y-83225908D01*
X118722323Y-83070230D01*
X118722324Y-83070227D01*
X118722326Y-83070224D01*
X118747151Y-83010289D01*
X118786758Y-82914669D01*
X118793973Y-82897251D01*
X118817843Y-82777250D01*
X118830500Y-82713617D01*
X118830500Y-82526383D01*
X118830500Y-75488368D01*
X118844015Y-75432073D01*
X118899873Y-75322445D01*
X118953402Y-75157701D01*
X118980500Y-74986611D01*
X118980500Y-74013389D01*
X118953402Y-73842299D01*
X118899873Y-73677555D01*
X118821232Y-73523212D01*
X118719414Y-73383072D01*
X118596928Y-73260586D01*
X118456788Y-73158768D01*
X118309669Y-73083808D01*
X118302447Y-73080128D01*
X118302446Y-73080127D01*
X118302445Y-73080127D01*
X118137701Y-73026598D01*
X118137699Y-73026597D01*
X118137698Y-73026597D01*
X117993078Y-73003692D01*
X117966611Y-72999500D01*
X117793389Y-72999500D01*
X117766922Y-73003692D01*
X117622302Y-73026597D01*
X117457552Y-73080128D01*
X117303211Y-73158768D01*
X117223256Y-73216859D01*
X117163072Y-73260586D01*
X117163070Y-73260588D01*
X117163069Y-73260588D01*
X117040588Y-73383069D01*
X117040588Y-73383070D01*
X117040586Y-73383072D01*
X117033724Y-73392517D01*
X116938768Y-73523211D01*
X116860128Y-73677552D01*
X116806597Y-73842302D01*
X116779500Y-74013389D01*
X116779500Y-74986611D01*
X116806598Y-75157701D01*
X116807792Y-75161377D01*
X116860128Y-75322447D01*
X116915985Y-75432073D01*
X116929500Y-75488368D01*
X116929500Y-82174928D01*
X116909815Y-82241967D01*
X116893181Y-82262609D01*
X112142609Y-87013181D01*
X112081286Y-87046666D01*
X112054928Y-87049500D01*
X109802178Y-87049500D01*
X109735139Y-87029815D01*
X109714497Y-87013181D01*
X109594938Y-86893622D01*
X109410228Y-86759421D01*
X109206803Y-86655770D01*
X108989660Y-86585215D01*
X108764162Y-86549500D01*
X108764157Y-86549500D01*
X107235843Y-86549500D01*
X107235838Y-86549500D01*
X107010339Y-86585215D01*
X106793196Y-86655770D01*
X106589771Y-86759421D01*
X106405061Y-86893622D01*
X106405060Y-86893623D01*
X106285503Y-87013181D01*
X106224180Y-87046666D01*
X106197822Y-87049500D01*
X97302178Y-87049500D01*
X97235139Y-87029815D01*
X97214497Y-87013181D01*
X97094938Y-86893622D01*
X96910228Y-86759421D01*
X96706803Y-86655770D01*
X96489660Y-86585215D01*
X96264162Y-86549500D01*
X96264157Y-86549500D01*
X94735843Y-86549500D01*
X94735838Y-86549500D01*
X94510339Y-86585215D01*
X94293196Y-86655770D01*
X94089771Y-86759421D01*
X93905061Y-86893622D01*
X93743622Y-87055061D01*
X93609421Y-87239771D01*
X93505770Y-87443196D01*
X93435215Y-87660339D01*
X93399500Y-87885837D01*
X92450500Y-87885837D01*
X92450500Y-86406384D01*
X92413973Y-86222749D01*
X92342322Y-86049769D01*
X92342321Y-86049768D01*
X92342318Y-86049762D01*
X92238302Y-85894092D01*
X92238299Y-85894088D01*
X92105911Y-85761700D01*
X92105907Y-85761697D01*
X91950237Y-85657681D01*
X91950228Y-85657676D01*
X91777251Y-85586027D01*
X91777243Y-85586025D01*
X91593620Y-85549500D01*
X91593616Y-85549500D01*
X91406384Y-85549500D01*
X91406379Y-85549500D01*
X91222756Y-85586025D01*
X91222748Y-85586027D01*
X91049771Y-85657676D01*
X91049762Y-85657681D01*
X90894092Y-85761697D01*
X90894088Y-85761700D01*
X90761700Y-85894088D01*
X90761697Y-85894092D01*
X90657681Y-86049762D01*
X90657676Y-86049771D01*
X90586027Y-86222748D01*
X90586025Y-86222756D01*
X90549500Y-86406379D01*
X90549500Y-103054928D01*
X90529815Y-103121967D01*
X90513181Y-103142609D01*
X74642609Y-119013181D01*
X74581286Y-119046666D01*
X74554928Y-119049500D01*
X59786281Y-119049500D01*
X59767935Y-119053149D01*
X59749588Y-119056799D01*
X59749587Y-119056799D01*
X59602655Y-119086025D01*
X59602647Y-119086027D01*
X59429670Y-119157676D01*
X59276192Y-119260228D01*
X59276179Y-119260237D01*
X59273990Y-119261698D01*
X59273987Y-119261701D01*
X55522508Y-123013181D01*
X55461185Y-123046666D01*
X55434827Y-123049500D01*
X45302178Y-123049500D01*
X45235139Y-123029815D01*
X45214497Y-123013181D01*
X45094938Y-122893622D01*
X45069278Y-122874979D01*
X44910228Y-122759421D01*
X44872177Y-122740033D01*
X44706803Y-122655770D01*
X44489660Y-122585215D01*
X44264162Y-122549500D01*
X44264157Y-122549500D01*
X42735843Y-122549500D01*
X42735838Y-122549500D01*
X42510339Y-122585215D01*
X42293196Y-122655770D01*
X42089771Y-122759421D01*
X41905061Y-122893622D01*
X41905060Y-122893623D01*
X41785503Y-123013181D01*
X41724180Y-123046666D01*
X41697822Y-123049500D01*
X32802178Y-123049500D01*
X32735139Y-123029815D01*
X32714497Y-123013181D01*
X32594938Y-122893622D01*
X32569278Y-122874979D01*
X32410228Y-122759421D01*
X32372177Y-122740033D01*
X32206803Y-122655770D01*
X31989660Y-122585215D01*
X31764162Y-122549500D01*
X31764157Y-122549500D01*
X30235843Y-122549500D01*
X30235838Y-122549500D01*
X30010339Y-122585215D01*
X29793196Y-122655770D01*
X29589771Y-122759421D01*
X29405061Y-122893622D01*
X29243623Y-123055060D01*
X29243616Y-123055069D01*
X29186974Y-123133029D01*
X29131644Y-123175695D01*
X29062031Y-123181673D01*
X29000236Y-123149067D01*
X28965879Y-123088228D01*
X28962658Y-123059670D01*
X28996672Y-114250000D01*
X44421522Y-114250000D01*
X45899999Y-114250000D01*
X45874979Y-114310402D01*
X45850000Y-114435981D01*
X45850000Y-114564019D01*
X45874979Y-114689598D01*
X45899999Y-114750000D01*
X44421522Y-114750000D01*
X44435704Y-114839544D01*
X44506230Y-115056604D01*
X44609849Y-115259966D01*
X44744004Y-115444614D01*
X44905385Y-115605995D01*
X45090033Y-115740150D01*
X45293395Y-115843769D01*
X45510455Y-115914295D01*
X45735884Y-115950000D01*
X46250000Y-115950000D01*
X46250000Y-115100001D01*
X46310402Y-115125021D01*
X46435981Y-115150000D01*
X46564019Y-115150000D01*
X46689598Y-115125021D01*
X46750000Y-115100001D01*
X46750000Y-115950000D01*
X47264116Y-115950000D01*
X47489544Y-115914295D01*
X47706604Y-115843769D01*
X47909966Y-115740150D01*
X48094614Y-115605995D01*
X48255995Y-115444614D01*
X48390150Y-115259966D01*
X48493769Y-115056604D01*
X48564295Y-114839544D01*
X48578478Y-114750000D01*
X47100001Y-114750000D01*
X47125021Y-114689598D01*
X47150000Y-114564019D01*
X47150000Y-114435981D01*
X47125021Y-114310402D01*
X47100001Y-114250000D01*
X48578478Y-114250000D01*
X56921522Y-114250000D01*
X58399999Y-114250000D01*
X58374979Y-114310402D01*
X58350000Y-114435981D01*
X58350000Y-114564019D01*
X58374979Y-114689598D01*
X58399999Y-114750000D01*
X56921522Y-114750000D01*
X56935704Y-114839544D01*
X57006230Y-115056604D01*
X57109849Y-115259966D01*
X57244004Y-115444614D01*
X57405385Y-115605995D01*
X57590033Y-115740150D01*
X57793395Y-115843769D01*
X58010455Y-115914295D01*
X58235884Y-115950000D01*
X58750000Y-115950000D01*
X58750000Y-115100001D01*
X58810402Y-115125021D01*
X58935981Y-115150000D01*
X59064019Y-115150000D01*
X59189598Y-115125021D01*
X59250000Y-115100001D01*
X59250000Y-115950000D01*
X59764116Y-115950000D01*
X59989544Y-115914295D01*
X60206604Y-115843769D01*
X60409966Y-115740150D01*
X60594614Y-115605995D01*
X60755995Y-115444614D01*
X60890150Y-115259966D01*
X60993769Y-115056604D01*
X61064295Y-114839544D01*
X61078478Y-114750000D01*
X59600001Y-114750000D01*
X59625021Y-114689598D01*
X59650000Y-114564019D01*
X59650000Y-114435981D01*
X59625021Y-114310402D01*
X59600001Y-114250000D01*
X61078478Y-114250000D01*
X61064295Y-114160455D01*
X60993769Y-113943395D01*
X60890150Y-113740033D01*
X60755995Y-113555385D01*
X60594614Y-113394004D01*
X60409966Y-113259849D01*
X60206604Y-113156230D01*
X59989544Y-113085704D01*
X59764116Y-113050000D01*
X59250000Y-113050000D01*
X59250000Y-113899998D01*
X59189598Y-113874979D01*
X59064019Y-113850000D01*
X58935981Y-113850000D01*
X58810402Y-113874979D01*
X58750000Y-113899998D01*
X58750000Y-113050000D01*
X58235884Y-113050000D01*
X58010455Y-113085704D01*
X57793395Y-113156230D01*
X57590033Y-113259849D01*
X57405385Y-113394004D01*
X57244004Y-113555385D01*
X57109849Y-113740033D01*
X57006230Y-113943395D01*
X56935704Y-114160455D01*
X56921522Y-114250000D01*
X48578478Y-114250000D01*
X48564295Y-114160455D01*
X48493769Y-113943395D01*
X48390150Y-113740033D01*
X48255995Y-113555385D01*
X48094614Y-113394004D01*
X47909966Y-113259849D01*
X47706604Y-113156230D01*
X47489544Y-113085704D01*
X47264116Y-113050000D01*
X46750000Y-113050000D01*
X46750000Y-113899998D01*
X46689598Y-113874979D01*
X46564019Y-113850000D01*
X46435981Y-113850000D01*
X46310402Y-113874979D01*
X46250000Y-113899998D01*
X46250000Y-113050000D01*
X45735884Y-113050000D01*
X45510455Y-113085704D01*
X45293395Y-113156230D01*
X45090033Y-113259849D01*
X44905385Y-113394004D01*
X44744004Y-113555385D01*
X44609849Y-113740033D01*
X44506230Y-113943395D01*
X44435704Y-114160455D01*
X44421522Y-114250000D01*
X28996672Y-114250000D01*
X29015453Y-109385837D01*
X44399500Y-109385837D01*
X44399500Y-109614162D01*
X44435215Y-109839660D01*
X44505770Y-110056803D01*
X44609421Y-110260228D01*
X44743621Y-110444937D01*
X44905063Y-110606379D01*
X45089772Y-110740579D01*
X45185884Y-110789550D01*
X45293196Y-110844229D01*
X45293198Y-110844229D01*
X45293201Y-110844231D01*
X45409592Y-110882049D01*
X45510339Y-110914784D01*
X45735838Y-110950500D01*
X45735843Y-110950500D01*
X47264162Y-110950500D01*
X47489660Y-110914784D01*
X47706799Y-110844231D01*
X47910228Y-110740579D01*
X48094937Y-110606379D01*
X48214497Y-110486819D01*
X48275820Y-110453334D01*
X48302178Y-110450500D01*
X57197822Y-110450500D01*
X57264861Y-110470185D01*
X57285503Y-110486819D01*
X57405063Y-110606379D01*
X57589772Y-110740579D01*
X57685884Y-110789550D01*
X57793196Y-110844229D01*
X57793198Y-110844229D01*
X57793201Y-110844231D01*
X57909592Y-110882049D01*
X58010339Y-110914784D01*
X58235838Y-110950500D01*
X58235843Y-110950500D01*
X59764162Y-110950500D01*
X59989660Y-110914784D01*
X60206799Y-110844231D01*
X60410228Y-110740579D01*
X60594937Y-110606379D01*
X60756379Y-110444937D01*
X60890579Y-110260228D01*
X60994231Y-110056799D01*
X61064784Y-109839660D01*
X61100500Y-109614162D01*
X61100500Y-109385837D01*
X61064784Y-109160339D01*
X60994229Y-108943196D01*
X60890578Y-108739771D01*
X60756379Y-108555063D01*
X60594937Y-108393621D01*
X60410228Y-108259421D01*
X60206803Y-108155770D01*
X59989660Y-108085215D01*
X59764162Y-108049500D01*
X59764157Y-108049500D01*
X58235843Y-108049500D01*
X58235838Y-108049500D01*
X58010339Y-108085215D01*
X57793196Y-108155770D01*
X57589771Y-108259421D01*
X57405061Y-108393622D01*
X57405060Y-108393623D01*
X57285503Y-108513181D01*
X57224180Y-108546666D01*
X57197822Y-108549500D01*
X48302178Y-108549500D01*
X48235139Y-108529815D01*
X48214497Y-108513181D01*
X48094938Y-108393622D01*
X47910228Y-108259421D01*
X47706803Y-108155770D01*
X47489660Y-108085215D01*
X47264162Y-108049500D01*
X47264157Y-108049500D01*
X45735843Y-108049500D01*
X45735838Y-108049500D01*
X45510339Y-108085215D01*
X45293196Y-108155770D01*
X45089771Y-108259421D01*
X44905061Y-108393622D01*
X44743622Y-108555061D01*
X44609421Y-108739771D01*
X44505770Y-108943196D01*
X44435215Y-109160339D01*
X44399500Y-109385837D01*
X29015453Y-109385837D01*
X29257432Y-46713389D01*
X39899500Y-46713389D01*
X39899500Y-64913389D01*
X39899500Y-65086611D01*
X39926598Y-65257701D01*
X39980127Y-65422445D01*
X40058768Y-65576788D01*
X40160586Y-65716928D01*
X44783072Y-70339414D01*
X44923212Y-70441232D01*
X45077555Y-70519873D01*
X45242299Y-70573402D01*
X45413389Y-70600500D01*
X45586611Y-70600500D01*
X76811836Y-70600500D01*
X76878875Y-70620185D01*
X76899517Y-70636819D01*
X79230995Y-72968297D01*
X79264480Y-73029620D01*
X79259496Y-73099312D01*
X79217624Y-73155245D01*
X79208111Y-73161701D01*
X79206203Y-73162870D01*
X79066117Y-73264647D01*
X78943687Y-73387077D01*
X78841917Y-73527154D01*
X78763311Y-73681422D01*
X78709805Y-73846095D01*
X78682720Y-74017108D01*
X78682720Y-74253680D01*
X79467034Y-74253680D01*
X79462640Y-74258074D01*
X79409979Y-74349286D01*
X79382720Y-74451019D01*
X79382720Y-74556341D01*
X79409979Y-74658074D01*
X79462640Y-74749286D01*
X79467034Y-74753680D01*
X78682720Y-74753680D01*
X78682720Y-74990251D01*
X78709805Y-75161264D01*
X78763311Y-75325937D01*
X78841915Y-75480204D01*
X78943687Y-75620282D01*
X79066117Y-75742712D01*
X79206195Y-75844484D01*
X79360464Y-75923088D01*
X79525135Y-75976594D01*
X79525134Y-75976594D01*
X79532719Y-75977795D01*
X79532720Y-75977794D01*
X79532720Y-74819366D01*
X79537114Y-74823760D01*
X79628326Y-74876421D01*
X79730059Y-74903680D01*
X79835381Y-74903680D01*
X79937114Y-74876421D01*
X80028326Y-74823760D01*
X80032720Y-74819366D01*
X80032720Y-75977795D01*
X80040304Y-75976594D01*
X80204975Y-75923088D01*
X80359244Y-75844484D01*
X80499322Y-75742712D01*
X80621752Y-75620282D01*
X80723524Y-75480204D01*
X80802128Y-75325937D01*
X80855634Y-75161264D01*
X80882720Y-74990251D01*
X80882720Y-74919384D01*
X80888958Y-74898138D01*
X80890538Y-74876050D01*
X80898610Y-74865266D01*
X80902405Y-74852345D01*
X80919138Y-74837845D01*
X80932410Y-74820117D01*
X80945030Y-74815409D01*
X80955209Y-74806590D01*
X80977126Y-74803438D01*
X80997874Y-74795700D01*
X81011034Y-74798562D01*
X81024367Y-74796646D01*
X81044510Y-74805845D01*
X81066147Y-74810552D01*
X81083872Y-74823820D01*
X81087923Y-74825671D01*
X81094401Y-74831703D01*
X81187940Y-74925242D01*
X81221425Y-74986565D01*
X81222732Y-74993525D01*
X81248734Y-75157697D01*
X81249318Y-75161381D01*
X81302847Y-75326125D01*
X81381488Y-75480468D01*
X81483306Y-75620608D01*
X81605792Y-75743094D01*
X81745932Y-75844912D01*
X81900275Y-75923553D01*
X82065019Y-75977082D01*
X82236109Y-76004180D01*
X82236110Y-76004180D01*
X82409330Y-76004180D01*
X82409331Y-76004180D01*
X82580421Y-75977082D01*
X82745165Y-75923553D01*
X82899508Y-75844912D01*
X83039648Y-75743094D01*
X83162134Y-75620608D01*
X83263952Y-75480468D01*
X83342593Y-75326125D01*
X83396122Y-75161381D01*
X83423220Y-74990291D01*
X83423220Y-74017069D01*
X83762220Y-74017069D01*
X83762220Y-74990290D01*
X83788734Y-75157697D01*
X83789318Y-75161381D01*
X83842847Y-75326125D01*
X83921488Y-75480468D01*
X84023306Y-75620608D01*
X84145792Y-75743094D01*
X84285932Y-75844912D01*
X84440275Y-75923553D01*
X84605019Y-75977082D01*
X84776109Y-76004180D01*
X84776110Y-76004180D01*
X84949330Y-76004180D01*
X84949331Y-76004180D01*
X85120421Y-75977082D01*
X85285165Y-75923553D01*
X85439508Y-75844912D01*
X85579648Y-75743094D01*
X85702134Y-75620608D01*
X85803952Y-75480468D01*
X85882593Y-75326125D01*
X85936122Y-75161381D01*
X85963220Y-74990291D01*
X85963220Y-74017069D01*
X85936122Y-73845979D01*
X85882593Y-73681235D01*
X85803952Y-73526892D01*
X85702134Y-73386752D01*
X85579648Y-73264266D01*
X85439508Y-73162448D01*
X85285165Y-73083807D01*
X85120421Y-73030278D01*
X85120419Y-73030277D01*
X85120418Y-73030277D01*
X84966561Y-73005909D01*
X84949331Y-73003180D01*
X84776109Y-73003180D01*
X84758879Y-73005909D01*
X84605022Y-73030277D01*
X84440272Y-73083808D01*
X84285931Y-73162448D01*
X84205976Y-73220539D01*
X84145792Y-73264266D01*
X84145790Y-73264268D01*
X84145789Y-73264268D01*
X84023308Y-73386749D01*
X84023308Y-73386750D01*
X84023306Y-73386752D01*
X83979579Y-73446936D01*
X83921488Y-73526891D01*
X83842848Y-73681232D01*
X83789317Y-73845982D01*
X83762220Y-74017069D01*
X83423220Y-74017069D01*
X83396122Y-73845979D01*
X83342593Y-73681235D01*
X83263952Y-73526892D01*
X83162134Y-73386752D01*
X83039648Y-73264266D01*
X82899508Y-73162448D01*
X82745165Y-73083807D01*
X82580421Y-73030278D01*
X82580419Y-73030277D01*
X82580417Y-73030277D01*
X82412565Y-73003692D01*
X82349430Y-72973763D01*
X82344282Y-72968900D01*
X78035970Y-68660588D01*
X78035968Y-68660586D01*
X77895828Y-68558768D01*
X77741485Y-68480127D01*
X77576741Y-68426598D01*
X77576739Y-68426597D01*
X77576738Y-68426597D01*
X77445311Y-68405781D01*
X77405651Y-68399500D01*
X77405650Y-68399500D01*
X46007204Y-68399500D01*
X45940165Y-68379815D01*
X45919523Y-68363181D01*
X42136819Y-64580477D01*
X42103334Y-64519154D01*
X42100500Y-64492796D01*
X42100500Y-47307203D01*
X42120185Y-47240164D01*
X42136814Y-47219527D01*
X44044326Y-45312015D01*
X44105644Y-45278533D01*
X44175335Y-45283517D01*
X44231269Y-45325389D01*
X44246159Y-45354093D01*
X44247045Y-45353727D01*
X44248904Y-45358218D01*
X44345375Y-45547550D01*
X44384728Y-45601716D01*
X45017037Y-44969408D01*
X45034075Y-45032993D01*
X45099901Y-45147007D01*
X45192993Y-45240099D01*
X45307007Y-45305925D01*
X45370590Y-45322962D01*
X44738282Y-45955269D01*
X44738282Y-45955270D01*
X44792452Y-45994626D01*
X44792451Y-45994626D01*
X44801495Y-45999234D01*
X44852292Y-46047208D01*
X44869087Y-46115029D01*
X44846550Y-46181164D01*
X44801499Y-46220202D01*
X44792182Y-46224949D01*
X44620213Y-46349890D01*
X44469890Y-46500213D01*
X44344951Y-46672179D01*
X44248444Y-46861585D01*
X44182753Y-47063760D01*
X44149500Y-47273713D01*
X44149500Y-47486286D01*
X44182753Y-47696239D01*
X44248444Y-47898414D01*
X44344951Y-48087820D01*
X44469890Y-48259786D01*
X44620213Y-48410109D01*
X44792182Y-48535050D01*
X44800946Y-48539516D01*
X44851742Y-48587491D01*
X44868536Y-48655312D01*
X44845998Y-48721447D01*
X44800946Y-48760484D01*
X44792182Y-48764949D01*
X44620213Y-48889890D01*
X44469890Y-49040213D01*
X44344951Y-49212179D01*
X44248444Y-49401585D01*
X44182753Y-49603760D01*
X44149500Y-49813713D01*
X44149500Y-50026286D01*
X44180201Y-50220128D01*
X44182754Y-50236243D01*
X44236276Y-50400967D01*
X44248444Y-50438414D01*
X44344951Y-50627820D01*
X44469890Y-50799786D01*
X44620213Y-50950109D01*
X44792182Y-51075050D01*
X44800946Y-51079516D01*
X44851742Y-51127491D01*
X44868536Y-51195312D01*
X44845998Y-51261447D01*
X44800946Y-51300484D01*
X44792182Y-51304949D01*
X44620213Y-51429890D01*
X44469890Y-51580213D01*
X44344951Y-51752179D01*
X44248444Y-51941585D01*
X44182753Y-52143760D01*
X44149500Y-52353713D01*
X44149500Y-52566286D01*
X44179694Y-52756928D01*
X44182754Y-52776243D01*
X44248039Y-52977170D01*
X44248444Y-52978414D01*
X44344951Y-53167820D01*
X44469890Y-53339786D01*
X44620213Y-53490109D01*
X44792182Y-53615050D01*
X44800946Y-53619516D01*
X44851742Y-53667491D01*
X44868536Y-53735312D01*
X44845998Y-53801447D01*
X44800946Y-53840484D01*
X44792182Y-53844949D01*
X44620213Y-53969890D01*
X44469890Y-54120213D01*
X44344951Y-54292179D01*
X44248444Y-54481585D01*
X44182753Y-54683760D01*
X44149500Y-54893713D01*
X44149500Y-55106286D01*
X44182753Y-55316239D01*
X44248444Y-55518414D01*
X44344951Y-55707820D01*
X44469890Y-55879786D01*
X44620213Y-56030109D01*
X44792182Y-56155050D01*
X44800946Y-56159516D01*
X44851742Y-56207491D01*
X44868536Y-56275312D01*
X44845998Y-56341447D01*
X44800946Y-56380484D01*
X44792182Y-56384949D01*
X44620213Y-56509890D01*
X44469890Y-56660213D01*
X44344951Y-56832179D01*
X44248444Y-57021585D01*
X44182753Y-57223760D01*
X44149500Y-57433713D01*
X44149500Y-57646286D01*
X44182753Y-57856239D01*
X44248444Y-58058414D01*
X44344951Y-58247820D01*
X44469890Y-58419786D01*
X44620213Y-58570109D01*
X44792182Y-58695050D01*
X44800946Y-58699516D01*
X44851742Y-58747491D01*
X44868536Y-58815312D01*
X44845998Y-58881447D01*
X44800946Y-58920484D01*
X44792182Y-58924949D01*
X44620213Y-59049890D01*
X44469890Y-59200213D01*
X44344951Y-59372179D01*
X44248444Y-59561585D01*
X44182753Y-59763760D01*
X44149500Y-59973713D01*
X44149500Y-60186286D01*
X44182753Y-60396239D01*
X44248444Y-60598414D01*
X44344951Y-60787820D01*
X44469890Y-60959786D01*
X44583430Y-61073326D01*
X44616915Y-61134649D01*
X44611931Y-61204341D01*
X44570059Y-61260274D01*
X44539083Y-61277189D01*
X44407669Y-61326203D01*
X44407664Y-61326206D01*
X44292455Y-61412452D01*
X44292452Y-61412455D01*
X44206206Y-61527664D01*
X44206202Y-61527671D01*
X44155908Y-61662517D01*
X44149501Y-61722116D01*
X44149501Y-61722123D01*
X44149500Y-61722135D01*
X44149500Y-63517870D01*
X44149501Y-63517876D01*
X44155908Y-63577483D01*
X44206202Y-63712328D01*
X44206206Y-63712335D01*
X44292452Y-63827544D01*
X44292455Y-63827547D01*
X44407664Y-63913793D01*
X44407671Y-63913797D01*
X44542517Y-63964091D01*
X44542516Y-63964091D01*
X44549444Y-63964835D01*
X44602127Y-63970500D01*
X46397872Y-63970499D01*
X46457483Y-63964091D01*
X46592331Y-63913796D01*
X46707546Y-63827546D01*
X46793796Y-63712331D01*
X46844091Y-63577483D01*
X46850500Y-63517873D01*
X46850499Y-61722128D01*
X46844091Y-61662517D01*
X46815637Y-61586229D01*
X46793797Y-61527671D01*
X46793793Y-61527664D01*
X46707547Y-61412455D01*
X46707544Y-61412452D01*
X46592335Y-61326206D01*
X46592328Y-61326202D01*
X46460917Y-61277189D01*
X46460916Y-61277189D01*
X46409633Y-61238799D01*
X46404983Y-61235318D01*
X46404982Y-61235317D01*
X46380566Y-61169852D01*
X46395418Y-61101579D01*
X46416563Y-61073332D01*
X46498079Y-60991816D01*
X46559401Y-60958334D01*
X46585758Y-60955500D01*
X56172326Y-60955500D01*
X56239365Y-60975185D01*
X56285120Y-61027989D01*
X56295064Y-61097147D01*
X56286887Y-61126953D01*
X56238145Y-61244625D01*
X56238143Y-61244633D01*
X56204500Y-61413766D01*
X56204500Y-61586233D01*
X56238143Y-61755366D01*
X56238146Y-61755378D01*
X56304138Y-61914698D01*
X56304145Y-61914711D01*
X56399954Y-62058098D01*
X56399957Y-62058102D01*
X56521897Y-62180042D01*
X56521901Y-62180045D01*
X56665288Y-62275854D01*
X56665301Y-62275861D01*
X56824621Y-62341853D01*
X56824626Y-62341855D01*
X56993766Y-62375499D01*
X56993769Y-62375500D01*
X56993771Y-62375500D01*
X60252334Y-62375500D01*
X60319373Y-62395185D01*
X60365128Y-62447989D01*
X60375072Y-62517147D01*
X60355437Y-62568390D01*
X60344144Y-62585290D01*
X60344138Y-62585301D01*
X60278146Y-62744621D01*
X60278143Y-62744633D01*
X60244500Y-62913766D01*
X60244500Y-63086233D01*
X60278143Y-63255366D01*
X60278146Y-63255378D01*
X60344138Y-63414698D01*
X60344144Y-63414709D01*
X60355437Y-63431610D01*
X60376314Y-63498288D01*
X60357829Y-63565668D01*
X60305850Y-63612357D01*
X60252334Y-63624500D01*
X54913768Y-63624500D01*
X54744633Y-63658143D01*
X54744621Y-63658146D01*
X54585301Y-63724138D01*
X54585288Y-63724145D01*
X54441901Y-63819954D01*
X54441897Y-63819957D01*
X54319957Y-63941897D01*
X54319954Y-63941901D01*
X54224145Y-64085288D01*
X54224138Y-64085301D01*
X54158146Y-64244621D01*
X54158143Y-64244633D01*
X54124500Y-64413766D01*
X54124500Y-64586993D01*
X54104815Y-64654032D01*
X54052011Y-64699787D01*
X53982853Y-64709731D01*
X53919297Y-64680706D01*
X53912819Y-64674674D01*
X51558102Y-62319957D01*
X51558098Y-62319954D01*
X51414711Y-62224145D01*
X51414698Y-62224138D01*
X51255378Y-62158146D01*
X51255366Y-62158143D01*
X51086232Y-62124500D01*
X51086229Y-62124500D01*
X50913771Y-62124500D01*
X50913768Y-62124500D01*
X50744633Y-62158143D01*
X50744621Y-62158146D01*
X50585301Y-62224138D01*
X50585288Y-62224145D01*
X50441901Y-62319954D01*
X50441897Y-62319957D01*
X50319957Y-62441897D01*
X50319954Y-62441901D01*
X50224145Y-62585288D01*
X50224138Y-62585301D01*
X50158146Y-62744621D01*
X50158143Y-62744633D01*
X50124500Y-62913766D01*
X50124500Y-63086233D01*
X50158143Y-63255366D01*
X50158146Y-63255378D01*
X50224138Y-63414698D01*
X50224145Y-63414711D01*
X50319954Y-63558098D01*
X50319957Y-63558102D01*
X53319955Y-66558099D01*
X53441901Y-66680045D01*
X53441902Y-66680046D01*
X53585288Y-66775854D01*
X53585301Y-66775861D01*
X53744621Y-66841853D01*
X53744626Y-66841855D01*
X53913766Y-66875499D01*
X53913769Y-66875500D01*
X53913771Y-66875500D01*
X54086229Y-66875500D01*
X81025994Y-66875500D01*
X81093033Y-66895185D01*
X81113675Y-66911819D01*
X87064243Y-72862387D01*
X87097728Y-72923710D01*
X87092744Y-72993402D01*
X87050872Y-73049335D01*
X87014882Y-73067998D01*
X86977554Y-73080126D01*
X86823211Y-73158768D01*
X86743256Y-73216859D01*
X86683072Y-73260586D01*
X86683070Y-73260588D01*
X86683069Y-73260588D01*
X86560588Y-73383069D01*
X86560588Y-73383070D01*
X86560586Y-73383072D01*
X86553724Y-73392517D01*
X86458768Y-73523211D01*
X86380128Y-73677552D01*
X86326597Y-73842302D01*
X86299500Y-74013389D01*
X86299500Y-74986611D01*
X86326598Y-75157701D01*
X86380127Y-75322445D01*
X86458768Y-75476788D01*
X86560586Y-75616928D01*
X86683072Y-75739414D01*
X86823212Y-75841232D01*
X86977555Y-75919873D01*
X87142299Y-75973402D01*
X87313389Y-76000500D01*
X87313390Y-76000500D01*
X87486610Y-76000500D01*
X87486611Y-76000500D01*
X87657701Y-75973402D01*
X87822445Y-75919873D01*
X87976788Y-75841232D01*
X88116928Y-75739414D01*
X88239414Y-75616928D01*
X88341232Y-75476788D01*
X88419873Y-75322445D01*
X88473402Y-75157701D01*
X88500500Y-74986611D01*
X88500500Y-74598006D01*
X88506738Y-74576760D01*
X88508318Y-74554672D01*
X88516390Y-74543888D01*
X88520185Y-74530967D01*
X88536918Y-74516467D01*
X88550190Y-74498739D01*
X88562810Y-74494031D01*
X88572989Y-74485212D01*
X88594906Y-74482060D01*
X88615654Y-74474322D01*
X88628814Y-74477184D01*
X88642147Y-74475268D01*
X88662290Y-74484467D01*
X88683927Y-74489174D01*
X88701652Y-74502442D01*
X88705703Y-74504293D01*
X88712181Y-74510325D01*
X88803181Y-74601325D01*
X88836666Y-74662648D01*
X88839500Y-74689006D01*
X88839500Y-74986611D01*
X88866598Y-75157701D01*
X88920127Y-75322445D01*
X88998768Y-75476788D01*
X89100586Y-75616928D01*
X89223072Y-75739414D01*
X89363212Y-75841232D01*
X89517555Y-75919873D01*
X89682299Y-75973402D01*
X89853389Y-76000500D01*
X89853390Y-76000500D01*
X90026610Y-76000500D01*
X90026611Y-76000500D01*
X90197701Y-75973402D01*
X90362445Y-75919873D01*
X90516788Y-75841232D01*
X90656928Y-75739414D01*
X90779414Y-75616928D01*
X90881232Y-75476788D01*
X90959873Y-75322445D01*
X91013402Y-75157701D01*
X91040500Y-74986611D01*
X91040500Y-74598006D01*
X91046738Y-74576760D01*
X91048318Y-74554672D01*
X91056390Y-74543888D01*
X91060185Y-74530967D01*
X91076918Y-74516467D01*
X91090190Y-74498739D01*
X91102810Y-74494031D01*
X91112989Y-74485212D01*
X91134906Y-74482060D01*
X91155654Y-74474322D01*
X91168814Y-74477184D01*
X91182147Y-74475268D01*
X91202290Y-74484467D01*
X91223927Y-74489174D01*
X91241652Y-74502442D01*
X91245703Y-74504293D01*
X91252181Y-74510325D01*
X91343181Y-74601325D01*
X91376666Y-74662648D01*
X91379500Y-74689006D01*
X91379500Y-74986611D01*
X91406598Y-75157701D01*
X91460127Y-75322445D01*
X91538768Y-75476788D01*
X91640586Y-75616928D01*
X91763072Y-75739414D01*
X91903212Y-75841232D01*
X92057555Y-75919873D01*
X92222299Y-75973402D01*
X92393389Y-76000500D01*
X92393390Y-76000500D01*
X92566610Y-76000500D01*
X92566611Y-76000500D01*
X92737701Y-75973402D01*
X92902445Y-75919873D01*
X93056788Y-75841232D01*
X93196928Y-75739414D01*
X93319414Y-75616928D01*
X93421232Y-75476788D01*
X93499873Y-75322445D01*
X93553402Y-75157701D01*
X93580500Y-74986611D01*
X93580500Y-74598006D01*
X93586738Y-74576760D01*
X93588318Y-74554672D01*
X93596390Y-74543888D01*
X93600185Y-74530967D01*
X93616918Y-74516467D01*
X93630190Y-74498739D01*
X93642810Y-74494031D01*
X93652989Y-74485212D01*
X93674906Y-74482060D01*
X93695654Y-74474322D01*
X93708814Y-74477184D01*
X93722147Y-74475268D01*
X93742290Y-74484467D01*
X93763927Y-74489174D01*
X93781652Y-74502442D01*
X93785703Y-74504293D01*
X93792181Y-74510325D01*
X93883181Y-74601325D01*
X93916666Y-74662648D01*
X93919500Y-74689006D01*
X93919500Y-74986611D01*
X93946598Y-75157701D01*
X94000127Y-75322445D01*
X94078768Y-75476788D01*
X94180586Y-75616928D01*
X94303072Y-75739414D01*
X94443212Y-75841232D01*
X94597555Y-75919873D01*
X94762299Y-75973402D01*
X94933389Y-76000500D01*
X94933390Y-76000500D01*
X95106610Y-76000500D01*
X95106611Y-76000500D01*
X95277701Y-75973402D01*
X95442445Y-75919873D01*
X95596788Y-75841232D01*
X95736928Y-75739414D01*
X95859414Y-75616928D01*
X95961232Y-75476788D01*
X96039873Y-75322445D01*
X96093402Y-75157701D01*
X96120500Y-74986611D01*
X96120500Y-74598006D01*
X96126738Y-74576760D01*
X96128318Y-74554672D01*
X96136390Y-74543888D01*
X96140185Y-74530967D01*
X96156918Y-74516467D01*
X96170190Y-74498739D01*
X96182810Y-74494031D01*
X96192989Y-74485212D01*
X96214906Y-74482060D01*
X96235654Y-74474322D01*
X96248814Y-74477184D01*
X96262147Y-74475268D01*
X96282290Y-74484467D01*
X96303927Y-74489174D01*
X96321652Y-74502442D01*
X96325703Y-74504293D01*
X96332181Y-74510325D01*
X96423181Y-74601325D01*
X96456666Y-74662648D01*
X96459500Y-74689006D01*
X96459500Y-74986611D01*
X96486598Y-75157701D01*
X96540127Y-75322445D01*
X96618768Y-75476788D01*
X96720586Y-75616928D01*
X96843072Y-75739414D01*
X96983212Y-75841232D01*
X97137555Y-75919873D01*
X97302299Y-75973402D01*
X97473389Y-76000500D01*
X97473390Y-76000500D01*
X97646610Y-76000500D01*
X97646611Y-76000500D01*
X97817701Y-75973402D01*
X97982445Y-75919873D01*
X98136788Y-75841232D01*
X98276928Y-75739414D01*
X98399414Y-75616928D01*
X98501232Y-75476788D01*
X98579873Y-75322445D01*
X98633402Y-75157701D01*
X98660500Y-74986611D01*
X98660500Y-74598006D01*
X98666738Y-74576760D01*
X98668318Y-74554672D01*
X98676390Y-74543888D01*
X98680185Y-74530967D01*
X98696918Y-74516467D01*
X98710190Y-74498739D01*
X98722810Y-74494031D01*
X98732989Y-74485212D01*
X98754906Y-74482060D01*
X98775654Y-74474322D01*
X98788814Y-74477184D01*
X98802147Y-74475268D01*
X98822290Y-74484467D01*
X98843927Y-74489174D01*
X98861652Y-74502442D01*
X98865703Y-74504293D01*
X98872181Y-74510325D01*
X98963181Y-74601325D01*
X98996666Y-74662648D01*
X98999500Y-74689006D01*
X98999500Y-74986611D01*
X99026598Y-75157701D01*
X99080127Y-75322445D01*
X99158768Y-75476788D01*
X99260586Y-75616928D01*
X99383072Y-75739414D01*
X99523212Y-75841232D01*
X99677555Y-75919873D01*
X99842299Y-75973402D01*
X100013389Y-76000500D01*
X100013390Y-76000500D01*
X100186610Y-76000500D01*
X100186611Y-76000500D01*
X100357701Y-75973402D01*
X100522445Y-75919873D01*
X100676788Y-75841232D01*
X100816928Y-75739414D01*
X100939414Y-75616928D01*
X101041232Y-75476788D01*
X101119873Y-75322445D01*
X101173402Y-75157701D01*
X101200500Y-74986611D01*
X101200500Y-74013389D01*
X101173402Y-73842299D01*
X101119873Y-73677555D01*
X101041232Y-73523212D01*
X100939414Y-73383072D01*
X100816928Y-73260586D01*
X100676788Y-73158768D01*
X100529669Y-73083808D01*
X100522447Y-73080128D01*
X100522446Y-73080127D01*
X100522445Y-73080127D01*
X100357701Y-73026598D01*
X100357699Y-73026597D01*
X100357698Y-73026597D01*
X100213078Y-73003692D01*
X100186611Y-72999500D01*
X100013389Y-72999500D01*
X100013384Y-72999500D01*
X99924076Y-73013645D01*
X99854783Y-73004690D01*
X99816997Y-72978853D01*
X86238102Y-59399957D01*
X86238098Y-59399954D01*
X86094711Y-59304145D01*
X86094698Y-59304138D01*
X85935378Y-59238146D01*
X85935366Y-59238143D01*
X85766232Y-59204500D01*
X85766229Y-59204500D01*
X46585758Y-59204500D01*
X46518719Y-59184815D01*
X46498077Y-59168181D01*
X46379786Y-59049890D01*
X46207820Y-58924951D01*
X46207115Y-58924591D01*
X46199054Y-58920485D01*
X46148259Y-58872512D01*
X46131463Y-58804692D01*
X46153999Y-58738556D01*
X46199054Y-58699515D01*
X46207816Y-58695051D01*
X46229789Y-58679086D01*
X46379786Y-58570109D01*
X46379788Y-58570106D01*
X46379792Y-58570104D01*
X46530104Y-58419792D01*
X46530106Y-58419788D01*
X46530109Y-58419786D01*
X46655048Y-58247820D01*
X46655047Y-58247820D01*
X46655051Y-58247816D01*
X46751557Y-58058412D01*
X46817246Y-57856243D01*
X46850500Y-57646287D01*
X46850500Y-57433713D01*
X46817246Y-57223757D01*
X46751557Y-57021588D01*
X46655051Y-56832184D01*
X46655049Y-56832181D01*
X46655048Y-56832179D01*
X46530109Y-56660213D01*
X46379786Y-56509890D01*
X46207820Y-56384951D01*
X46207115Y-56384591D01*
X46199054Y-56380485D01*
X46148259Y-56332512D01*
X46131463Y-56264692D01*
X46153999Y-56198556D01*
X46199054Y-56159515D01*
X46207816Y-56155051D01*
X46229789Y-56139086D01*
X46379786Y-56030109D01*
X46379788Y-56030106D01*
X46379792Y-56030104D01*
X46530104Y-55879792D01*
X46530106Y-55879788D01*
X46530109Y-55879786D01*
X46655048Y-55707820D01*
X46655047Y-55707820D01*
X46655051Y-55707816D01*
X46751557Y-55518412D01*
X46817246Y-55316243D01*
X46820311Y-55296892D01*
X46850240Y-55233758D01*
X46909551Y-55196826D01*
X46979414Y-55197824D01*
X47030465Y-55228609D01*
X48859955Y-57058099D01*
X48981901Y-57180045D01*
X48981902Y-57180046D01*
X49125288Y-57275854D01*
X49125301Y-57275861D01*
X49284621Y-57341853D01*
X49284626Y-57341855D01*
X49453766Y-57375499D01*
X49453769Y-57375500D01*
X49453771Y-57375500D01*
X86765994Y-57375500D01*
X86833033Y-57395185D01*
X86853675Y-57411819D01*
X102304243Y-72862387D01*
X102337728Y-72923710D01*
X102332744Y-72993402D01*
X102290872Y-73049335D01*
X102254882Y-73067998D01*
X102217554Y-73080126D01*
X102063211Y-73158768D01*
X101983256Y-73216859D01*
X101923072Y-73260586D01*
X101923070Y-73260588D01*
X101923069Y-73260588D01*
X101800588Y-73383069D01*
X101800588Y-73383070D01*
X101800586Y-73383072D01*
X101793724Y-73392517D01*
X101698768Y-73523211D01*
X101620128Y-73677552D01*
X101566597Y-73842302D01*
X101539500Y-74013389D01*
X101539500Y-74986611D01*
X101566598Y-75157701D01*
X101620127Y-75322445D01*
X101698768Y-75476788D01*
X101800586Y-75616928D01*
X101923072Y-75739414D01*
X102063212Y-75841232D01*
X102217555Y-75919873D01*
X102382299Y-75973402D01*
X102553389Y-76000500D01*
X102553390Y-76000500D01*
X102726610Y-76000500D01*
X102726611Y-76000500D01*
X102897701Y-75973402D01*
X103062445Y-75919873D01*
X103216788Y-75841232D01*
X103356928Y-75739414D01*
X103479414Y-75616928D01*
X103581232Y-75476788D01*
X103659873Y-75322445D01*
X103713402Y-75157701D01*
X103740500Y-74986611D01*
X103740500Y-74598006D01*
X103746738Y-74576760D01*
X103748318Y-74554672D01*
X103756390Y-74543888D01*
X103760185Y-74530967D01*
X103776918Y-74516467D01*
X103790190Y-74498739D01*
X103802810Y-74494031D01*
X103812989Y-74485212D01*
X103834906Y-74482060D01*
X103855654Y-74474322D01*
X103868814Y-74477184D01*
X103882147Y-74475268D01*
X103902290Y-74484467D01*
X103923927Y-74489174D01*
X103941652Y-74502442D01*
X103945703Y-74504293D01*
X103952181Y-74510325D01*
X104043181Y-74601325D01*
X104076666Y-74662648D01*
X104079500Y-74689006D01*
X104079500Y-74986611D01*
X104106598Y-75157701D01*
X104160127Y-75322445D01*
X104238768Y-75476788D01*
X104340586Y-75616928D01*
X104463072Y-75739414D01*
X104603212Y-75841232D01*
X104757555Y-75919873D01*
X104874936Y-75958013D01*
X104932609Y-75997448D01*
X104959808Y-76061807D01*
X104947894Y-76130653D01*
X104924297Y-76163623D01*
X104424741Y-76663181D01*
X104363418Y-76696666D01*
X104337060Y-76699500D01*
X57921155Y-76699500D01*
X57766510Y-76730261D01*
X57766498Y-76730264D01*
X57620827Y-76790602D01*
X57620814Y-76790609D01*
X57489711Y-76878210D01*
X57489707Y-76878213D01*
X53246136Y-81121786D01*
X52489711Y-81878211D01*
X52433960Y-81933962D01*
X52378209Y-81989712D01*
X52290609Y-82120814D01*
X52290602Y-82120827D01*
X52230264Y-82266498D01*
X52230261Y-82266510D01*
X52199500Y-82421153D01*
X52199500Y-82578846D01*
X52230261Y-82733489D01*
X52230264Y-82733501D01*
X52290602Y-82879172D01*
X52290609Y-82879185D01*
X52378210Y-83010288D01*
X52378213Y-83010292D01*
X52489707Y-83121786D01*
X52489711Y-83121789D01*
X52620814Y-83209390D01*
X52620827Y-83209397D01*
X52766498Y-83269735D01*
X52766503Y-83269737D01*
X52815626Y-83279508D01*
X52877536Y-83311892D01*
X52912110Y-83372607D01*
X52908371Y-83442377D01*
X52879115Y-83488806D01*
X48124741Y-88243181D01*
X48063418Y-88276666D01*
X48037060Y-88279500D01*
X46650894Y-88279500D01*
X46583855Y-88259815D01*
X46550577Y-88228387D01*
X46530104Y-88200208D01*
X46379792Y-88049896D01*
X46379786Y-88049890D01*
X46207820Y-87924951D01*
X46207115Y-87924591D01*
X46199054Y-87920485D01*
X46148259Y-87872512D01*
X46131463Y-87804692D01*
X46153999Y-87738556D01*
X46199054Y-87699515D01*
X46207816Y-87695051D01*
X46255593Y-87660339D01*
X46379786Y-87570109D01*
X46379788Y-87570106D01*
X46379792Y-87570104D01*
X46530104Y-87419792D01*
X46530106Y-87419788D01*
X46530109Y-87419786D01*
X46655048Y-87247820D01*
X46655047Y-87247820D01*
X46655051Y-87247816D01*
X46751557Y-87058412D01*
X46817246Y-86856243D01*
X46850500Y-86646287D01*
X46850500Y-86433713D01*
X46845051Y-86399312D01*
X46854005Y-86330020D01*
X46879840Y-86292236D01*
X60335259Y-72836819D01*
X60396582Y-72803334D01*
X60422940Y-72800500D01*
X69578844Y-72800500D01*
X69578845Y-72800499D01*
X69733497Y-72769737D01*
X69879179Y-72709394D01*
X70010289Y-72621789D01*
X70121789Y-72510289D01*
X70209394Y-72379179D01*
X70269737Y-72233497D01*
X70300500Y-72078842D01*
X70300500Y-71921158D01*
X70300500Y-71921155D01*
X70300499Y-71921153D01*
X70269738Y-71766510D01*
X70269737Y-71766503D01*
X70269735Y-71766498D01*
X70209397Y-71620827D01*
X70209390Y-71620814D01*
X70121789Y-71489711D01*
X70121786Y-71489707D01*
X70010292Y-71378213D01*
X70010288Y-71378210D01*
X69879185Y-71290609D01*
X69879172Y-71290602D01*
X69733501Y-71230264D01*
X69733489Y-71230261D01*
X69578845Y-71199500D01*
X69578842Y-71199500D01*
X60118842Y-71199500D01*
X59961157Y-71199500D01*
X59961155Y-71199500D01*
X59806508Y-71230261D01*
X59806498Y-71230264D01*
X59660827Y-71290602D01*
X59660815Y-71290609D01*
X59572680Y-71349500D01*
X59572679Y-71349501D01*
X59529708Y-71378212D01*
X59529707Y-71378213D01*
X47062180Y-83845741D01*
X47000857Y-83879226D01*
X46931165Y-83874242D01*
X46875232Y-83832370D01*
X46850815Y-83766906D01*
X46850499Y-83758060D01*
X46850499Y-83102129D01*
X46850498Y-83102123D01*
X46850497Y-83102116D01*
X46844091Y-83042517D01*
X46832070Y-83010288D01*
X46793797Y-82907671D01*
X46793793Y-82907664D01*
X46707547Y-82792455D01*
X46707544Y-82792452D01*
X46592335Y-82706206D01*
X46592328Y-82706202D01*
X46457482Y-82655908D01*
X46457483Y-82655908D01*
X46397883Y-82649501D01*
X46397881Y-82649500D01*
X46397873Y-82649500D01*
X46397864Y-82649500D01*
X44602129Y-82649500D01*
X44602123Y-82649501D01*
X44542516Y-82655908D01*
X44407671Y-82706202D01*
X44407664Y-82706206D01*
X44292455Y-82792452D01*
X44292452Y-82792455D01*
X44206206Y-82907664D01*
X44206202Y-82907671D01*
X44155908Y-83042517D01*
X44149501Y-83102116D01*
X44149501Y-83102123D01*
X44149500Y-83102135D01*
X44149500Y-83884216D01*
X44129815Y-83951255D01*
X44113180Y-83971897D01*
X41862220Y-86222859D01*
X41862218Y-86222861D01*
X41823382Y-86261697D01*
X41722859Y-86362219D01*
X41613371Y-86526080D01*
X41613364Y-86526093D01*
X41574948Y-86618841D01*
X41574948Y-86618842D01*
X41537948Y-86708165D01*
X41537946Y-86708170D01*
X41518847Y-86804193D01*
X41518724Y-86804812D01*
X41499500Y-86901459D01*
X41499500Y-98598541D01*
X41499500Y-98598543D01*
X41499499Y-98598543D01*
X41537947Y-98791829D01*
X41537950Y-98791839D01*
X41613364Y-98973907D01*
X41613371Y-98973920D01*
X41722859Y-99137780D01*
X41722860Y-99137781D01*
X41722861Y-99137782D01*
X41862218Y-99277139D01*
X41862219Y-99277139D01*
X41869286Y-99284206D01*
X41869285Y-99284206D01*
X41869288Y-99284208D01*
X45222860Y-102637781D01*
X45222861Y-102637782D01*
X45362218Y-102777139D01*
X45526086Y-102886632D01*
X45632745Y-102930811D01*
X45708164Y-102962051D01*
X45901454Y-103000499D01*
X45901457Y-103000500D01*
X45901459Y-103000500D01*
X86598543Y-103000500D01*
X86728582Y-102974632D01*
X86791835Y-102962051D01*
X86973914Y-102886632D01*
X87137782Y-102777139D01*
X87277139Y-102637782D01*
X87386632Y-102473914D01*
X87462051Y-102291835D01*
X87500500Y-102098541D01*
X87500500Y-101901459D01*
X87500500Y-101901456D01*
X87462052Y-101708170D01*
X87462051Y-101708169D01*
X87462051Y-101708165D01*
X87440603Y-101656384D01*
X87386635Y-101526092D01*
X87386628Y-101526079D01*
X87277139Y-101362218D01*
X87277136Y-101362214D01*
X87137785Y-101222863D01*
X87137781Y-101222860D01*
X86973920Y-101113371D01*
X86973907Y-101113364D01*
X86791839Y-101037950D01*
X86791829Y-101037947D01*
X86598543Y-100999500D01*
X86598541Y-100999500D01*
X46465783Y-100999500D01*
X46398744Y-100979815D01*
X46378102Y-100963181D01*
X43536819Y-98121898D01*
X43503334Y-98060575D01*
X43500500Y-98034217D01*
X43500500Y-87465782D01*
X43520185Y-87398743D01*
X43536819Y-87378101D01*
X43675149Y-87239771D01*
X44009245Y-86905674D01*
X44070566Y-86872191D01*
X44140257Y-86877175D01*
X44196191Y-86919046D01*
X44214855Y-86955038D01*
X44248444Y-87058416D01*
X44344951Y-87247820D01*
X44469890Y-87419786D01*
X44620213Y-87570109D01*
X44792182Y-87695050D01*
X44800946Y-87699516D01*
X44851742Y-87747491D01*
X44868536Y-87815312D01*
X44845998Y-87881447D01*
X44800946Y-87920484D01*
X44792182Y-87924949D01*
X44620213Y-88049890D01*
X44469890Y-88200213D01*
X44344951Y-88372179D01*
X44248444Y-88561585D01*
X44182753Y-88763760D01*
X44149500Y-88973713D01*
X44149500Y-89186286D01*
X44174515Y-89344229D01*
X44182754Y-89396243D01*
X44200383Y-89450500D01*
X44248444Y-89598414D01*
X44344951Y-89787820D01*
X44469890Y-89959786D01*
X44620213Y-90110109D01*
X44792182Y-90235050D01*
X44800946Y-90239516D01*
X44851742Y-90287491D01*
X44868536Y-90355312D01*
X44845998Y-90421447D01*
X44800946Y-90460484D01*
X44792182Y-90464949D01*
X44620213Y-90589890D01*
X44469890Y-90740213D01*
X44344951Y-90912179D01*
X44248444Y-91101585D01*
X44182753Y-91303760D01*
X44149500Y-91513713D01*
X44149500Y-91726286D01*
X44182753Y-91936239D01*
X44248444Y-92138414D01*
X44344951Y-92327820D01*
X44469890Y-92499786D01*
X44620213Y-92650109D01*
X44792182Y-92775050D01*
X44800946Y-92779516D01*
X44851742Y-92827491D01*
X44868536Y-92895312D01*
X44845998Y-92961447D01*
X44800946Y-93000484D01*
X44792182Y-93004949D01*
X44620213Y-93129890D01*
X44469890Y-93280213D01*
X44344951Y-93452179D01*
X44248444Y-93641585D01*
X44182753Y-93843760D01*
X44149500Y-94053713D01*
X44149500Y-94266286D01*
X44182753Y-94476239D01*
X44248444Y-94678414D01*
X44344951Y-94867820D01*
X44469890Y-95039786D01*
X44620213Y-95190109D01*
X44792179Y-95315048D01*
X44792181Y-95315049D01*
X44792184Y-95315051D01*
X44801493Y-95319794D01*
X44852290Y-95367766D01*
X44869087Y-95435587D01*
X44846552Y-95501722D01*
X44801505Y-95540760D01*
X44792446Y-95545376D01*
X44792440Y-95545380D01*
X44738282Y-95584727D01*
X44738282Y-95584728D01*
X45370591Y-96217037D01*
X45307007Y-96234075D01*
X45192993Y-96299901D01*
X45099901Y-96392993D01*
X45034075Y-96507007D01*
X45017037Y-96570591D01*
X44384728Y-95938282D01*
X44384727Y-95938282D01*
X44345380Y-95992439D01*
X44248904Y-96181782D01*
X44183242Y-96383869D01*
X44183242Y-96383872D01*
X44150000Y-96593753D01*
X44150000Y-96806246D01*
X44183242Y-97016127D01*
X44183242Y-97016130D01*
X44248904Y-97218217D01*
X44345375Y-97407550D01*
X44384728Y-97461716D01*
X45017037Y-96829408D01*
X45034075Y-96892993D01*
X45099901Y-97007007D01*
X45192993Y-97100099D01*
X45307007Y-97165925D01*
X45370590Y-97182962D01*
X44738282Y-97815269D01*
X44738282Y-97815270D01*
X44792449Y-97854624D01*
X44981782Y-97951095D01*
X45183870Y-98016757D01*
X45393754Y-98050000D01*
X45606246Y-98050000D01*
X45816127Y-98016757D01*
X45816130Y-98016757D01*
X46018217Y-97951095D01*
X46207554Y-97854622D01*
X46261716Y-97815270D01*
X46261717Y-97815270D01*
X45629408Y-97182962D01*
X45692993Y-97165925D01*
X45807007Y-97100099D01*
X45900099Y-97007007D01*
X45965925Y-96892993D01*
X45982962Y-96829409D01*
X46615270Y-97461717D01*
X46615270Y-97461716D01*
X46654622Y-97407554D01*
X46751095Y-97218217D01*
X46816757Y-97016130D01*
X46816757Y-97016127D01*
X46850000Y-96806246D01*
X46850000Y-96593753D01*
X46816757Y-96383872D01*
X46816757Y-96383869D01*
X46751095Y-96181782D01*
X46654624Y-95992449D01*
X46615270Y-95938282D01*
X46615269Y-95938282D01*
X45982962Y-96570590D01*
X45965925Y-96507007D01*
X45900099Y-96392993D01*
X45807007Y-96299901D01*
X45692993Y-96234075D01*
X45629409Y-96217037D01*
X46261716Y-95584728D01*
X46207547Y-95545373D01*
X46207547Y-95545372D01*
X46198500Y-95540763D01*
X46147706Y-95492788D01*
X46130912Y-95424966D01*
X46153451Y-95358832D01*
X46198508Y-95319793D01*
X46207816Y-95315051D01*
X46287007Y-95257515D01*
X46379786Y-95190109D01*
X46379788Y-95190106D01*
X46379792Y-95190104D01*
X46530104Y-95039792D01*
X46530106Y-95039788D01*
X46530109Y-95039786D01*
X46655048Y-94867820D01*
X46655047Y-94867820D01*
X46655051Y-94867816D01*
X46751557Y-94678412D01*
X46817246Y-94476243D01*
X46850500Y-94266287D01*
X46850500Y-94053713D01*
X46845051Y-94019312D01*
X46854005Y-93950020D01*
X46879840Y-93912236D01*
X48042076Y-92750000D01*
X69671522Y-92750000D01*
X71149999Y-92750000D01*
X71124979Y-92810402D01*
X71100000Y-92935981D01*
X71100000Y-93064019D01*
X71124979Y-93189598D01*
X71149999Y-93250000D01*
X69671522Y-93250000D01*
X69685704Y-93339544D01*
X69756230Y-93556604D01*
X69859849Y-93759966D01*
X69994004Y-93944614D01*
X70155385Y-94105995D01*
X70340033Y-94240150D01*
X70543395Y-94343769D01*
X70760455Y-94414295D01*
X70985884Y-94450000D01*
X71500000Y-94450000D01*
X71500000Y-93600001D01*
X71560402Y-93625021D01*
X71685981Y-93650000D01*
X71814019Y-93650000D01*
X71939598Y-93625021D01*
X72000000Y-93600001D01*
X72000000Y-94450000D01*
X72514116Y-94450000D01*
X72739544Y-94414295D01*
X72956604Y-94343769D01*
X73159966Y-94240150D01*
X73344614Y-94105995D01*
X73505995Y-93944614D01*
X73640150Y-93759966D01*
X73743769Y-93556604D01*
X73814295Y-93339544D01*
X73828478Y-93250000D01*
X72350001Y-93250000D01*
X72375021Y-93189598D01*
X72400000Y-93064019D01*
X72400000Y-92935981D01*
X72375021Y-92810402D01*
X72350001Y-92750000D01*
X73828478Y-92750000D01*
X82171522Y-92750000D01*
X83649999Y-92750000D01*
X83624979Y-92810402D01*
X83600000Y-92935981D01*
X83600000Y-93064019D01*
X83624979Y-93189598D01*
X83649999Y-93250000D01*
X82171522Y-93250000D01*
X82185704Y-93339544D01*
X82256230Y-93556604D01*
X82359849Y-93759966D01*
X82494004Y-93944614D01*
X82655385Y-94105995D01*
X82840033Y-94240150D01*
X83043395Y-94343769D01*
X83260455Y-94414295D01*
X83485884Y-94450000D01*
X84000000Y-94450000D01*
X84000000Y-93600001D01*
X84060402Y-93625021D01*
X84185981Y-93650000D01*
X84314019Y-93650000D01*
X84439598Y-93625021D01*
X84500000Y-93600001D01*
X84500000Y-94450000D01*
X85014116Y-94450000D01*
X85239544Y-94414295D01*
X85456604Y-94343769D01*
X85659966Y-94240150D01*
X85844614Y-94105995D01*
X86005995Y-93944614D01*
X86140150Y-93759966D01*
X86243769Y-93556604D01*
X86314295Y-93339544D01*
X86328478Y-93250000D01*
X84850001Y-93250000D01*
X84875021Y-93189598D01*
X84900000Y-93064019D01*
X84900000Y-92935981D01*
X84875021Y-92810402D01*
X84850001Y-92750000D01*
X86328478Y-92750000D01*
X86314295Y-92660455D01*
X86243769Y-92443395D01*
X86140150Y-92240033D01*
X86005995Y-92055385D01*
X85844614Y-91894004D01*
X85659966Y-91759849D01*
X85456604Y-91656230D01*
X85239544Y-91585704D01*
X85014116Y-91550000D01*
X84500000Y-91550000D01*
X84500000Y-92399998D01*
X84439598Y-92374979D01*
X84314019Y-92350000D01*
X84185981Y-92350000D01*
X84060402Y-92374979D01*
X84000000Y-92399998D01*
X84000000Y-91550000D01*
X83485884Y-91550000D01*
X83260455Y-91585704D01*
X83043395Y-91656230D01*
X82840033Y-91759849D01*
X82655385Y-91894004D01*
X82494004Y-92055385D01*
X82359849Y-92240033D01*
X82256230Y-92443395D01*
X82185704Y-92660455D01*
X82171522Y-92750000D01*
X73828478Y-92750000D01*
X73814295Y-92660455D01*
X73743769Y-92443395D01*
X73640150Y-92240033D01*
X73505995Y-92055385D01*
X73344614Y-91894004D01*
X73159966Y-91759849D01*
X72956604Y-91656230D01*
X72739544Y-91585704D01*
X72514116Y-91550000D01*
X72000000Y-91550000D01*
X72000000Y-92399998D01*
X71939598Y-92374979D01*
X71814019Y-92350000D01*
X71685981Y-92350000D01*
X71560402Y-92374979D01*
X71500000Y-92399998D01*
X71500000Y-91550000D01*
X70985884Y-91550000D01*
X70760455Y-91585704D01*
X70543395Y-91656230D01*
X70340033Y-91759849D01*
X70155385Y-91894004D01*
X69994004Y-92055385D01*
X69859849Y-92240033D01*
X69756230Y-92443395D01*
X69685704Y-92660455D01*
X69671522Y-92750000D01*
X48042076Y-92750000D01*
X52906240Y-87885837D01*
X69649500Y-87885837D01*
X69649500Y-88114162D01*
X69685215Y-88339660D01*
X69755770Y-88556803D01*
X69848248Y-88738299D01*
X69859421Y-88760228D01*
X69993621Y-88944937D01*
X70155063Y-89106379D01*
X70339772Y-89240579D01*
X70435884Y-89289550D01*
X70543196Y-89344229D01*
X70543198Y-89344229D01*
X70543201Y-89344231D01*
X70659592Y-89382049D01*
X70760339Y-89414784D01*
X70985838Y-89450500D01*
X70985843Y-89450500D01*
X72514162Y-89450500D01*
X72739660Y-89414784D01*
X72796735Y-89396239D01*
X72956799Y-89344231D01*
X73160228Y-89240579D01*
X73344937Y-89106379D01*
X73464497Y-88986819D01*
X73525820Y-88953334D01*
X73552178Y-88950500D01*
X82447822Y-88950500D01*
X82514861Y-88970185D01*
X82535503Y-88986819D01*
X82655063Y-89106379D01*
X82839772Y-89240579D01*
X82935884Y-89289550D01*
X83043196Y-89344229D01*
X83043198Y-89344229D01*
X83043201Y-89344231D01*
X83159592Y-89382049D01*
X83260339Y-89414784D01*
X83485838Y-89450500D01*
X83485843Y-89450500D01*
X85014162Y-89450500D01*
X85239660Y-89414784D01*
X85296735Y-89396239D01*
X85456799Y-89344231D01*
X85660228Y-89240579D01*
X85844937Y-89106379D01*
X86006379Y-88944937D01*
X86140579Y-88760228D01*
X86244231Y-88556799D01*
X86314784Y-88339660D01*
X86350500Y-88114162D01*
X86350500Y-87885837D01*
X86314784Y-87660339D01*
X86251568Y-87465782D01*
X86244849Y-87445105D01*
X86242855Y-87375267D01*
X86275098Y-87319110D01*
X90107391Y-83486819D01*
X90168714Y-83453334D01*
X90195072Y-83450500D01*
X112093618Y-83450500D01*
X112105286Y-83448178D01*
X112185433Y-83432236D01*
X112277251Y-83413973D01*
X112348901Y-83384294D01*
X112450230Y-83342323D01*
X112605908Y-83238302D01*
X116078301Y-79765909D01*
X116182322Y-79610231D01*
X116253973Y-79437251D01*
X116290500Y-79253616D01*
X116290500Y-75488368D01*
X116304015Y-75432073D01*
X116359873Y-75322445D01*
X116413402Y-75157701D01*
X116440500Y-74986611D01*
X116440500Y-74013389D01*
X116413402Y-73842299D01*
X116359873Y-73677555D01*
X116281232Y-73523212D01*
X116179414Y-73383072D01*
X116056928Y-73260586D01*
X115916788Y-73158768D01*
X115769669Y-73083808D01*
X115762447Y-73080128D01*
X115762446Y-73080127D01*
X115762445Y-73080127D01*
X115597701Y-73026598D01*
X115597699Y-73026597D01*
X115597698Y-73026597D01*
X115453078Y-73003692D01*
X115426611Y-72999500D01*
X115253389Y-72999500D01*
X115226922Y-73003692D01*
X115082302Y-73026597D01*
X114917552Y-73080128D01*
X114763211Y-73158768D01*
X114683256Y-73216859D01*
X114623072Y-73260586D01*
X114623070Y-73260588D01*
X114623069Y-73260588D01*
X114500588Y-73383069D01*
X114500588Y-73383070D01*
X114500586Y-73383072D01*
X114493724Y-73392517D01*
X114398768Y-73523211D01*
X114320128Y-73677552D01*
X114266597Y-73842302D01*
X114239500Y-74013389D01*
X114239500Y-74986611D01*
X114266598Y-75157701D01*
X114267792Y-75161377D01*
X114320128Y-75322447D01*
X114375985Y-75432073D01*
X114389500Y-75488368D01*
X114389500Y-78714928D01*
X114369815Y-78781967D01*
X114353181Y-78802609D01*
X111642609Y-81513181D01*
X111581286Y-81546666D01*
X111554928Y-81549500D01*
X89656379Y-81549500D01*
X89472756Y-81586024D01*
X89472752Y-81586026D01*
X89472750Y-81586026D01*
X89472749Y-81586027D01*
X89401099Y-81615705D01*
X89401097Y-81615706D01*
X89299772Y-81657675D01*
X89299763Y-81657680D01*
X89144092Y-81761697D01*
X89144088Y-81761700D01*
X84392609Y-86513181D01*
X84331286Y-86546666D01*
X84304928Y-86549500D01*
X83485838Y-86549500D01*
X83260339Y-86585215D01*
X83043196Y-86655770D01*
X82839771Y-86759421D01*
X82655061Y-86893622D01*
X82655060Y-86893623D01*
X82535503Y-87013181D01*
X82474180Y-87046666D01*
X82447822Y-87049500D01*
X73552178Y-87049500D01*
X73485139Y-87029815D01*
X73464497Y-87013181D01*
X73344938Y-86893622D01*
X73160228Y-86759421D01*
X72956803Y-86655770D01*
X72739660Y-86585215D01*
X72514162Y-86549500D01*
X72514157Y-86549500D01*
X70985843Y-86549500D01*
X70985838Y-86549500D01*
X70760339Y-86585215D01*
X70543196Y-86655770D01*
X70339771Y-86759421D01*
X70155061Y-86893622D01*
X69993622Y-87055061D01*
X69859421Y-87239771D01*
X69755770Y-87443196D01*
X69685215Y-87660339D01*
X69649500Y-87885837D01*
X52906240Y-87885837D01*
X59455259Y-81336819D01*
X59516582Y-81303334D01*
X59542940Y-81300500D01*
X106878844Y-81300500D01*
X106878845Y-81300499D01*
X107033497Y-81269737D01*
X107179179Y-81209394D01*
X107310289Y-81121789D01*
X112425762Y-76006314D01*
X112487083Y-75972831D01*
X112537371Y-75973370D01*
X112537487Y-75972640D01*
X112570035Y-75977795D01*
X112713389Y-76000500D01*
X112713390Y-76000500D01*
X112886610Y-76000500D01*
X112886611Y-76000500D01*
X113057701Y-75973402D01*
X113222445Y-75919873D01*
X113376788Y-75841232D01*
X113516928Y-75739414D01*
X113639414Y-75616928D01*
X113741232Y-75476788D01*
X113819873Y-75322445D01*
X113873402Y-75157701D01*
X113900500Y-74986611D01*
X113900500Y-74013389D01*
X113873402Y-73842299D01*
X113819873Y-73677555D01*
X113741232Y-73523212D01*
X113639414Y-73383072D01*
X113516928Y-73260586D01*
X113376788Y-73158768D01*
X113229669Y-73083808D01*
X113222447Y-73080128D01*
X113222446Y-73080127D01*
X113222445Y-73080127D01*
X113057701Y-73026598D01*
X113057699Y-73026597D01*
X113057698Y-73026597D01*
X112913078Y-73003692D01*
X112886611Y-72999500D01*
X112713389Y-72999500D01*
X112686922Y-73003692D01*
X112542302Y-73026597D01*
X112377552Y-73080128D01*
X112223211Y-73158768D01*
X112143256Y-73216859D01*
X112083072Y-73260586D01*
X112083070Y-73260588D01*
X112083069Y-73260588D01*
X111960588Y-73383069D01*
X111960588Y-73383070D01*
X111960586Y-73383072D01*
X111953724Y-73392517D01*
X111858768Y-73523211D01*
X111780128Y-73677552D01*
X111726597Y-73842302D01*
X111699500Y-74013389D01*
X111699500Y-74417060D01*
X111690855Y-74446500D01*
X111684332Y-74476487D01*
X111680577Y-74481502D01*
X111679815Y-74484099D01*
X111663181Y-74504741D01*
X111572181Y-74595741D01*
X111510858Y-74629226D01*
X111441166Y-74624242D01*
X111385233Y-74582370D01*
X111360816Y-74516906D01*
X111360500Y-74508060D01*
X111360500Y-74013389D01*
X111333985Y-73845982D01*
X111333402Y-73842299D01*
X111279873Y-73677555D01*
X111201232Y-73523212D01*
X111099414Y-73383072D01*
X110976928Y-73260586D01*
X110836788Y-73158768D01*
X110689669Y-73083808D01*
X110682447Y-73080128D01*
X110682446Y-73080127D01*
X110682445Y-73080127D01*
X110517701Y-73026598D01*
X110517699Y-73026597D01*
X110517698Y-73026597D01*
X110373078Y-73003692D01*
X110346611Y-72999500D01*
X110173389Y-72999500D01*
X110146922Y-73003692D01*
X110002302Y-73026597D01*
X109837552Y-73080128D01*
X109683211Y-73158768D01*
X109603256Y-73216859D01*
X109543072Y-73260586D01*
X109543070Y-73260588D01*
X109543069Y-73260588D01*
X109420588Y-73383069D01*
X109420588Y-73383070D01*
X109420586Y-73383072D01*
X109413724Y-73392517D01*
X109318768Y-73523211D01*
X109240128Y-73677552D01*
X109186597Y-73842302D01*
X109159500Y-74013389D01*
X109159500Y-74417060D01*
X109150855Y-74446500D01*
X109144332Y-74476487D01*
X109140577Y-74481502D01*
X109139815Y-74484099D01*
X109123181Y-74504741D01*
X109032181Y-74595741D01*
X108970858Y-74629226D01*
X108901166Y-74624242D01*
X108845233Y-74582370D01*
X108820816Y-74516906D01*
X108820500Y-74508060D01*
X108820500Y-74013389D01*
X108793985Y-73845982D01*
X108793402Y-73842299D01*
X108739873Y-73677555D01*
X108661232Y-73523212D01*
X108559414Y-73383072D01*
X108436928Y-73260586D01*
X108296788Y-73158768D01*
X108149669Y-73083808D01*
X108142447Y-73080128D01*
X108142446Y-73080127D01*
X108142445Y-73080127D01*
X107977701Y-73026598D01*
X107977699Y-73026597D01*
X107977698Y-73026597D01*
X107833078Y-73003692D01*
X107806611Y-72999500D01*
X107633389Y-72999500D01*
X107606922Y-73003692D01*
X107462302Y-73026597D01*
X107297552Y-73080128D01*
X107143211Y-73158768D01*
X107063256Y-73216859D01*
X107003072Y-73260586D01*
X107003070Y-73260588D01*
X107003069Y-73260588D01*
X106880588Y-73383069D01*
X106880588Y-73383070D01*
X106880586Y-73383072D01*
X106873724Y-73392517D01*
X106778768Y-73523211D01*
X106700128Y-73677552D01*
X106646597Y-73842302D01*
X106619500Y-74013389D01*
X106619500Y-74417060D01*
X106610855Y-74446500D01*
X106604332Y-74476487D01*
X106600577Y-74481502D01*
X106599815Y-74484099D01*
X106583181Y-74504741D01*
X106492181Y-74595741D01*
X106430858Y-74629226D01*
X106361166Y-74624242D01*
X106305233Y-74582370D01*
X106280816Y-74516906D01*
X106280500Y-74508060D01*
X106280500Y-74013389D01*
X106253985Y-73845982D01*
X106253402Y-73842299D01*
X106199873Y-73677555D01*
X106121232Y-73523212D01*
X106019414Y-73383072D01*
X105896928Y-73260586D01*
X105756788Y-73158768D01*
X105609669Y-73083808D01*
X105602447Y-73080128D01*
X105602446Y-73080127D01*
X105602445Y-73080127D01*
X105437701Y-73026598D01*
X105437699Y-73026597D01*
X105437698Y-73026597D01*
X105293078Y-73003692D01*
X105266611Y-72999500D01*
X105093389Y-72999500D01*
X105093384Y-72999500D01*
X105004076Y-73013645D01*
X104934783Y-73004690D01*
X104896997Y-72978853D01*
X87738102Y-55819957D01*
X87738098Y-55819954D01*
X87594711Y-55724145D01*
X87594698Y-55724138D01*
X87435378Y-55658146D01*
X87435366Y-55658143D01*
X87266232Y-55624500D01*
X87266229Y-55624500D01*
X49954006Y-55624500D01*
X49886967Y-55604815D01*
X49866325Y-55588181D01*
X46886819Y-52608675D01*
X46853334Y-52547352D01*
X46850500Y-52520994D01*
X46850500Y-52353713D01*
X46817246Y-52143757D01*
X46751557Y-51941588D01*
X46655051Y-51752184D01*
X46655049Y-51752181D01*
X46655048Y-51752179D01*
X46530109Y-51580213D01*
X46379786Y-51429890D01*
X46207820Y-51304951D01*
X46207115Y-51304591D01*
X46199054Y-51300485D01*
X46195162Y-51296808D01*
X46190000Y-51295383D01*
X46170029Y-51273072D01*
X46148259Y-51252512D01*
X46146971Y-51247312D01*
X46143400Y-51243323D01*
X46138661Y-51213760D01*
X46131463Y-51184692D01*
X46133190Y-51179622D01*
X46132343Y-51174334D01*
X46141486Y-51153428D01*
X78680000Y-51153428D01*
X78680000Y-51390000D01*
X79464314Y-51390000D01*
X79459920Y-51394394D01*
X79407259Y-51485606D01*
X79380000Y-51587339D01*
X79380000Y-51692661D01*
X79407259Y-51794394D01*
X79459920Y-51885606D01*
X79464314Y-51890000D01*
X78680000Y-51890000D01*
X78680000Y-52126571D01*
X78707085Y-52297584D01*
X78760591Y-52462257D01*
X78839195Y-52616524D01*
X78940967Y-52756602D01*
X79063397Y-52879032D01*
X79203475Y-52980804D01*
X79357744Y-53059408D01*
X79522415Y-53112914D01*
X79522414Y-53112914D01*
X79529999Y-53114115D01*
X79530000Y-53114114D01*
X79530000Y-51955686D01*
X79534394Y-51960080D01*
X79625606Y-52012741D01*
X79727339Y-52040000D01*
X79832661Y-52040000D01*
X79934394Y-52012741D01*
X80025606Y-51960080D01*
X80030000Y-51955686D01*
X80030000Y-53114115D01*
X80037584Y-53112914D01*
X80202255Y-53059408D01*
X80356524Y-52980804D01*
X80496602Y-52879032D01*
X80619032Y-52756602D01*
X80720804Y-52616524D01*
X80799408Y-52462257D01*
X80852914Y-52297584D01*
X80880000Y-52126571D01*
X80880000Y-51890000D01*
X80095686Y-51890000D01*
X80100080Y-51885606D01*
X80152741Y-51794394D01*
X80180000Y-51692661D01*
X80180000Y-51587339D01*
X80152741Y-51485606D01*
X80100080Y-51394394D01*
X80095686Y-51390000D01*
X80880000Y-51390000D01*
X80880000Y-51153428D01*
X81220000Y-51153428D01*
X81220000Y-51390000D01*
X82004314Y-51390000D01*
X81999920Y-51394394D01*
X81947259Y-51485606D01*
X81920000Y-51587339D01*
X81920000Y-51692661D01*
X81947259Y-51794394D01*
X81999920Y-51885606D01*
X82004314Y-51890000D01*
X81220000Y-51890000D01*
X81220000Y-52126571D01*
X81247085Y-52297584D01*
X81300591Y-52462257D01*
X81379195Y-52616524D01*
X81480967Y-52756602D01*
X81603397Y-52879032D01*
X81743475Y-52980804D01*
X81897744Y-53059408D01*
X82062415Y-53112914D01*
X82062414Y-53112914D01*
X82069999Y-53114115D01*
X82070000Y-53114114D01*
X82070000Y-51955686D01*
X82074394Y-51960080D01*
X82165606Y-52012741D01*
X82267339Y-52040000D01*
X82372661Y-52040000D01*
X82474394Y-52012741D01*
X82565606Y-51960080D01*
X82570000Y-51955686D01*
X82570000Y-53114115D01*
X82577584Y-53112914D01*
X82742255Y-53059408D01*
X82896524Y-52980804D01*
X83036602Y-52879032D01*
X83159032Y-52756602D01*
X83260804Y-52616524D01*
X83339408Y-52462257D01*
X83392914Y-52297584D01*
X83420000Y-52126571D01*
X83420000Y-51890000D01*
X82635686Y-51890000D01*
X82640080Y-51885606D01*
X82692741Y-51794394D01*
X82720000Y-51692661D01*
X82720000Y-51587339D01*
X82692741Y-51485606D01*
X82640080Y-51394394D01*
X82635686Y-51390000D01*
X83420000Y-51390000D01*
X83420000Y-51153428D01*
X83419994Y-51153389D01*
X83759500Y-51153389D01*
X83759500Y-52126611D01*
X83786598Y-52297701D01*
X83840127Y-52462445D01*
X83918768Y-52616788D01*
X84020586Y-52756928D01*
X84143072Y-52879414D01*
X84283212Y-52981232D01*
X84437555Y-53059873D01*
X84602299Y-53113402D01*
X84773389Y-53140500D01*
X84773390Y-53140500D01*
X84946610Y-53140500D01*
X84946611Y-53140500D01*
X85117701Y-53113402D01*
X85282445Y-53059873D01*
X85436788Y-52981232D01*
X85576928Y-52879414D01*
X85699414Y-52756928D01*
X85801232Y-52616788D01*
X85879873Y-52462445D01*
X85933402Y-52297701D01*
X85960500Y-52126611D01*
X85960500Y-51153389D01*
X86299500Y-51153389D01*
X86299500Y-52126611D01*
X86326598Y-52297701D01*
X86380127Y-52462445D01*
X86458768Y-52616788D01*
X86560586Y-52756928D01*
X86683072Y-52879414D01*
X86823212Y-52981232D01*
X86977555Y-53059873D01*
X87142299Y-53113402D01*
X87313389Y-53140500D01*
X87313390Y-53140500D01*
X87486610Y-53140500D01*
X87486611Y-53140500D01*
X87657701Y-53113402D01*
X87822445Y-53059873D01*
X87976788Y-52981232D01*
X88116928Y-52879414D01*
X88239414Y-52756928D01*
X88341232Y-52616788D01*
X88419873Y-52462445D01*
X88473402Y-52297701D01*
X88500500Y-52126611D01*
X88500500Y-51153389D01*
X88839500Y-51153389D01*
X88839500Y-52126611D01*
X88866598Y-52297701D01*
X88920127Y-52462445D01*
X88998768Y-52616788D01*
X89100586Y-52756928D01*
X89223072Y-52879414D01*
X89363212Y-52981232D01*
X89517555Y-53059873D01*
X89682299Y-53113402D01*
X89853389Y-53140500D01*
X89853390Y-53140500D01*
X90026610Y-53140500D01*
X90026611Y-53140500D01*
X90197701Y-53113402D01*
X90362445Y-53059873D01*
X90516788Y-52981232D01*
X90656928Y-52879414D01*
X90779414Y-52756928D01*
X90881232Y-52616788D01*
X90959873Y-52462445D01*
X91013402Y-52297701D01*
X91040500Y-52126611D01*
X91040500Y-51153389D01*
X91379500Y-51153389D01*
X91379500Y-52126611D01*
X91406598Y-52297701D01*
X91460127Y-52462445D01*
X91538768Y-52616788D01*
X91640586Y-52756928D01*
X91763072Y-52879414D01*
X91903212Y-52981232D01*
X92057555Y-53059873D01*
X92222299Y-53113402D01*
X92393389Y-53140500D01*
X92393390Y-53140500D01*
X92566610Y-53140500D01*
X92566611Y-53140500D01*
X92737701Y-53113402D01*
X92902445Y-53059873D01*
X93056788Y-52981232D01*
X93196928Y-52879414D01*
X93319414Y-52756928D01*
X93421232Y-52616788D01*
X93499873Y-52462445D01*
X93553402Y-52297701D01*
X93580500Y-52126611D01*
X93580500Y-51153389D01*
X93919500Y-51153389D01*
X93919500Y-52126611D01*
X93946598Y-52297701D01*
X94000127Y-52462445D01*
X94078768Y-52616788D01*
X94180586Y-52756928D01*
X94303072Y-52879414D01*
X94443212Y-52981232D01*
X94597555Y-53059873D01*
X94762299Y-53113402D01*
X94933389Y-53140500D01*
X94933390Y-53140500D01*
X95106610Y-53140500D01*
X95106611Y-53140500D01*
X95277701Y-53113402D01*
X95442445Y-53059873D01*
X95596788Y-52981232D01*
X95736928Y-52879414D01*
X95859414Y-52756928D01*
X95961232Y-52616788D01*
X96039873Y-52462445D01*
X96093402Y-52297701D01*
X96120500Y-52126611D01*
X96120500Y-51153389D01*
X96459500Y-51153389D01*
X96459500Y-52126611D01*
X96486598Y-52297701D01*
X96540127Y-52462445D01*
X96618768Y-52616788D01*
X96720586Y-52756928D01*
X96843072Y-52879414D01*
X96983212Y-52981232D01*
X97137555Y-53059873D01*
X97302299Y-53113402D01*
X97473389Y-53140500D01*
X97473390Y-53140500D01*
X97646610Y-53140500D01*
X97646611Y-53140500D01*
X97817701Y-53113402D01*
X97982445Y-53059873D01*
X98136788Y-52981232D01*
X98276928Y-52879414D01*
X98399414Y-52756928D01*
X98501232Y-52616788D01*
X98579873Y-52462445D01*
X98633402Y-52297701D01*
X98660500Y-52126611D01*
X98660500Y-51153389D01*
X98999500Y-51153389D01*
X98999500Y-52126611D01*
X99026598Y-52297701D01*
X99080127Y-52462445D01*
X99158768Y-52616788D01*
X99260586Y-52756928D01*
X99383072Y-52879414D01*
X99523212Y-52981232D01*
X99677555Y-53059873D01*
X99842299Y-53113402D01*
X100013389Y-53140500D01*
X100013390Y-53140500D01*
X100186610Y-53140500D01*
X100186611Y-53140500D01*
X100357701Y-53113402D01*
X100522445Y-53059873D01*
X100676788Y-52981232D01*
X100816928Y-52879414D01*
X100939414Y-52756928D01*
X101041232Y-52616788D01*
X101119873Y-52462445D01*
X101173402Y-52297701D01*
X101200500Y-52126611D01*
X101200500Y-51153389D01*
X101539500Y-51153389D01*
X101539500Y-52126611D01*
X101566598Y-52297701D01*
X101620127Y-52462445D01*
X101698768Y-52616788D01*
X101800586Y-52756928D01*
X101923072Y-52879414D01*
X102063212Y-52981232D01*
X102217555Y-53059873D01*
X102382299Y-53113402D01*
X102553389Y-53140500D01*
X102553390Y-53140500D01*
X102726610Y-53140500D01*
X102726611Y-53140500D01*
X102897701Y-53113402D01*
X103062445Y-53059873D01*
X103216788Y-52981232D01*
X103356928Y-52879414D01*
X103479414Y-52756928D01*
X103581232Y-52616788D01*
X103659873Y-52462445D01*
X103713402Y-52297701D01*
X103740500Y-52126611D01*
X103740500Y-51153389D01*
X104079500Y-51153389D01*
X104079500Y-52126611D01*
X104106598Y-52297701D01*
X104160127Y-52462445D01*
X104238768Y-52616788D01*
X104340586Y-52756928D01*
X104463072Y-52879414D01*
X104603212Y-52981232D01*
X104757555Y-53059873D01*
X104922299Y-53113402D01*
X105093389Y-53140500D01*
X105093390Y-53140500D01*
X105266610Y-53140500D01*
X105266611Y-53140500D01*
X105437701Y-53113402D01*
X105602445Y-53059873D01*
X105756788Y-52981232D01*
X105896928Y-52879414D01*
X106019414Y-52756928D01*
X106121232Y-52616788D01*
X106199873Y-52462445D01*
X106253402Y-52297701D01*
X106280500Y-52126611D01*
X106280500Y-51153389D01*
X106619500Y-51153389D01*
X106619500Y-52126611D01*
X106646598Y-52297701D01*
X106700127Y-52462445D01*
X106778768Y-52616788D01*
X106880586Y-52756928D01*
X107003072Y-52879414D01*
X107143212Y-52981232D01*
X107297555Y-53059873D01*
X107462299Y-53113402D01*
X107633389Y-53140500D01*
X107633390Y-53140500D01*
X107806610Y-53140500D01*
X107806611Y-53140500D01*
X107977701Y-53113402D01*
X108142445Y-53059873D01*
X108296788Y-52981232D01*
X108436928Y-52879414D01*
X108559414Y-52756928D01*
X108661232Y-52616788D01*
X108739873Y-52462445D01*
X108793402Y-52297701D01*
X108820500Y-52126611D01*
X108820500Y-51153389D01*
X109159500Y-51153389D01*
X109159500Y-52126611D01*
X109186598Y-52297701D01*
X109240127Y-52462445D01*
X109318768Y-52616788D01*
X109420586Y-52756928D01*
X109543072Y-52879414D01*
X109683212Y-52981232D01*
X109837555Y-53059873D01*
X110002299Y-53113402D01*
X110173389Y-53140500D01*
X110173390Y-53140500D01*
X110346610Y-53140500D01*
X110346611Y-53140500D01*
X110517701Y-53113402D01*
X110682445Y-53059873D01*
X110836788Y-52981232D01*
X110976928Y-52879414D01*
X111099414Y-52756928D01*
X111201232Y-52616788D01*
X111279873Y-52462445D01*
X111333402Y-52297701D01*
X111360500Y-52126611D01*
X111360500Y-51153389D01*
X111699500Y-51153389D01*
X111699500Y-52126611D01*
X111726598Y-52297701D01*
X111780127Y-52462445D01*
X111858768Y-52616788D01*
X111960586Y-52756928D01*
X112083072Y-52879414D01*
X112223212Y-52981232D01*
X112377555Y-53059873D01*
X112542299Y-53113402D01*
X112713389Y-53140500D01*
X112713390Y-53140500D01*
X112886610Y-53140500D01*
X112886611Y-53140500D01*
X113057701Y-53113402D01*
X113222445Y-53059873D01*
X113376788Y-52981232D01*
X113516928Y-52879414D01*
X113639414Y-52756928D01*
X113741232Y-52616788D01*
X113819873Y-52462445D01*
X113873402Y-52297701D01*
X113900500Y-52126611D01*
X113900500Y-51153389D01*
X113873402Y-50982299D01*
X113819873Y-50817555D01*
X113741232Y-50663212D01*
X113639414Y-50523072D01*
X113516928Y-50400586D01*
X113376788Y-50298768D01*
X113222445Y-50220127D01*
X113057701Y-50166598D01*
X113057699Y-50166597D01*
X113057698Y-50166597D01*
X112926271Y-50145781D01*
X112886611Y-50139500D01*
X112713389Y-50139500D01*
X112673728Y-50145781D01*
X112542302Y-50166597D01*
X112377552Y-50220128D01*
X112223211Y-50298768D01*
X112143256Y-50356859D01*
X112083072Y-50400586D01*
X112083070Y-50400588D01*
X112083069Y-50400588D01*
X111960588Y-50523069D01*
X111960588Y-50523070D01*
X111960586Y-50523072D01*
X111960350Y-50523397D01*
X111858768Y-50663211D01*
X111780128Y-50817552D01*
X111726597Y-50982302D01*
X111705752Y-51113913D01*
X111699500Y-51153389D01*
X111360500Y-51153389D01*
X111333402Y-50982299D01*
X111279873Y-50817555D01*
X111201232Y-50663212D01*
X111099414Y-50523072D01*
X110976928Y-50400586D01*
X110836788Y-50298768D01*
X110682445Y-50220127D01*
X110517701Y-50166598D01*
X110517699Y-50166597D01*
X110517698Y-50166597D01*
X110386271Y-50145781D01*
X110346611Y-50139500D01*
X110173389Y-50139500D01*
X110133728Y-50145781D01*
X110002302Y-50166597D01*
X109837552Y-50220128D01*
X109683211Y-50298768D01*
X109603256Y-50356859D01*
X109543072Y-50400586D01*
X109543070Y-50400588D01*
X109543069Y-50400588D01*
X109420588Y-50523069D01*
X109420588Y-50523070D01*
X109420586Y-50523072D01*
X109420350Y-50523397D01*
X109318768Y-50663211D01*
X109240128Y-50817552D01*
X109186597Y-50982302D01*
X109165752Y-51113913D01*
X109159500Y-51153389D01*
X108820500Y-51153389D01*
X108793402Y-50982299D01*
X108739873Y-50817555D01*
X108661232Y-50663212D01*
X108559414Y-50523072D01*
X108436928Y-50400586D01*
X108296788Y-50298768D01*
X108142445Y-50220127D01*
X107977701Y-50166598D01*
X107977699Y-50166597D01*
X107977698Y-50166597D01*
X107846271Y-50145781D01*
X107806611Y-50139500D01*
X107633389Y-50139500D01*
X107593728Y-50145781D01*
X107462302Y-50166597D01*
X107297552Y-50220128D01*
X107143211Y-50298768D01*
X107063256Y-50356859D01*
X107003072Y-50400586D01*
X107003070Y-50400588D01*
X107003069Y-50400588D01*
X106880588Y-50523069D01*
X106880588Y-50523070D01*
X106880586Y-50523072D01*
X106880350Y-50523397D01*
X106778768Y-50663211D01*
X106700128Y-50817552D01*
X106646597Y-50982302D01*
X106625752Y-51113913D01*
X106619500Y-51153389D01*
X106280500Y-51153389D01*
X106253402Y-50982299D01*
X106199873Y-50817555D01*
X106121232Y-50663212D01*
X106019414Y-50523072D01*
X105896928Y-50400586D01*
X105756788Y-50298768D01*
X105602445Y-50220127D01*
X105437701Y-50166598D01*
X105437699Y-50166597D01*
X105437698Y-50166597D01*
X105306271Y-50145781D01*
X105266611Y-50139500D01*
X105093389Y-50139500D01*
X105053728Y-50145781D01*
X104922302Y-50166597D01*
X104757552Y-50220128D01*
X104603211Y-50298768D01*
X104523256Y-50356859D01*
X104463072Y-50400586D01*
X104463070Y-50400588D01*
X104463069Y-50400588D01*
X104340588Y-50523069D01*
X104340588Y-50523070D01*
X104340586Y-50523072D01*
X104340350Y-50523397D01*
X104238768Y-50663211D01*
X104160128Y-50817552D01*
X104106597Y-50982302D01*
X104085752Y-51113913D01*
X104079500Y-51153389D01*
X103740500Y-51153389D01*
X103713402Y-50982299D01*
X103659873Y-50817555D01*
X103581232Y-50663212D01*
X103479414Y-50523072D01*
X103356928Y-50400586D01*
X103216788Y-50298768D01*
X103062445Y-50220127D01*
X102897701Y-50166598D01*
X102897699Y-50166597D01*
X102897698Y-50166597D01*
X102766271Y-50145781D01*
X102726611Y-50139500D01*
X102553389Y-50139500D01*
X102513728Y-50145781D01*
X102382302Y-50166597D01*
X102217552Y-50220128D01*
X102063211Y-50298768D01*
X101983256Y-50356859D01*
X101923072Y-50400586D01*
X101923070Y-50400588D01*
X101923069Y-50400588D01*
X101800588Y-50523069D01*
X101800588Y-50523070D01*
X101800586Y-50523072D01*
X101800350Y-50523397D01*
X101698768Y-50663211D01*
X101620128Y-50817552D01*
X101566597Y-50982302D01*
X101545752Y-51113913D01*
X101539500Y-51153389D01*
X101200500Y-51153389D01*
X101173402Y-50982299D01*
X101119873Y-50817555D01*
X101041232Y-50663212D01*
X100939414Y-50523072D01*
X100816928Y-50400586D01*
X100676788Y-50298768D01*
X100522445Y-50220127D01*
X100357701Y-50166598D01*
X100357699Y-50166597D01*
X100357698Y-50166597D01*
X100226271Y-50145781D01*
X100186611Y-50139500D01*
X100013389Y-50139500D01*
X99973728Y-50145781D01*
X99842302Y-50166597D01*
X99677552Y-50220128D01*
X99523211Y-50298768D01*
X99443256Y-50356859D01*
X99383072Y-50400586D01*
X99383070Y-50400588D01*
X99383069Y-50400588D01*
X99260588Y-50523069D01*
X99260588Y-50523070D01*
X99260586Y-50523072D01*
X99260350Y-50523397D01*
X99158768Y-50663211D01*
X99080128Y-50817552D01*
X99026597Y-50982302D01*
X99005752Y-51113913D01*
X98999500Y-51153389D01*
X98660500Y-51153389D01*
X98633402Y-50982299D01*
X98579873Y-50817555D01*
X98501232Y-50663212D01*
X98399414Y-50523072D01*
X98276928Y-50400586D01*
X98136788Y-50298768D01*
X97982445Y-50220127D01*
X97817701Y-50166598D01*
X97817699Y-50166597D01*
X97817698Y-50166597D01*
X97686271Y-50145781D01*
X97646611Y-50139500D01*
X97473389Y-50139500D01*
X97433728Y-50145781D01*
X97302302Y-50166597D01*
X97137552Y-50220128D01*
X96983211Y-50298768D01*
X96903256Y-50356859D01*
X96843072Y-50400586D01*
X96843070Y-50400588D01*
X96843069Y-50400588D01*
X96720588Y-50523069D01*
X96720588Y-50523070D01*
X96720586Y-50523072D01*
X96720350Y-50523397D01*
X96618768Y-50663211D01*
X96540128Y-50817552D01*
X96486597Y-50982302D01*
X96465752Y-51113913D01*
X96459500Y-51153389D01*
X96120500Y-51153389D01*
X96093402Y-50982299D01*
X96039873Y-50817555D01*
X95961232Y-50663212D01*
X95859414Y-50523072D01*
X95736928Y-50400586D01*
X95596788Y-50298768D01*
X95442445Y-50220127D01*
X95277701Y-50166598D01*
X95277699Y-50166597D01*
X95277698Y-50166597D01*
X95146271Y-50145781D01*
X95106611Y-50139500D01*
X94933389Y-50139500D01*
X94893728Y-50145781D01*
X94762302Y-50166597D01*
X94597552Y-50220128D01*
X94443211Y-50298768D01*
X94363256Y-50356859D01*
X94303072Y-50400586D01*
X94303070Y-50400588D01*
X94303069Y-50400588D01*
X94180588Y-50523069D01*
X94180588Y-50523070D01*
X94180586Y-50523072D01*
X94180350Y-50523397D01*
X94078768Y-50663211D01*
X94000128Y-50817552D01*
X93946597Y-50982302D01*
X93925752Y-51113913D01*
X93919500Y-51153389D01*
X93580500Y-51153389D01*
X93553402Y-50982299D01*
X93499873Y-50817555D01*
X93421232Y-50663212D01*
X93319414Y-50523072D01*
X93196928Y-50400586D01*
X93056788Y-50298768D01*
X92902445Y-50220127D01*
X92737701Y-50166598D01*
X92737699Y-50166597D01*
X92737698Y-50166597D01*
X92606271Y-50145781D01*
X92566611Y-50139500D01*
X92393389Y-50139500D01*
X92353728Y-50145781D01*
X92222302Y-50166597D01*
X92057552Y-50220128D01*
X91903211Y-50298768D01*
X91823256Y-50356859D01*
X91763072Y-50400586D01*
X91763070Y-50400588D01*
X91763069Y-50400588D01*
X91640588Y-50523069D01*
X91640588Y-50523070D01*
X91640586Y-50523072D01*
X91640350Y-50523397D01*
X91538768Y-50663211D01*
X91460128Y-50817552D01*
X91406597Y-50982302D01*
X91385752Y-51113913D01*
X91379500Y-51153389D01*
X91040500Y-51153389D01*
X91013402Y-50982299D01*
X90959873Y-50817555D01*
X90881232Y-50663212D01*
X90779414Y-50523072D01*
X90656928Y-50400586D01*
X90516788Y-50298768D01*
X90362445Y-50220127D01*
X90197701Y-50166598D01*
X90197699Y-50166597D01*
X90197698Y-50166597D01*
X90066271Y-50145781D01*
X90026611Y-50139500D01*
X89853389Y-50139500D01*
X89813728Y-50145781D01*
X89682302Y-50166597D01*
X89517552Y-50220128D01*
X89363211Y-50298768D01*
X89283256Y-50356859D01*
X89223072Y-50400586D01*
X89223070Y-50400588D01*
X89223069Y-50400588D01*
X89100588Y-50523069D01*
X89100588Y-50523070D01*
X89100586Y-50523072D01*
X89100350Y-50523397D01*
X88998768Y-50663211D01*
X88920128Y-50817552D01*
X88866597Y-50982302D01*
X88845752Y-51113913D01*
X88839500Y-51153389D01*
X88500500Y-51153389D01*
X88473402Y-50982299D01*
X88419873Y-50817555D01*
X88341232Y-50663212D01*
X88239414Y-50523072D01*
X88116928Y-50400586D01*
X87976788Y-50298768D01*
X87822445Y-50220127D01*
X87657701Y-50166598D01*
X87657699Y-50166597D01*
X87657698Y-50166597D01*
X87526271Y-50145781D01*
X87486611Y-50139500D01*
X87313389Y-50139500D01*
X87273728Y-50145781D01*
X87142302Y-50166597D01*
X86977552Y-50220128D01*
X86823211Y-50298768D01*
X86743256Y-50356859D01*
X86683072Y-50400586D01*
X86683070Y-50400588D01*
X86683069Y-50400588D01*
X86560588Y-50523069D01*
X86560588Y-50523070D01*
X86560586Y-50523072D01*
X86560350Y-50523397D01*
X86458768Y-50663211D01*
X86380128Y-50817552D01*
X86326597Y-50982302D01*
X86305752Y-51113913D01*
X86299500Y-51153389D01*
X85960500Y-51153389D01*
X85933402Y-50982299D01*
X85879873Y-50817555D01*
X85801232Y-50663212D01*
X85699414Y-50523072D01*
X85576928Y-50400586D01*
X85436788Y-50298768D01*
X85282445Y-50220127D01*
X85117701Y-50166598D01*
X85117699Y-50166597D01*
X85117698Y-50166597D01*
X84986271Y-50145781D01*
X84946611Y-50139500D01*
X84773389Y-50139500D01*
X84733728Y-50145781D01*
X84602302Y-50166597D01*
X84437552Y-50220128D01*
X84283211Y-50298768D01*
X84203256Y-50356859D01*
X84143072Y-50400586D01*
X84143070Y-50400588D01*
X84143069Y-50400588D01*
X84020588Y-50523069D01*
X84020588Y-50523070D01*
X84020586Y-50523072D01*
X84020350Y-50523397D01*
X83918768Y-50663211D01*
X83840128Y-50817552D01*
X83786597Y-50982302D01*
X83765752Y-51113913D01*
X83759500Y-51153389D01*
X83419994Y-51153389D01*
X83392914Y-50982415D01*
X83339408Y-50817742D01*
X83260804Y-50663475D01*
X83159032Y-50523397D01*
X83036602Y-50400967D01*
X82896524Y-50299195D01*
X82742257Y-50220591D01*
X82577589Y-50167087D01*
X82577581Y-50167085D01*
X82570000Y-50165884D01*
X82570000Y-51324314D01*
X82565606Y-51319920D01*
X82474394Y-51267259D01*
X82372661Y-51240000D01*
X82267339Y-51240000D01*
X82165606Y-51267259D01*
X82074394Y-51319920D01*
X82070000Y-51324314D01*
X82070000Y-50165884D01*
X82069999Y-50165884D01*
X82062418Y-50167085D01*
X82062410Y-50167087D01*
X81897742Y-50220591D01*
X81743475Y-50299195D01*
X81603397Y-50400967D01*
X81480967Y-50523397D01*
X81379195Y-50663475D01*
X81300591Y-50817742D01*
X81247085Y-50982415D01*
X81220000Y-51153428D01*
X80880000Y-51153428D01*
X80852914Y-50982415D01*
X80799408Y-50817742D01*
X80720804Y-50663475D01*
X80619032Y-50523397D01*
X80496602Y-50400967D01*
X80356524Y-50299195D01*
X80202257Y-50220591D01*
X80037589Y-50167087D01*
X80037581Y-50167085D01*
X80030000Y-50165884D01*
X80030000Y-51324314D01*
X80025606Y-51319920D01*
X79934394Y-51267259D01*
X79832661Y-51240000D01*
X79727339Y-51240000D01*
X79625606Y-51267259D01*
X79534394Y-51319920D01*
X79530000Y-51324314D01*
X79530000Y-50165884D01*
X79529999Y-50165884D01*
X79522418Y-50167085D01*
X79522410Y-50167087D01*
X79357742Y-50220591D01*
X79203475Y-50299195D01*
X79063397Y-50400967D01*
X78940967Y-50523397D01*
X78839195Y-50663475D01*
X78760591Y-50817742D01*
X78707085Y-50982415D01*
X78680000Y-51153428D01*
X46141486Y-51153428D01*
X46144340Y-51146901D01*
X46153999Y-51118556D01*
X46158766Y-51113913D01*
X46160339Y-51110319D01*
X46171937Y-51101090D01*
X46186637Y-51086779D01*
X46192635Y-51082785D01*
X46207816Y-51075051D01*
X46295916Y-51011042D01*
X46379786Y-50950109D01*
X46379788Y-50950106D01*
X46379792Y-50950104D01*
X46530104Y-50799792D01*
X46530106Y-50799788D01*
X46530109Y-50799786D01*
X46655048Y-50627820D01*
X46655047Y-50627820D01*
X46655051Y-50627816D01*
X46751557Y-50438412D01*
X46817246Y-50236243D01*
X46850500Y-50026287D01*
X46850500Y-49813713D01*
X46817246Y-49603757D01*
X46751557Y-49401588D01*
X46655051Y-49212184D01*
X46655049Y-49212181D01*
X46655048Y-49212179D01*
X46530109Y-49040213D01*
X46379786Y-48889890D01*
X46207820Y-48764951D01*
X46207115Y-48764591D01*
X46199054Y-48760485D01*
X46148259Y-48712512D01*
X46131463Y-48644692D01*
X46153999Y-48578556D01*
X46199054Y-48539515D01*
X46207816Y-48535051D01*
X46229789Y-48519086D01*
X46379786Y-48410109D01*
X46379788Y-48410106D01*
X46379792Y-48410104D01*
X46530104Y-48259792D01*
X46530106Y-48259788D01*
X46530109Y-48259786D01*
X46655048Y-48087820D01*
X46655047Y-48087820D01*
X46655051Y-48087816D01*
X46751557Y-47898412D01*
X46817246Y-47696243D01*
X46850500Y-47486287D01*
X46850500Y-47273713D01*
X46817246Y-47063757D01*
X46751557Y-46861588D01*
X46655051Y-46672184D01*
X46655049Y-46672181D01*
X46655048Y-46672179D01*
X46530109Y-46500213D01*
X46379786Y-46349890D01*
X46207817Y-46224949D01*
X46198504Y-46220204D01*
X46147707Y-46172230D01*
X46130912Y-46104409D01*
X46153449Y-46038274D01*
X46198507Y-45999232D01*
X46207555Y-45994622D01*
X46261716Y-45955270D01*
X46261717Y-45955270D01*
X45629408Y-45322962D01*
X45692993Y-45305925D01*
X45807007Y-45240099D01*
X45900099Y-45147007D01*
X45965925Y-45032993D01*
X45982962Y-44969409D01*
X46615270Y-45601717D01*
X46615270Y-45601716D01*
X46654622Y-45547554D01*
X46751095Y-45358217D01*
X46816757Y-45156130D01*
X46816757Y-45156127D01*
X46850000Y-44946246D01*
X46850000Y-44733753D01*
X46816757Y-44523872D01*
X46816757Y-44523869D01*
X46751095Y-44321782D01*
X46654624Y-44132449D01*
X46615270Y-44078282D01*
X46615269Y-44078282D01*
X45982962Y-44710590D01*
X45965925Y-44647007D01*
X45900099Y-44532993D01*
X45807007Y-44439901D01*
X45692993Y-44374075D01*
X45629408Y-44357037D01*
X46261716Y-43724728D01*
X46207547Y-43685373D01*
X46207547Y-43685372D01*
X46198500Y-43680763D01*
X46147706Y-43632788D01*
X46130912Y-43564966D01*
X46153451Y-43498832D01*
X46198508Y-43459793D01*
X46207816Y-43455051D01*
X46287007Y-43397515D01*
X46379786Y-43330109D01*
X46379788Y-43330106D01*
X46379792Y-43330104D01*
X46530104Y-43179792D01*
X46530106Y-43179788D01*
X46530109Y-43179786D01*
X46655048Y-43007820D01*
X46655047Y-43007820D01*
X46655051Y-43007816D01*
X46751557Y-42818412D01*
X46817246Y-42616243D01*
X46825461Y-42564367D01*
X46855389Y-42501237D01*
X46860235Y-42496105D01*
X52719523Y-36636819D01*
X52780846Y-36603334D01*
X52807204Y-36600500D01*
X106426610Y-36600500D01*
X106426611Y-36600500D01*
X106597701Y-36573402D01*
X106762445Y-36519873D01*
X106916788Y-36441232D01*
X107056928Y-36339414D01*
X109509523Y-33886817D01*
X109570846Y-33853333D01*
X109597204Y-33850499D01*
X110237871Y-33850499D01*
X110237872Y-33850499D01*
X110297483Y-33844091D01*
X110432331Y-33793796D01*
X110547546Y-33707546D01*
X110633796Y-33592331D01*
X110684091Y-33457483D01*
X110690500Y-33397873D01*
X110690499Y-33373979D01*
X110693330Y-33360963D01*
X110703940Y-33341525D01*
X110710179Y-33320275D01*
X110726803Y-33299643D01*
X110726808Y-33299636D01*
X110726811Y-33299634D01*
X110726818Y-33299626D01*
X111397037Y-32629408D01*
X111414075Y-32692993D01*
X111479901Y-32807007D01*
X111572993Y-32900099D01*
X111687007Y-32965925D01*
X111750590Y-32982962D01*
X111118282Y-33615269D01*
X111118282Y-33615270D01*
X111172449Y-33654624D01*
X111361782Y-33751095D01*
X111563870Y-33816757D01*
X111773754Y-33850000D01*
X111986246Y-33850000D01*
X112196127Y-33816757D01*
X112196130Y-33816757D01*
X112398217Y-33751095D01*
X112587554Y-33654622D01*
X112641716Y-33615270D01*
X112641717Y-33615270D01*
X112009408Y-32982962D01*
X112072993Y-32965925D01*
X112187007Y-32900099D01*
X112280099Y-32807007D01*
X112345925Y-32692993D01*
X112362962Y-32629409D01*
X112995270Y-33261717D01*
X112995270Y-33261716D01*
X113034622Y-33207555D01*
X113039232Y-33198507D01*
X113087205Y-33147709D01*
X113155025Y-33130912D01*
X113221161Y-33153447D01*
X113260204Y-33198504D01*
X113264949Y-33207817D01*
X113389890Y-33379786D01*
X113540213Y-33530109D01*
X113712179Y-33655048D01*
X113712181Y-33655049D01*
X113712184Y-33655051D01*
X113901588Y-33751557D01*
X114103757Y-33817246D01*
X114313713Y-33850500D01*
X114313714Y-33850500D01*
X114526286Y-33850500D01*
X114526287Y-33850500D01*
X114736243Y-33817246D01*
X114938412Y-33751557D01*
X115127816Y-33655051D01*
X115214138Y-33592335D01*
X115299786Y-33530109D01*
X115299788Y-33530106D01*
X115299792Y-33530104D01*
X115450104Y-33379792D01*
X115450106Y-33379788D01*
X115450109Y-33379786D01*
X115575048Y-33207820D01*
X115575050Y-33207817D01*
X115575051Y-33207816D01*
X115579514Y-33199054D01*
X115627488Y-33148259D01*
X115695308Y-33131463D01*
X115761444Y-33153999D01*
X115800486Y-33199056D01*
X115804951Y-33207820D01*
X115929890Y-33379786D01*
X116080213Y-33530109D01*
X116252179Y-33655048D01*
X116252181Y-33655049D01*
X116252184Y-33655051D01*
X116441588Y-33751557D01*
X116643757Y-33817246D01*
X116853713Y-33850500D01*
X116853714Y-33850500D01*
X117066286Y-33850500D01*
X117066287Y-33850500D01*
X117276243Y-33817246D01*
X117478412Y-33751557D01*
X117667816Y-33655051D01*
X117754138Y-33592335D01*
X117839786Y-33530109D01*
X117839788Y-33530106D01*
X117839792Y-33530104D01*
X117990104Y-33379792D01*
X117990106Y-33379788D01*
X117990109Y-33379786D01*
X118115048Y-33207820D01*
X118115050Y-33207817D01*
X118115051Y-33207816D01*
X118119514Y-33199054D01*
X118167488Y-33148259D01*
X118235308Y-33131463D01*
X118301444Y-33153999D01*
X118340486Y-33199056D01*
X118344951Y-33207820D01*
X118469890Y-33379786D01*
X118563181Y-33473077D01*
X118596666Y-33534400D01*
X118599500Y-33560758D01*
X118599500Y-35075637D01*
X118579815Y-35142676D01*
X118563181Y-35163318D01*
X114640538Y-39085960D01*
X114640537Y-39085961D01*
X114601064Y-39145039D01*
X114601063Y-39145040D01*
X114541985Y-39233455D01*
X114508046Y-39315393D01*
X114474106Y-39397329D01*
X114474103Y-39397341D01*
X114439500Y-39571303D01*
X114439500Y-50566859D01*
X114419815Y-50633898D01*
X114415818Y-50639745D01*
X114398770Y-50663207D01*
X114398769Y-50663210D01*
X114320128Y-50817552D01*
X114266597Y-50982302D01*
X114245752Y-51113913D01*
X114239500Y-51153389D01*
X114239500Y-52126611D01*
X114266598Y-52297701D01*
X114320127Y-52462445D01*
X114398768Y-52616788D01*
X114500586Y-52756928D01*
X114623072Y-52879414D01*
X114763212Y-52981232D01*
X114917555Y-53059873D01*
X115082299Y-53113402D01*
X115253389Y-53140500D01*
X115253390Y-53140500D01*
X115426610Y-53140500D01*
X115426611Y-53140500D01*
X115597701Y-53113402D01*
X115762445Y-53059873D01*
X115916788Y-52981232D01*
X116056928Y-52879414D01*
X116179414Y-52756928D01*
X116281232Y-52616788D01*
X116359873Y-52462445D01*
X116413402Y-52297701D01*
X116440500Y-52126611D01*
X116440500Y-51153389D01*
X116413402Y-50982299D01*
X116359873Y-50817555D01*
X116281232Y-50663212D01*
X116281229Y-50663208D01*
X116281229Y-50663207D01*
X116264182Y-50639745D01*
X116240702Y-50573939D01*
X116240500Y-50566859D01*
X116240500Y-40084361D01*
X116260185Y-40017322D01*
X116276819Y-39996680D01*
X116767819Y-39505680D01*
X116829142Y-39472195D01*
X116898834Y-39477179D01*
X116954767Y-39519051D01*
X116979184Y-39584515D01*
X116979500Y-39593361D01*
X116979500Y-50566859D01*
X116959815Y-50633898D01*
X116955818Y-50639745D01*
X116938770Y-50663207D01*
X116938769Y-50663210D01*
X116860128Y-50817552D01*
X116806597Y-50982302D01*
X116785752Y-51113913D01*
X116779500Y-51153389D01*
X116779500Y-52126611D01*
X116806598Y-52297701D01*
X116860127Y-52462445D01*
X116938768Y-52616788D01*
X117040586Y-52756928D01*
X117163072Y-52879414D01*
X117303212Y-52981232D01*
X117457555Y-53059873D01*
X117622299Y-53113402D01*
X117793389Y-53140500D01*
X117793390Y-53140500D01*
X117966610Y-53140500D01*
X117966611Y-53140500D01*
X118137701Y-53113402D01*
X118302445Y-53059873D01*
X118456788Y-52981232D01*
X118596928Y-52879414D01*
X118719414Y-52756928D01*
X118821232Y-52616788D01*
X118899873Y-52462445D01*
X118953402Y-52297701D01*
X118980500Y-52126611D01*
X118980500Y-51153389D01*
X118953402Y-50982299D01*
X118899873Y-50817555D01*
X118821232Y-50663212D01*
X118821229Y-50663208D01*
X118821229Y-50663207D01*
X118804182Y-50639745D01*
X118780702Y-50573939D01*
X118780500Y-50566859D01*
X118780500Y-40084361D01*
X118800185Y-40017322D01*
X118816819Y-39996680D01*
X119307819Y-39505680D01*
X119369142Y-39472195D01*
X119438834Y-39477179D01*
X119494767Y-39519051D01*
X119519184Y-39584515D01*
X119519500Y-39593361D01*
X119519500Y-50566859D01*
X119499815Y-50633898D01*
X119495818Y-50639745D01*
X119478770Y-50663207D01*
X119478769Y-50663210D01*
X119400128Y-50817552D01*
X119346597Y-50982302D01*
X119325752Y-51113913D01*
X119319500Y-51153389D01*
X119319500Y-52126611D01*
X119346598Y-52297701D01*
X119400127Y-52462445D01*
X119478768Y-52616788D01*
X119580586Y-52756928D01*
X119703072Y-52879414D01*
X119843212Y-52981232D01*
X119997555Y-53059873D01*
X120162299Y-53113402D01*
X120333389Y-53140500D01*
X120333390Y-53140500D01*
X120506610Y-53140500D01*
X120506611Y-53140500D01*
X120677701Y-53113402D01*
X120842445Y-53059873D01*
X120996788Y-52981232D01*
X121136928Y-52879414D01*
X121259414Y-52756928D01*
X121361232Y-52616788D01*
X121439873Y-52462445D01*
X121493402Y-52297701D01*
X121520500Y-52126611D01*
X121520500Y-51153389D01*
X121859500Y-51153389D01*
X121859500Y-52126611D01*
X121886598Y-52297701D01*
X121940127Y-52462445D01*
X122018768Y-52616788D01*
X122120586Y-52756928D01*
X122243072Y-52879414D01*
X122383212Y-52981232D01*
X122537555Y-53059873D01*
X122702299Y-53113402D01*
X122873389Y-53140500D01*
X122873390Y-53140500D01*
X123046610Y-53140500D01*
X123046611Y-53140500D01*
X123217701Y-53113402D01*
X123382445Y-53059873D01*
X123536788Y-52981232D01*
X123676928Y-52879414D01*
X123799414Y-52756928D01*
X123901232Y-52616788D01*
X123979873Y-52462445D01*
X124033402Y-52297701D01*
X124060500Y-52126611D01*
X124060500Y-51153389D01*
X124399500Y-51153389D01*
X124399500Y-52126611D01*
X124426598Y-52297701D01*
X124480127Y-52462445D01*
X124558768Y-52616788D01*
X124660586Y-52756928D01*
X124783072Y-52879414D01*
X124923212Y-52981232D01*
X125077555Y-53059873D01*
X125242299Y-53113402D01*
X125413389Y-53140500D01*
X125413390Y-53140500D01*
X125586610Y-53140500D01*
X125586611Y-53140500D01*
X125757701Y-53113402D01*
X125922445Y-53059873D01*
X126076788Y-52981232D01*
X126216928Y-52879414D01*
X126339414Y-52756928D01*
X126441232Y-52616788D01*
X126519873Y-52462445D01*
X126573402Y-52297701D01*
X126600500Y-52126611D01*
X126600500Y-51153389D01*
X126939500Y-51153389D01*
X126939500Y-52126611D01*
X126966598Y-52297701D01*
X127020127Y-52462445D01*
X127098768Y-52616788D01*
X127200586Y-52756928D01*
X127323072Y-52879414D01*
X127463212Y-52981232D01*
X127617555Y-53059873D01*
X127782299Y-53113402D01*
X127953389Y-53140500D01*
X127953390Y-53140500D01*
X128126610Y-53140500D01*
X128126611Y-53140500D01*
X128297701Y-53113402D01*
X128462445Y-53059873D01*
X128616788Y-52981232D01*
X128756928Y-52879414D01*
X128879414Y-52756928D01*
X128981232Y-52616788D01*
X129059873Y-52462445D01*
X129113402Y-52297701D01*
X129140500Y-52126611D01*
X129140500Y-51153389D01*
X129479500Y-51153389D01*
X129479500Y-52126611D01*
X129506598Y-52297701D01*
X129560127Y-52462445D01*
X129638768Y-52616788D01*
X129740586Y-52756928D01*
X129863072Y-52879414D01*
X130003212Y-52981232D01*
X130157555Y-53059873D01*
X130322299Y-53113402D01*
X130493389Y-53140500D01*
X130493390Y-53140500D01*
X130666610Y-53140500D01*
X130666611Y-53140500D01*
X130837701Y-53113402D01*
X131002445Y-53059873D01*
X131156788Y-52981232D01*
X131296928Y-52879414D01*
X131419414Y-52756928D01*
X131521232Y-52616788D01*
X131599873Y-52462445D01*
X131653402Y-52297701D01*
X131680500Y-52126611D01*
X131680500Y-51153389D01*
X131653402Y-50982299D01*
X131599873Y-50817555D01*
X131521232Y-50663212D01*
X131419414Y-50523072D01*
X131296928Y-50400586D01*
X131156788Y-50298768D01*
X131002445Y-50220127D01*
X130837701Y-50166598D01*
X130837699Y-50166597D01*
X130837698Y-50166597D01*
X130706271Y-50145781D01*
X130666611Y-50139500D01*
X130493389Y-50139500D01*
X130453728Y-50145781D01*
X130322302Y-50166597D01*
X130157552Y-50220128D01*
X130003211Y-50298768D01*
X129923256Y-50356859D01*
X129863072Y-50400586D01*
X129863070Y-50400588D01*
X129863069Y-50400588D01*
X129740588Y-50523069D01*
X129740588Y-50523070D01*
X129740586Y-50523072D01*
X129740350Y-50523397D01*
X129638768Y-50663211D01*
X129560128Y-50817552D01*
X129506597Y-50982302D01*
X129485752Y-51113913D01*
X129479500Y-51153389D01*
X129140500Y-51153389D01*
X129113402Y-50982299D01*
X129059873Y-50817555D01*
X128981232Y-50663212D01*
X128879414Y-50523072D01*
X128756928Y-50400586D01*
X128616788Y-50298768D01*
X128462445Y-50220127D01*
X128297701Y-50166598D01*
X128297699Y-50166597D01*
X128297698Y-50166597D01*
X128166271Y-50145781D01*
X128126611Y-50139500D01*
X127953389Y-50139500D01*
X127913728Y-50145781D01*
X127782302Y-50166597D01*
X127617552Y-50220128D01*
X127463211Y-50298768D01*
X127383256Y-50356859D01*
X127323072Y-50400586D01*
X127323070Y-50400588D01*
X127323069Y-50400588D01*
X127200588Y-50523069D01*
X127200588Y-50523070D01*
X127200586Y-50523072D01*
X127200350Y-50523397D01*
X127098768Y-50663211D01*
X127020128Y-50817552D01*
X126966597Y-50982302D01*
X126945752Y-51113913D01*
X126939500Y-51153389D01*
X126600500Y-51153389D01*
X126573402Y-50982299D01*
X126519873Y-50817555D01*
X126441232Y-50663212D01*
X126339414Y-50523072D01*
X126216928Y-50400586D01*
X126076788Y-50298768D01*
X125922445Y-50220127D01*
X125757701Y-50166598D01*
X125757699Y-50166597D01*
X125757698Y-50166597D01*
X125626271Y-50145781D01*
X125586611Y-50139500D01*
X125413389Y-50139500D01*
X125373728Y-50145781D01*
X125242302Y-50166597D01*
X125077552Y-50220128D01*
X124923211Y-50298768D01*
X124843256Y-50356859D01*
X124783072Y-50400586D01*
X124783070Y-50400588D01*
X124783069Y-50400588D01*
X124660588Y-50523069D01*
X124660588Y-50523070D01*
X124660586Y-50523072D01*
X124660350Y-50523397D01*
X124558768Y-50663211D01*
X124480128Y-50817552D01*
X124426597Y-50982302D01*
X124405752Y-51113913D01*
X124399500Y-51153389D01*
X124060500Y-51153389D01*
X124033402Y-50982299D01*
X123979873Y-50817555D01*
X123979869Y-50817547D01*
X123964015Y-50786431D01*
X123950500Y-50730137D01*
X123950500Y-45406383D01*
X123950499Y-45406379D01*
X123934389Y-45325389D01*
X123913973Y-45222749D01*
X123842322Y-45049769D01*
X123842321Y-45049768D01*
X123842318Y-45049762D01*
X123738302Y-44894092D01*
X123738299Y-44894088D01*
X123605911Y-44761700D01*
X123605907Y-44761697D01*
X123450237Y-44657681D01*
X123450228Y-44657676D01*
X123277251Y-44586027D01*
X123277243Y-44586025D01*
X123093620Y-44549500D01*
X123093616Y-44549500D01*
X122906384Y-44549500D01*
X122906379Y-44549500D01*
X122722756Y-44586025D01*
X122722748Y-44586027D01*
X122549771Y-44657676D01*
X122549762Y-44657681D01*
X122394092Y-44761697D01*
X122394088Y-44761700D01*
X122261700Y-44894088D01*
X122261697Y-44894092D01*
X122157681Y-45049762D01*
X122157676Y-45049771D01*
X122086027Y-45222748D01*
X122086025Y-45222756D01*
X122049500Y-45406379D01*
X122049500Y-50580622D01*
X122029815Y-50647661D01*
X122025820Y-50653505D01*
X122018772Y-50663205D01*
X122018769Y-50663210D01*
X121940128Y-50817552D01*
X121886597Y-50982302D01*
X121865752Y-51113913D01*
X121859500Y-51153389D01*
X121520500Y-51153389D01*
X121493402Y-50982299D01*
X121439873Y-50817555D01*
X121361232Y-50663212D01*
X121361229Y-50663208D01*
X121361229Y-50663207D01*
X121344182Y-50639745D01*
X121320702Y-50573939D01*
X121320500Y-50566859D01*
X121320500Y-40084361D01*
X121340185Y-40017322D01*
X121356819Y-39996680D01*
X125279463Y-36074036D01*
X125279465Y-36074033D01*
X125293557Y-36052944D01*
X125378013Y-35926547D01*
X125445894Y-35762666D01*
X125461777Y-35682820D01*
X125480499Y-35588695D01*
X125480500Y-35588693D01*
X125480500Y-33560758D01*
X125500185Y-33493719D01*
X125516819Y-33473077D01*
X125532413Y-33457483D01*
X125610104Y-33379792D01*
X125610106Y-33379788D01*
X125610109Y-33379786D01*
X125735048Y-33207820D01*
X125735050Y-33207817D01*
X125735051Y-33207816D01*
X125831557Y-33018412D01*
X125897246Y-32816243D01*
X125930500Y-32606287D01*
X125930500Y-32393713D01*
X125897246Y-32183757D01*
X125831557Y-31981588D01*
X125735051Y-31792184D01*
X125735049Y-31792181D01*
X125735048Y-31792179D01*
X125610109Y-31620213D01*
X125459786Y-31469890D01*
X125287820Y-31344951D01*
X125098414Y-31248444D01*
X125098413Y-31248443D01*
X125098412Y-31248443D01*
X124896243Y-31182754D01*
X124896241Y-31182753D01*
X124896240Y-31182753D01*
X124734957Y-31157208D01*
X124686287Y-31149500D01*
X124473713Y-31149500D01*
X124425042Y-31157208D01*
X124263760Y-31182753D01*
X124061585Y-31248444D01*
X123872179Y-31344951D01*
X123700213Y-31469890D01*
X123549890Y-31620213D01*
X123424949Y-31792182D01*
X123420484Y-31800946D01*
X123372509Y-31851742D01*
X123304688Y-31868536D01*
X123238553Y-31845998D01*
X123199516Y-31800946D01*
X123195050Y-31792182D01*
X123070109Y-31620213D01*
X122919786Y-31469890D01*
X122747820Y-31344951D01*
X122558414Y-31248444D01*
X122558413Y-31248443D01*
X122558412Y-31248443D01*
X122356243Y-31182754D01*
X122356241Y-31182753D01*
X122356240Y-31182753D01*
X122194957Y-31157208D01*
X122146287Y-31149500D01*
X121933713Y-31149500D01*
X121885042Y-31157208D01*
X121723760Y-31182753D01*
X121521585Y-31248444D01*
X121332179Y-31344951D01*
X121160213Y-31469890D01*
X121009890Y-31620213D01*
X120884949Y-31792182D01*
X120880484Y-31800946D01*
X120832509Y-31851742D01*
X120764688Y-31868536D01*
X120698553Y-31845998D01*
X120659516Y-31800946D01*
X120655050Y-31792182D01*
X120530109Y-31620213D01*
X120379786Y-31469890D01*
X120207820Y-31344951D01*
X120018414Y-31248444D01*
X120018413Y-31248443D01*
X120018412Y-31248443D01*
X119816243Y-31182754D01*
X119816241Y-31182753D01*
X119816240Y-31182753D01*
X119654957Y-31157208D01*
X119606287Y-31149500D01*
X119393713Y-31149500D01*
X119345042Y-31157208D01*
X119183760Y-31182753D01*
X118981585Y-31248444D01*
X118792179Y-31344951D01*
X118620213Y-31469890D01*
X118469890Y-31620213D01*
X118344949Y-31792182D01*
X118340484Y-31800946D01*
X118292509Y-31851742D01*
X118224688Y-31868536D01*
X118158553Y-31845998D01*
X118119516Y-31800946D01*
X118115050Y-31792182D01*
X117990109Y-31620213D01*
X117839786Y-31469890D01*
X117667820Y-31344951D01*
X117478414Y-31248444D01*
X117478413Y-31248443D01*
X117478412Y-31248443D01*
X117276243Y-31182754D01*
X117276241Y-31182753D01*
X117276240Y-31182753D01*
X117114957Y-31157208D01*
X117066287Y-31149500D01*
X116853713Y-31149500D01*
X116805042Y-31157208D01*
X116643760Y-31182753D01*
X116441585Y-31248444D01*
X116252179Y-31344951D01*
X116080213Y-31469890D01*
X115929890Y-31620213D01*
X115804949Y-31792182D01*
X115800484Y-31800946D01*
X115752509Y-31851742D01*
X115684688Y-31868536D01*
X115618553Y-31845998D01*
X115579516Y-31800946D01*
X115575050Y-31792182D01*
X115450109Y-31620213D01*
X115299786Y-31469890D01*
X115127820Y-31344951D01*
X114938414Y-31248444D01*
X114938413Y-31248443D01*
X114938412Y-31248443D01*
X114736243Y-31182754D01*
X114736241Y-31182753D01*
X114736240Y-31182753D01*
X114574957Y-31157208D01*
X114526287Y-31149500D01*
X114313713Y-31149500D01*
X114265042Y-31157208D01*
X114103760Y-31182753D01*
X113901585Y-31248444D01*
X113712179Y-31344951D01*
X113540213Y-31469890D01*
X113389890Y-31620213D01*
X113264949Y-31792182D01*
X113260202Y-31801499D01*
X113212227Y-31852293D01*
X113144405Y-31869087D01*
X113078271Y-31846548D01*
X113039234Y-31801495D01*
X113034626Y-31792452D01*
X112995270Y-31738282D01*
X112995269Y-31738282D01*
X112362962Y-32370590D01*
X112345925Y-32307007D01*
X112280099Y-32192993D01*
X112187007Y-32099901D01*
X112072993Y-32034075D01*
X112009409Y-32017037D01*
X112641716Y-31384728D01*
X112587550Y-31345375D01*
X112398217Y-31248904D01*
X112196129Y-31183242D01*
X111986246Y-31150000D01*
X111773754Y-31150000D01*
X111563872Y-31183242D01*
X111563869Y-31183242D01*
X111361782Y-31248904D01*
X111172439Y-31345380D01*
X111118282Y-31384727D01*
X111118282Y-31384728D01*
X111750591Y-32017037D01*
X111687007Y-32034075D01*
X111572993Y-32099901D01*
X111479901Y-32192993D01*
X111414075Y-32307007D01*
X111397037Y-32370591D01*
X110726818Y-31700372D01*
X110693333Y-31639049D01*
X110693330Y-31639036D01*
X110690499Y-31626015D01*
X110690499Y-31602128D01*
X110684091Y-31542517D01*
X110655926Y-31467002D01*
X110633798Y-31407673D01*
X110633793Y-31407664D01*
X110547547Y-31292455D01*
X110547544Y-31292452D01*
X110432335Y-31206206D01*
X110432328Y-31206202D01*
X110297482Y-31155908D01*
X110297483Y-31155908D01*
X110237883Y-31149501D01*
X110237881Y-31149500D01*
X110237873Y-31149500D01*
X110237864Y-31149500D01*
X108442129Y-31149500D01*
X108442123Y-31149501D01*
X108382516Y-31155908D01*
X108247671Y-31206202D01*
X108247664Y-31206206D01*
X108132455Y-31292452D01*
X108132452Y-31292455D01*
X108046206Y-31407664D01*
X108046202Y-31407671D01*
X107995908Y-31542517D01*
X107989501Y-31602116D01*
X107989500Y-31602135D01*
X107989500Y-32242795D01*
X107969815Y-32309834D01*
X107953181Y-32330476D01*
X105920477Y-34363181D01*
X105859154Y-34396666D01*
X105832796Y-34399500D01*
X52386611Y-34399500D01*
X52213389Y-34399500D01*
X52127844Y-34413049D01*
X52042298Y-34426598D01*
X51877549Y-34480128D01*
X51723211Y-34558768D01*
X51643256Y-34616859D01*
X51583072Y-34660586D01*
X51583070Y-34660588D01*
X51583069Y-34660588D01*
X45303911Y-40939745D01*
X45242588Y-40973230D01*
X45235630Y-40974537D01*
X45183759Y-40982753D01*
X44981585Y-41048444D01*
X44792179Y-41144951D01*
X44620213Y-41269890D01*
X44469890Y-41420213D01*
X44344951Y-41592179D01*
X44248444Y-41781585D01*
X44182753Y-41983759D01*
X44174537Y-42035630D01*
X44144606Y-42098764D01*
X44139745Y-42103911D01*
X40283072Y-45960586D01*
X40160588Y-46083069D01*
X40160588Y-46083070D01*
X40160586Y-46083072D01*
X40145084Y-46104409D01*
X40058768Y-46223211D01*
X39980128Y-46377552D01*
X39926597Y-46542302D01*
X39906027Y-46672179D01*
X39899500Y-46713389D01*
X29257432Y-46713389D01*
X29319555Y-30623520D01*
X29339498Y-30556558D01*
X29392478Y-30511008D01*
X29443554Y-30500000D01*
X133734642Y-30500000D01*
X133801681Y-30519685D01*
G37*
%TD.AperFunction*%
%TD*%
M02*
