%TF.GenerationSoftware,KiCad,Pcbnew,10.0.4*%
%TF.CreationDate,2026-10-03T12:12:20+13:00*%
%TF.ProjectId,retroboy,72657472-6f62-46f7-992e-6b696361645f,rev?*%
%TF.SameCoordinates,Original*%
%TF.FileFunction,Soldermask,Top*%
%TF.FilePolarity,Negative*%
%FSLAX46Y46*%
G04 Gerber Fmt 4.6, Leading zero omitted, Abs format (unit mm)*
G04 Created by KiCad (PCBNEW 10.0.4) date 2026-10-03 12:12:20*
%MOMM*%
%LPD*%
G01*
G04 APERTURE LIST*
%ADD10O,3.200000X1.900000*%
%ADD11R,1.700000X1.700000*%
%ADD12C,1.700000*%
%ADD13R,1.200000X2.000000*%
%ADD14O,1.200000X2.000000*%
G04 APERTURE END LIST*
D10*
%TO.C,SW3*%
X31000000Y-124000000D03*
X43500000Y-124000000D03*
X31000000Y-129000000D03*
X43500000Y-129000000D03*
%TD*%
%TO.C,SW8*%
X92500000Y-124000000D03*
X105000000Y-124000000D03*
X92500000Y-129000000D03*
X105000000Y-129000000D03*
%TD*%
%TO.C,SW2*%
X46500000Y-138500000D03*
X59000000Y-138500000D03*
X46500000Y-143500000D03*
X59000000Y-143500000D03*
%TD*%
%TO.C,SW7*%
X112250000Y-118500000D03*
X124750000Y-118500000D03*
X112250000Y-123500000D03*
X124750000Y-123500000D03*
%TD*%
%TO.C,SW6*%
X71750000Y-88000000D03*
X84250000Y-88000000D03*
X71750000Y-93000000D03*
X84250000Y-93000000D03*
%TD*%
%TO.C,SW4*%
X62000000Y-124000000D03*
X74500000Y-124000000D03*
X62000000Y-129000000D03*
X74500000Y-129000000D03*
%TD*%
%TO.C,SW1*%
X46500000Y-109500000D03*
X59000000Y-109500000D03*
X46500000Y-114500000D03*
X59000000Y-114500000D03*
%TD*%
%TO.C,SW5*%
X95500000Y-88000000D03*
X108000000Y-88000000D03*
X95500000Y-93000000D03*
X108000000Y-93000000D03*
%TD*%
D11*
%TO.C,J1*%
X45500000Y-62620000D03*
D12*
X45500000Y-60080000D03*
X45500000Y-57540000D03*
X45500000Y-55000000D03*
X45500000Y-52460000D03*
X45500000Y-49920000D03*
X45500000Y-47380000D03*
X45500000Y-44840000D03*
X45500000Y-42300000D03*
%TD*%
D13*
%TO.C,U1*%
X133120000Y-74500000D03*
D14*
X130580000Y-74500000D03*
X128040000Y-74500000D03*
X125500000Y-74500000D03*
X122960000Y-74500000D03*
X120420000Y-74500000D03*
X117880000Y-74500000D03*
X115340000Y-74500000D03*
X112800000Y-74500000D03*
X110260000Y-74500000D03*
X107720000Y-74500000D03*
X105180000Y-74500000D03*
X102640000Y-74500000D03*
X100100000Y-74500000D03*
X97560000Y-74500000D03*
X95020000Y-74500000D03*
X92480000Y-74500000D03*
X89940000Y-74500000D03*
X87400000Y-74500000D03*
X84862720Y-74503680D03*
X82322720Y-74503680D03*
X79782720Y-74503680D03*
X79780000Y-51640000D03*
X82320000Y-51640000D03*
X84860000Y-51640000D03*
X87400000Y-51640000D03*
X89940000Y-51640000D03*
X92480000Y-51640000D03*
X95020000Y-51640000D03*
X97560000Y-51640000D03*
X100100000Y-51640000D03*
X102640000Y-51640000D03*
X105180000Y-51640000D03*
X107720000Y-51640000D03*
X110260000Y-51640000D03*
X112800000Y-51640000D03*
X115340000Y-51640000D03*
X117880000Y-51640000D03*
X120420000Y-51640000D03*
X122960000Y-51640000D03*
X125500000Y-51640000D03*
X128040000Y-51640000D03*
X130580000Y-51640000D03*
X133120000Y-51640000D03*
%TD*%
D11*
%TO.C,J3*%
X109340000Y-32500000D03*
D12*
X111880000Y-32500000D03*
X114420000Y-32500000D03*
X116960000Y-32500000D03*
X119500000Y-32500000D03*
X122040000Y-32500000D03*
X124580000Y-32500000D03*
%TD*%
D11*
%TO.C,SD1*%
X45500000Y-84000000D03*
D12*
X45500000Y-86540000D03*
X45500000Y-89080000D03*
X45500000Y-91620000D03*
X45500000Y-94160000D03*
X45500000Y-96700000D03*
%TD*%
M02*
